{
.appVersion = "965";
classes = (
{
automatic = 1;

glyphs = (
{
color = 3;
glyphname = A;
layers = (
{
anchors = (
{
name = bottom;
position = "{330, 0}";
},
{
name = ogonek;
position = "{485, 12}";
},
{
name = top;
position = "{338, 625}";
}
);
layerId = "899E7F5F-806C-4D81-B34A-222CEA57032B";
paths = (
{
closed = 1;
nodes = (
"29 0 OFFCURVE",
"50 4 OFFCURVE",
"94 4 CURVE SMOOTH",
"131 4 OFFCURVE",
"173 0 OFFCURVE",
"201 0 CURVE SMOOTH",
"208 0 OFFCURVE",
"208 12 OFFCURVE",
"202 12 CURVE SMOOTH",
"137 12 OFFCURVE",
"104 26 OFFCURVE",
"147 133 CURVE SMOOTH",
"333 587 LINE",
"318 570 LINE",
"492 84 LINE SMOOTH",
"512 28 OFFCURVE",
"504 12 OFFCURVE",
"433 12 CURVE SMOOTH",
"428 12 OFFCURVE",
"428 0 OFFCURVE",
"433 0 CURVE SMOOTH",
"468 0 OFFCURVE",
"496 4 OFFCURVE",
"537 4 CURVE SMOOTH",
"579 4 OFFCURVE",
"612 0 OFFCURVE",
"647 0 CURVE SMOOTH",
"651 0 OFFCURVE",
"651 12 OFFCURVE",
"647 12 CURVE SMOOTH",
"578 12 OFFCURVE",
"566 29 OFFCURVE",
"546 84 CURVE SMOOTH",
"350 634 LINE SMOOTH",
"347 640 OFFCURVE",
"331 640 OFFCURVE",
"329 635 CURVE SMOOTH",
"111 120 LINE SMOOTH",
"74 33 OFFCURVE",
"29 12 OFFCURVE",
"-8 12 CURVE SMOOTH",
"-14 12 OFFCURVE",
"-13 0 OFFCURVE",
"-8 0 CURVE SMOOTH"
);
},
{
closed = 1;
nodes = (
"440 339 LINE",
"433 358 LINE",
"227 358 LINE",
"214 339 LINE"
);
}
);
width = 647;
},
{
anchors = (
{
name = bottom;
position = "{330, 0}";
},
{
name = ogonek;
position = "{485, 12}";
},
{
name = top;
position = "{336, 625}";
}
);
layerId = "05D38584-429E-4AAF-9BEA-6CB44526FD1C";
paths = (
{
closed = 1;
nodes = (
"29 0 OFFCURVE",
"50 4 OFFCURVE",
"94 4 CURVE SMOOTH",
"140 4 OFFCURVE",
"193 0 OFFCURVE",
"227 0 CURVE SMOOTH",
"234 0 OFFCURVE",
"234 12 OFFCURVE",
"228 12 CURVE SMOOTH",
"138 12 OFFCURVE",
"115 46 OFFCURVE",
"150 129 CURVE SMOOTH",
"336 582 LINE",
"289 505 LINE",
"464 84 LINE SMOOTH",
"488 28 OFFCURVE",
"475 12 OFFCURVE",
"420 12 CURVE SMOOTH",
"415 12 OFFCURVE",
"415 0 OFFCURVE",
"420 0 CURVE SMOOTH",
"458 0 OFFCURVE",
"491 4 OFFCURVE",
"537 4 CURVE SMOOTH",
"584 4 OFFCURVE",
"621 0 OFFCURVE",
"660 0 CURVE SMOOTH",
"664 0 OFFCURVE",
"664 12 OFFCURVE",
"660 12 CURVE SMOOTH",
"602 12 OFFCURVE",
"598 29 OFFCURVE",
"574 84 CURVE SMOOTH",
"350 633 LINE SMOOTH",
"346 637 OFFCURVE",
"331 639 OFFCURVE",
"330 634 CURVE SMOOTH",
"119 136 LINE SMOOTH",
"82 53 OFFCURVE",
"29 12 OFFCURVE",
"-8 12 CURVE SMOOTH",
"-14 12 OFFCURVE",
"-13 0 OFFCURVE",
"-8 0 CURVE SMOOTH"
);
},
{
closed = 1;
nodes = (
"422 295 LINE",
"414 323 LINE",
"208 323 LINE",
"198 295 LINE"
);
}
);
width = 654;
}
);
leftKerningGroup = A;
rightKerningGroup = A;
unicode = 0041;
},
{
color = 3;
glyphname = Aogonek;
layers = (
{
anchors = (
{
name = bottom;
position = "{330, 0}";
},
{
name = ogonek;
position = "{485, 12}";
},
{
name = top;
position = "{356, 625}";
}
);
layerId = "899E7F5F-806C-4D81-B34A-222CEA57032B";
paths = (
{
closed = 1;
nodes = (
"545 -275 OFFCURVE",
"570 -265 OFFCURVE",
"599 -242 CURVE SMOOTH",
"601 -239 OFFCURVE",
"595 -232 OFFCURVE",
"591 -234 CURVE SMOOTH",
"580 -241 OFFCURVE",
"567 -248 OFFCURVE",
"538 -248 CURVE SMOOTH",
"458 -248 OFFCURVE",
"419 -194 OFFCURVE",
"419 -132 CURVE SMOOTH",
"419 -54 OFFCURVE",
"481 1 OFFCURVE",
"581 1 CURVE SMOOTH",
"599 1 OFFCURVE",
"612 0 OFFCURVE",
"649 0 CURVE SMOOTH",
"654 0 OFFCURVE",
"651 12 OFFCURVE",
"647 12 CURVE SMOOTH",
"585 12 OFFCURVE",
"567 26 OFFCURVE",
"543 96 CURVE SMOOTH",
"350 634 LINE SMOOTH",
"347 640 OFFCURVE",
"331 640 OFFCURVE",
"329 635 CURVE SMOOTH",
"118 120 LINE SMOOTH",
"80 33 OFFCURVE",
"29 12 OFFCURVE",
"-8 12 CURVE SMOOTH",
"-14 12 OFFCURVE",
"-13 0 OFFCURVE",
"-8 0 CURVE SMOOTH",
"29 0 OFFCURVE",
"53 4 OFFCURVE",
"96 4 CURVE SMOOTH",
"133 4 OFFCURVE",
"173 0 OFFCURVE",
"201 0 CURVE SMOOTH",
"208 0 OFFCURVE",
"208 12 OFFCURVE",
"202 12 CURVE SMOOTH",
"137 12 OFFCURVE",
"108 26 OFFCURVE",
"153 133 CURVE SMOOTH",
"333 587 LINE",
"318 570 LINE",
"488 84 LINE SMOOTH",
"518 1 OFFCURVE",
"380 -40 OFFCURVE",
"382 -165 CURVE SMOOTH",
"384 -234 OFFCURVE",
"427 -275 OFFCURVE",
"508 -275 CURVE SMOOTH"
);
},
{
closed = 1;
nodes = (
"440 339 LINE",
"433 358 LINE",
"240 358 LINE",
"227 339 LINE"
);
}
);
width = 648;
},
{
anchors = (
{
name = bottom;
position = "{330, 0}";
},
{
name = ogonek;
position = "{485, 12}";
},
{
name = top;
position = "{356, 625}";
}
);
layerId = "05D38584-429E-4AAF-9BEA-6CB44526FD1C";
paths = (
{
closed = 1;
nodes = (
"542 -275 OFFCURVE",
"572 -258 OFFCURVE",
"607 -219 CURVE SMOOTH",
"611 -215 OFFCURVE",
"602 -208 OFFCURVE",
"600 -211 CURVE SMOOTH",
"588 -221 OFFCURVE",
"581 -229 OFFCURVE",
"554 -229 CURVE SMOOTH",
"495 -229 OFFCURVE",
"457 -191 OFFCURVE",
"457 -131 CURVE SMOOTH",
"457 -58 OFFCURVE",
"495 1 OFFCURVE",
"556 1 CURVE SMOOTH",
"575 1 OFFCURVE",
"622 0 OFFCURVE",
"660 0 CURVE SMOOTH",
"664 0 OFFCURVE",
"664 12 OFFCURVE",
"660 12 CURVE SMOOTH",
"616 12 OFFCURVE",
"599 26 OFFCURVE",
"574 84 CURVE SMOOTH",
"350 633 LINE SMOOTH",
"346 637 OFFCURVE",
"331 639 OFFCURVE",
"330 634 CURVE SMOOTH",
"119 136 LINE SMOOTH",
"82 53 OFFCURVE",
"29 12 OFFCURVE",
"-8 12 CURVE SMOOTH",
"-14 12 OFFCURVE",
"-13 0 OFFCURVE",
"-8 0 CURVE SMOOTH",
"29 0 OFFCURVE",
"50 4 OFFCURVE",
"94 4 CURVE SMOOTH",
"140 4 OFFCURVE",
"193 0 OFFCURVE",
"227 0 CURVE SMOOTH",
"234 0 OFFCURVE",
"234 12 OFFCURVE",
"228 12 CURVE SMOOTH",
"138 12 OFFCURVE",
"115 46 OFFCURVE",
"150 129 CURVE SMOOTH",
"336 582 LINE",
"289 505 LINE",
"464 84 LINE SMOOTH",
"517 -36 OFFCURVE",
"372 -69 OFFCURVE",
"372 -177 CURVE SMOOTH",
"372 -247 OFFCURVE",
"442 -275 OFFCURVE",
"498 -275 CURVE SMOOTH"
);
},
{
closed = 1;
nodes = (
"422 295 LINE",
"414 323 LINE",
"208 323 LINE",
"198 295 LINE"
);
}
);
width = 654;
}
);
leftKerningGroup = A;
rightKerningGroup = A;
rightMetricsKey = A;
unicode = 0104;
},
{
color = 3;
glyphname = AE;
layers = (
{
anchors = (
{
name = ogonek;
position = "{223, 12}";
},
{
name = top;
position = "{567, 625}";
}
);
layerId = "899E7F5F-806C-4D81-B34A-222CEA57032B";
paths = (
{
closed = 1;
nodes = (
"6 0 OFFCURVE",
"27 4 OFFCURVE",
"73 4 CURVE SMOOTH",
"123 4 OFFCURVE",
"149 0 OFFCURVE",
"188 0 CURVE SMOOTH",
"194 0 OFFCURVE",
"195 12 OFFCURVE",
"188 12 CURVE SMOOTH",
"98 12 OFFCURVE",
"95 49 OFFCURVE",
"146 123 CURVE SMOOTH",
"454 602 LINE",
"426 613 LINE",
"453 81 LINE SMOOTH",
"454 23 OFFCURVE",
"436 12 OFFCURVE",
"363 12 CURVE SMOOTH",
"356 12 OFFCURVE",
"356 0 OFFCURVE",
"363 0 CURVE SMOOTH",
"775 0 LINE SMOOTH",
"787 0 OFFCURVE",
"791 4 OFFCURVE",
"791 15 CURVE SMOOTH",
"791 56 OFFCURVE",
"795 110 OFFCURVE",
"799 145 CURVE SMOOTH",
"801 149 OFFCURVE",
"787 151 OFFCURVE",
"787 147 CURVE SMOOTH",
"775 71 OFFCURVE",
"736 18 OFFCURVE",
"683 18 CURVE SMOOTH",
"589 18 LINE SMOOTH",
"517 18 OFFCURVE",
"505 29 OFFCURVE",
"505 85 CURVE SMOOTH",
"480 543 LINE SMOOTH",
"480 600 OFFCURVE",
"492 611 OFFCURVE",
"589 611 CURVE SMOOTH",
"637 611 LINE SMOOTH",
"705 611 OFFCURVE",
"743 563 OFFCURVE",
"744 494 CURVE SMOOTH",
"743 490 OFFCURVE",
"756 490 OFFCURVE",
"757 494 CURVE SMOOTH",
"756 522 OFFCURVE",
"754 580 OFFCURVE",
"753 616 CURVE SMOOTH",
"753 622 OFFCURVE",
"752 625 OFFCURVE",
"744 625 CURVE SMOOTH",
"337 625 LINE SMOOTH",
"330 625 OFFCURVE",
"330 613 OFFCURVE",
"337 613 CURVE SMOOTH",
"419 613 OFFCURVE",
"427 609 OFFCURVE",
"404 574 CURVE SMOOTH",
"120 132 LINE SMOOTH",
"54 37 OFFCURVE",
"22 12 OFFCURVE",
"-33 12 CURVE SMOOTH",
"-40 12 OFFCURVE",
"-39 0 OFFCURVE",
"-33 0 CURVE SMOOTH"
);
},
{
closed = 1;
nodes = (
"487 316 LINE",
"481 335 LINE",
"277 335 LINE",
"261 316 LINE"
);
},
{
closed = 1;
nodes = (
"718 268 OFFCURVE",
"716 295 OFFCURVE",
"716 325 CURVE SMOOTH",
"716 347 OFFCURVE",
"716 367 OFFCURVE",
"716 406 CURVE SMOOTH",
"716 411 OFFCURVE",
"704 411 OFFCURVE",
"704 406 CURVE SMOOTH",
"703 356 OFFCURVE",
"685 335 OFFCURVE",
"625 335 CURVE SMOOTH",
"481 335 LINE",
"481 316 LINE SMOOTH",
"620 316 LINE SMOOTH",
"684 316 OFFCURVE",
"706 295 OFFCURVE",
"706 235 CURVE SMOOTH",
"706 232 OFFCURVE",
"718 232 OFFCURVE",
"718 235 CURVE SMOOTH"
);
}
);
width = 833;
},
{
anchors = (
{
name = ogonek;
position = "{223, 12}";
},
{
name = top;
position = "{529, 625}";
}
);
layerId = "05D38584-429E-4AAF-9BEA-6CB44526FD1C";
paths = (
{
closed = 1;
nodes = (
"6 0 OFFCURVE",
"27 4 OFFCURVE",
"73 4 CURVE SMOOTH",
"123 4 OFFCURVE",
"200 0 OFFCURVE",
"240 0 CURVE SMOOTH",
"246 0 OFFCURVE",
"247 12 OFFCURVE",
"240 12 CURVE SMOOTH",
"160 12 OFFCURVE",
"123 62 OFFCURVE",
"158 123 CURVE SMOOTH",
"428 602 LINE",
"396 613 LINE",
"423 81 LINE SMOOTH",
"428 23 OFFCURVE",
"416 12 OFFCURVE",
"363 12 CURVE SMOOTH",
"356 12 OFFCURVE",
"356 0 OFFCURVE",
"363 0 CURVE SMOOTH",
"775 0 LINE",
"787 0 OFFCURVE",
"791 4 OFFCURVE",
"791 15 CURVE SMOOTH",
"791 60 OFFCURVE",
"793 118 OFFCURVE",
"800 157 CURVE SMOOTH",
"801 160 OFFCURVE",
"789 163 OFFCURVE",
"787 159 CURVE SMOOTH",
"756 73 OFFCURVE",
"689 18 OFFCURVE",
"613 18 CURVE SMOOTH",
"599 18 LINE SMOOTH",
"545 18 OFFCURVE",
"537 29 OFFCURVE",
"533 85 CURVE SMOOTH",
"508 543 LINE SMOOTH",
"505 589 OFFCURVE",
"520 611 OFFCURVE",
"558 611 CURVE SMOOTH",
"577 611 LINE SMOOTH",
"658 611 OFFCURVE",
"723 561 OFFCURVE",
"744 483 CURVE SMOOTH",
"745 480 OFFCURVE",
"757 477 OFFCURVE",
"757 482 CURVE SMOOTH",
"757 512 OFFCURVE",
"756 577 OFFCURVE",
"754 616 CURVE SMOOTH",
"754 622 OFFCURVE",
"753 625 OFFCURVE",
"747 625 CURVE SMOOTH",
"301 625 LINE SMOOTH",
"294 625 OFFCURVE",
"294 613 OFFCURVE",
"301 613 CURVE SMOOTH",
"382 613 OFFCURVE",
"393 614 OFFCURVE",
"371 577 CURVE SMOOTH",
"126 135 LINE SMOOTH",
"71 34 OFFCURVE",
"22 12 OFFCURVE",
"-33 12 CURVE SMOOTH",
"-40 12 OFFCURVE",
"-39 0 OFFCURVE",
"-33 0 CURVE SMOOTH"
);
},
{
closed = 1;
nodes = (
"487 311 LINE",
"480 339 LINE",
"276 339 LINE",
"261 311 LINE"
);
},
{
closed = 1;
nodes = (
"730 261 OFFCURVE",
"729 291 OFFCURVE",
"729 325 CURVE SMOOTH",
"729 352 OFFCURVE",
"729 371 OFFCURVE",
"730 414 CURVE SMOOTH",
"730 420 OFFCURVE",
"716 421 OFFCURVE",
"716 415 CURVE SMOOTH",
"713 360 OFFCURVE",
"683 339 OFFCURVE",
"616 339 CURVE SMOOTH",
"441 339 LINE",
"442 311 LINE SMOOTH",
"614 311 LINE SMOOTH",
"677 311 OFFCURVE",
"716 281 OFFCURVE",
"717 223 CURVE SMOOTH",
"717 218 OFFCURVE",
"731 216 OFFCURVE",
"731 222 CURVE SMOOTH"
);
}
);
width = 837;
}
);
leftKerningGroup = A;
rightMetricsKey = "=E";
unicode = 00C6;
},
{
color = 3;
glyphname = B;
layers = (
{
layerId = "899E7F5F-806C-4D81-B34A-222CEA57032B";
paths = (
{
closed = 1;
nodes = (
"371 365 OFFCURVE",
"429 419 OFFCURVE",
"429 495 CURVE SMOOTH",
"429 566 OFFCURVE",
"387 628 OFFCURVE",
"274 628 CURVE SMOOTH",
"243 628 OFFCURVE",
"191 622 OFFCURVE",
"157 622 CURVE SMOOTH",
"113 622 OFFCURVE",
"76 625 OFFCURVE",
"44 625 CURVE SMOOTH",
"41 625 OFFCURVE",
"41 613 OFFCURVE",
"44 613 CURVE SMOOTH",
"120 613 OFFCURVE",
"131 601 OFFCURVE",
"131 544 CURVE SMOOTH",
"131 81 LINE SMOOTH",
"131 23 OFFCURVE",
"119 12 OFFCURVE",
"43 12 CURVE SMOOTH",
"40 12 OFFCURVE",
"40 0 OFFCURVE",
"43 0 CURVE SMOOTH",
"75 0 OFFCURVE",
"113 2 OFFCURVE",
"157 2 CURVE SMOOTH",
"202 2 OFFCURVE",
"261 -4 OFFCURVE",
"304 -4 CURVE SMOOTH",
"411 -4 OFFCURVE",
"491 76 OFFCURVE",
"491 185 CURVE SMOOTH",
"491 281 OFFCURVE",
"418 353 OFFCURVE",
"305 353 CURVE",
"295 344 LINE"
);
},
{
closed = 1;
nodes = (
"343 615 OFFCURVE",
"375 556 OFFCURVE",
"375 488 CURVE SMOOTH",
"375 411 OFFCURVE",
"337 351 OFFCURVE",
"230 351 CURVE SMOOTH",
"227 351 OFFCURVE",
"196 351 OFFCURVE",
"153 354 CURVE",
"184 346 LINE",
"184 542 LINE SMOOTH",
"184 613 OFFCURVE",
"201 615 OFFCURVE",
"250 615 CURVE SMOOTH"
);
},
{
closed = 1;
nodes = (
"201 12 OFFCURVE",
"184 30 OFFCURVE",
"184 81 CURVE SMOOTH",
"184 338 LINE",
"157 327 LINE",
"193 332 OFFCURVE",
"228 333 OFFCURVE",
"265 332 CURVE SMOOTH",
"370 330 OFFCURVE",
"433 260 OFFCURVE",
"433 160 CURVE SMOOTH",
"433 68 OFFCURVE",
"388 12 OFFCURVE",
"290 12 CURVE SMOOTH"
);
},
{
closed = 0;
nodes = (
"153 354 LINE"
);
}
);
width = 547;
},
{
layerId = "05D38584-429E-4AAF-9BEA-6CB44526FD1C";
paths = (
{
closed = 1;
nodes = (
"434 359 OFFCURVE",
"495 425 OFFCURVE",
"495 499 CURVE SMOOTH",
"495 584 OFFCURVE",
"421 628 OFFCURVE",
"298 628 CURVE SMOOTH",
"255 628 OFFCURVE",
"213 622 OFFCURVE",
"175 622 CURVE SMOOTH",
"127 622 OFFCURVE",
"87 625 OFFCURVE",
"51 625 CURVE SMOOTH",
"48 625 OFFCURVE",
"48 613 OFFCURVE",
"51 613 CURVE SMOOTH",
"108 613 OFFCURVE",
"120 601 OFFCURVE",
"120 544 CURVE SMOOTH",
"120 81 LINE SMOOTH",
"120 23 OFFCURVE",
"106 12 OFFCURVE",
"50 12 CURVE SMOOTH",
"47 12 OFFCURVE",
"47 0 OFFCURVE",
"50 0 CURVE SMOOTH",
"85 0 OFFCURVE",
"127 2 OFFCURVE",
"175 2 CURVE SMOOTH",
"220 2 OFFCURVE",
"283 -4 OFFCURVE",
"319 -4 CURVE SMOOTH",
"455 -4 OFFCURVE",
"556 76 OFFCURVE",
"556 181 CURVE SMOOTH",
"556 282 OFFCURVE",
"464 353 OFFCURVE",
"324 353 CURVE",
"313 335 LINE"
);
},
{
closed = 1;
nodes = (
"349 608 OFFCURVE",
"386 567 OFFCURVE",
"386 490 CURVE SMOOTH",
"386 413 OFFCURVE",
"347 351 OFFCURVE",
"273 351 CURVE SMOOTH",
"269 351 OFFCURVE",
"239 351 OFFCURVE",
"195 353 CURVE",
"232 346 LINE",
"232 542 LINE SMOOTH",
"232 593 OFFCURVE",
"244 608 OFFCURVE",
"283 608 CURVE SMOOTH"
);
},
{
closed = 1;
nodes = (
"240 18 OFFCURVE",
"232 39 OFFCURVE",
"232 81 CURVE SMOOTH",
"232 330 LINE",
"199 318 LINE",
"235 324 OFFCURVE",
"270 324 OFFCURVE",
"284 324 CURVE SMOOTH",
"393 324 OFFCURVE",
"439 255 OFFCURVE",
"439 157 CURVE SMOOTH",
"439 68 OFFCURVE",
"399 18 OFFCURVE",
"302 18 CURVE SMOOTH"
);
},
{
closed = 0;
nodes = (
"195 353 LINE"
);
}
);
width = 604;
}
);
unicode = 0042;
},
{
color = 3;
glyphname = C;
layers = (
{
anchors = (
{
name = bottom;
position = "{367, 0}";
},
{
name = top;
position = "{370, 625}";
}
);
layerId = "899E7F5F-806C-4D81-B34A-222CEA57032B";
leftMetricsKey = "=O";
paths = (
{
closed = 1;
nodes = (
"439 -12 OFFCURVE",
"504 -1 OFFCURVE",
"570 27 CURVE SMOOTH",
"581 32 OFFCURVE",
"582 34 OFFCURVE",
"585 50 CURVE SMOOTH",
"596 159 LINE SMOOTH",
"596 163 OFFCURVE",
"586 165 OFFCURVE",
"585 160 CURVE SMOOTH",
"546 50 OFFCURVE",
"470 0 OFFCURVE",
"385 0 CURVE SMOOTH",
"228 0 OFFCURVE",
"106 154 OFFCURVE",
"106 346 CURVE SMOOTH",
"106 508 OFFCURVE",
"200 615 OFFCURVE",
"349 615 CURVE SMOOTH",
"460 615 OFFCURVE",
"546 575 OFFCURVE",
"575 468 CURVE SMOOTH",
"577 463 OFFCURVE",
"586 465 OFFCURVE",
"586 470 CURVE SMOOTH",
"574 575 LINE SMOOTH",
"573 589 OFFCURVE",
"573 592 OFFCURVE",
"561 599 CURVE SMOOTH",
"520 623 OFFCURVE",
"448 636 OFFCURVE",
"384 636 CURVE SMOOTH",
"208 636 OFFCURVE",
"44 508 OFFCURVE",
"44 319 CURVE SMOOTH",
"44 165 OFFCURVE",
"136 -12 OFFCURVE",
"381 -12 CURVE SMOOTH"
);
}
);
width = 632;
},
{
anchors = (
{
name = bottom;
position = "{371, 0}";
},
{
name = top;
position = "{374, 625}";
}
);
layerId = "05D38584-429E-4AAF-9BEA-6CB44526FD1C";
leftMetricsKey = "=O";
paths = (
{
closed = 1;
nodes = (
"440 -12 OFFCURVE",
"506 -4 OFFCURVE",
"571 19 CURVE SMOOTH",
"584 23 OFFCURVE",
"584 26 OFFCURVE",
"586 42 CURVE SMOOTH",
"592 157 LINE SMOOTH",
"592 164 OFFCURVE",
"584 165 OFFCURVE",
"581 160 CURVE SMOOTH",
"520 56 OFFCURVE",
"457 8 OFFCURVE",
"389 8 CURVE SMOOTH",
"256 8 OFFCURVE",
"153 164 OFFCURVE",
"153 346 CURVE SMOOTH",
"153 511 OFFCURVE",
"221 609 OFFCURVE",
"349 609 CURVE SMOOTH",
"448 609 OFFCURVE",
"526 549 OFFCURVE",
"574 450 CURVE SMOOTH",
"577 446 OFFCURVE",
"585 446 OFFCURVE",
"585 450 CURVE SMOOTH",
"578 584 LINE SMOOTH",
"578 598 OFFCURVE",
"575 601 OFFCURVE",
"565 607 CURVE SMOOTH",
"525 623 OFFCURVE",
"450 636 OFFCURVE",
"388 636 CURVE SMOOTH",
"204 636 OFFCURVE",
"36 519 OFFCURVE",
"36 313 CURVE SMOOTH",
"36 164 OFFCURVE",
"125 -12 OFFCURVE",
"387 -12 CURVE SMOOTH"
);
}
);
width = 635;
}
);
leftKerningGroup = O;
leftMetricsKey = "=O";
rightKerningGroup = C;
unicode = 0043;
},
{
color = 3;
glyphname = D;
layers = (
{
anchors = (
{
name = bottom;
position = "{317, 0}";
},
{
name = center;
position = "{330, 312}";
},
{
name = top;
position = "{268, 625}";
}
);
layerId = "899E7F5F-806C-4D81-B34A-222CEA57032B";
rightMetricsKey = "=O";
paths = (
{
closed = 1;
nodes = (
"461 -4 OFFCURVE",
"611 123 OFFCURVE",
"611 323 CURVE SMOOTH",
"611 495 OFFCURVE",
"475 627 OFFCURVE",
"275 627 CURVE SMOOTH",
"242 627 OFFCURVE",
"191 622 OFFCURVE",
"151 622 CURVE SMOOTH",
"109 622 OFFCURVE",
"70 625 OFFCURVE",
"41 625 CURVE SMOOTH",
"36 625 OFFCURVE",
"37 613 OFFCURVE",
"41 613 CURVE SMOOTH",
"111 613 OFFCURVE",
"124 601 OFFCURVE",
"125 544 CURVE SMOOTH",
"125 81 LINE SMOOTH",
"125 23 OFFCURVE",
"111 12 OFFCURVE",
"41 12 CURVE SMOOTH",
"36 12 OFFCURVE",
"37 0 OFFCURVE",
"41 0 CURVE SMOOTH",
"70 0 OFFCURVE",
"109 2 OFFCURVE",
"152 2 CURVE SMOOTH",
"195 2 OFFCURVE",
"253 -4 OFFCURVE",
"288 -4 CURVE SMOOTH"
);
},
{
closed = 1;
nodes = (
"195 9 OFFCURVE",
"177 35 OFFCURVE",
"177 92 CURVE SMOOTH",
"177 542 LINE SMOOTH",
"177 605 OFFCURVE",
"207 614 OFFCURVE",
"284 614 CURVE SMOOTH",
"446 614 OFFCURVE",
"547 476 OFFCURVE",
"547 301 CURVE SMOOTH",
"547 112 OFFCURVE",
"434 9 OFFCURVE",
"278 9 CURVE SMOOTH"
);
}
);
width = 655;
},
{
anchors = (
{
name = bottom;
position = "{344, 0}";
},
{
name = center;
position = "{344, 312}";
},
{
name = top;
position = "{284, 625}";
}
);
layerId = "05D38584-429E-4AAF-9BEA-6CB44526FD1C";
rightMetricsKey = "=O";
paths = (
{
closed = 1;
nodes = (
"488 -4 OFFCURVE",
"651 125 OFFCURVE",
"651 323 CURVE SMOOTH",
"651 502 OFFCURVE",
"506 627 OFFCURVE",
"294 627 CURVE SMOOTH",
"254 627 OFFCURVE",
"208 622 OFFCURVE",
"166 622 CURVE SMOOTH",
"119 622 OFFCURVE",
"76 625 OFFCURVE",
"43 625 CURVE SMOOTH",
"40 625 OFFCURVE",
"40 613 OFFCURVE",
"43 613 CURVE SMOOTH",
"98 613 OFFCURVE",
"109 601 OFFCURVE",
"112 544 CURVE SMOOTH",
"112 81 LINE SMOOTH",
"113 23 OFFCURVE",
"102 12 OFFCURVE",
"43 12 CURVE SMOOTH",
"40 12 OFFCURVE",
"40 0 OFFCURVE",
"43 0 CURVE SMOOTH",
"77 0 OFFCURVE",
"119 2 OFFCURVE",
"168 2 CURVE SMOOTH",
"213 2 OFFCURVE",
"274 -4 OFFCURVE",
"310 -4 CURVE SMOOTH"
);
},
{
closed = 1;
nodes = (
"237 16 OFFCURVE",
"222 40 OFFCURVE",
"221 92 CURVE SMOOTH",
"221 542 LINE SMOOTH",
"221 587 OFFCURVE",
"233 607 OFFCURVE",
"289 607 CURVE SMOOTH",
"467 607 OFFCURVE",
"532 443 OFFCURVE",
"532 301 CURVE SMOOTH",
"532 119 OFFCURVE",
"440 16 OFFCURVE",
"301 16 CURVE SMOOTH"
);
}
);
width = 688;
}
);
leftMetricsKey = H;
rightKerningGroup = O;
rightMetricsKey = O;
unicode = 0044;
},
{
glyphname = Eth;
layers = (
{
components = (
{
name = D;
}
);
layerId = "899E7F5F-806C-4D81-B34A-222CEA57032B";
paths = (
{
closed = 1;
nodes = (
"292 302 LINE SMOOTH",
"298 302 OFFCURVE",
"298 320 OFFCURVE",
"292 320 CURVE SMOOTH",
"30 320 LINE SMOOTH",
"25 320 OFFCURVE",
"25 302 OFFCURVE",
"30 302 CURVE SMOOTH"
);
}
);
width = 655;
},
{
components = (
{
name = D;
}
);
layerId = "05D38584-429E-4AAF-9BEA-6CB44526FD1C";
paths = (
{
closed = 1;
nodes = (
"308 297 LINE SMOOTH",
"313 297 OFFCURVE",
"313 325 OFFCURVE",
"308 325 CURVE SMOOTH",
"46 325 LINE SMOOTH",
"40 325 OFFCURVE",
"40 297 OFFCURVE",
"46 297 CURVE SMOOTH"
);
}
);
width = 688;
}
);
rightKerningGroup = O;
unicode = 00D0;
},
{
color = 3;
glyphname = E;
layers = (
{
anchors = (
{
name = bottom;
position = "{294, 0}";
},
{
name = ogonek;
position = "{473, 12}";
},
{
name = top;
position = "{275, 625}";
}
);
layerId = "899E7F5F-806C-4D81-B34A-222CEA57032B";
paths = (
{
closed = 1;
nodes = (
"492 0 LINE SMOOTH",
"504 0 OFFCURVE",
"508 4 OFFCURVE",
"508 15 CURVE SMOOTH",
"508 56 OFFCURVE",
"510 110 OFFCURVE",
"516 145 CURVE SMOOTH",
"517 150 OFFCURVE",
"504 152 OFFCURVE",
"503 147 CURVE SMOOTH",
"492 71 OFFCURVE",
"455 18 OFFCURVE",
"406 18 CURVE SMOOTH",
"262 18 LINE SMOOTH",
"192 18 OFFCURVE",
"181 29 OFFCURVE",
"181 85 CURVE SMOOTH",
"181 543 LINE SMOOTH",
"182 600 OFFCURVE",
"192 611 OFFCURVE",
"262 611 CURVE SMOOTH",
"371 611 LINE SMOOTH",
"427 611 OFFCURVE",
"461 563 OFFCURVE",
"462 494 CURVE SMOOTH",
"462 489 OFFCURVE",
"475 488 OFFCURVE",
"475 494 CURVE SMOOTH",
"474 522 OFFCURVE",
"473 580 OFFCURVE",
"471 616 CURVE SMOOTH",
"471 622 OFFCURVE",
"470 625 OFFCURVE",
"464 625 CURVE SMOOTH",
"44 625 LINE SMOOTH",
"41 625 OFFCURVE",
"41 613 OFFCURVE",
"44 613 CURVE SMOOTH",
"116 613 OFFCURVE",
"127 601 OFFCURVE",
"130 544 CURVE SMOOTH",
"130 81 LINE SMOOTH",
"130 23 OFFCURVE",
"117 12 OFFCURVE",
"46 12 CURVE SMOOTH",
"42 12 OFFCURVE",
"42 0 OFFCURVE",
"46 0 CURVE SMOOTH"
);
},
{
closed = 1;
nodes = (
"432 268 OFFCURVE",
"429 295 OFFCURVE",
"429 325 CURVE SMOOTH",
"429 349 OFFCURVE",
"430 366 OFFCURVE",
"429 404 CURVE SMOOTH",
"430 409 OFFCURVE",
"418 409 OFFCURVE",
"418 404 CURVE SMOOTH",
"419 353 OFFCURVE",
"401 335 OFFCURVE",
"344 335 CURVE SMOOTH",
"159 335 LINE",
"158 316 LINE SMOOTH",
"339 316 LINE SMOOTH",
"400 316 OFFCURVE",
"420 294 OFFCURVE",
"420 234 CURVE SMOOTH",
"420 228 OFFCURVE",
"432 228 OFFCURVE",
"432 234 CURVE SMOOTH"
);
}
);
width = 550;
},
{
anchors = (
{
name = bottom;
position = "{310, 0}";
},
{
name = ogonek;
position = "{491, 12}";
},
{
name = top;
position = "{295, 625}";
}
);
layerId = "05D38584-429E-4AAF-9BEA-6CB44526FD1C";
paths = (
{
closed = 1;
nodes = (
"510 0 LINE SMOOTH",
"522 0 OFFCURVE",
"525 4 OFFCURVE",
"525 15 CURVE SMOOTH",
"525 60 OFFCURVE",
"529 118 OFFCURVE",
"535 157 CURVE SMOOTH",
"536 160 OFFCURVE",
"524 163 OFFCURVE",
"522 159 CURVE SMOOTH",
"484 75 OFFCURVE",
"407 21 OFFCURVE",
"320 21 CURVE SMOOTH",
"292 21 LINE SMOOTH",
"239 21 OFFCURVE",
"227 32 OFFCURVE",
"227 85 CURVE SMOOTH",
"227 543 LINE SMOOTH",
"229 594 OFFCURVE",
"233 604 OFFCURVE",
"294 604 CURVE SMOOTH",
"313 604 LINE SMOOTH",
"394 604 OFFCURVE",
"458 557 OFFCURVE",
"480 483 CURVE SMOOTH",
"481 480 OFFCURVE",
"492 480 OFFCURVE",
"492 484 CURVE SMOOTH",
"492 515 OFFCURVE",
"491 577 OFFCURVE",
"490 616 CURVE SMOOTH",
"490 622 OFFCURVE",
"488 625 OFFCURVE",
"482 625 CURVE SMOOTH",
"51 625 LINE SMOOTH",
"48 625 OFFCURVE",
"48 613 OFFCURVE",
"53 613 CURVE SMOOTH",
"108 613 OFFCURVE",
"119 601 OFFCURVE",
"119 544 CURVE SMOOTH",
"119 81 LINE SMOOTH",
"119 23 OFFCURVE",
"112 12 OFFCURVE",
"53 12 CURVE SMOOTH",
"49 12 OFFCURVE",
"49 0 OFFCURVE",
"54 0 CURVE SMOOTH"
);
},
{
closed = 1;
nodes = (
"465 261 OFFCURVE",
"463 291 OFFCURVE",
"463 325 CURVE SMOOTH",
"463 352 OFFCURVE",
"465 371 OFFCURVE",
"465 414 CURVE SMOOTH",
"465 421 OFFCURVE",
"451 421 OFFCURVE",
"451 415 CURVE SMOOTH",
"451 360 OFFCURVE",
"418 339 OFFCURVE",
"352 339 CURVE SMOOTH",
"175 339 LINE",
"177 311 LINE SMOOTH",
"350 311 LINE SMOOTH",
"413 311 OFFCURVE",
"451 281 OFFCURVE",
"451 223 CURVE SMOOTH",
"451 218 OFFCURVE",
"465 216 OFFCURVE",
"465 223 CURVE SMOOTH"
);
}
);
width = 572;
}
);
leftMetricsKey = B;
unicode = 0045;
},
{
color = 3;
glyphname = F;
layers = (
{
layerId = "899E7F5F-806C-4D81-B34A-222CEA57032B";
paths = (
{
closed = 1;
nodes = (
"71 0 OFFCURVE",
"110 2 OFFCURVE",
"150 2 CURVE SMOOTH",
"209 2 OFFCURVE",
"261 0 OFFCURVE",
"301 0 CURVE SMOOTH",
"304 0 OFFCURVE",
"304 12 OFFCURVE",
"301 12 CURVE SMOOTH",
"188 12 OFFCURVE",
"181 26 OFFCURVE",
"178 85 CURVE SMOOTH",
"178 543 LINE SMOOTH",
"179 600 OFFCURVE",
"189 611 OFFCURVE",
"260 611 CURVE SMOOTH",
"368 611 LINE SMOOTH",
"423 611 OFFCURVE",
"458 563 OFFCURVE",
"460 494 CURVE SMOOTH",
"460 489 OFFCURVE",
"473 488 OFFCURVE",
"473 494 CURVE SMOOTH",
"471 522 OFFCURVE",
"470 580 OFFCURVE",
"469 616 CURVE SMOOTH",
"469 622 OFFCURVE",
"468 625 OFFCURVE",
"461 625 CURVE SMOOTH",
"42 625 LINE SMOOTH",
"37 625 OFFCURVE",
"39 613 OFFCURVE",
"42 613 CURVE SMOOTH",
"112 613 OFFCURVE",
"125 601 OFFCURVE",
"126 544 CURVE SMOOTH",
"126 81 LINE SMOOTH",
"126 23 OFFCURVE",
"113 12 OFFCURVE",
"43 12 CURVE SMOOTH",
"40 12 OFFCURVE",
"40 0 OFFCURVE",
"43 0 CURVE SMOOTH"
);
},
{
closed = 1;
nodes = (
"419 256 OFFCURVE",
"416 283 OFFCURVE",
"416 313 CURVE SMOOTH",
"416 337 OFFCURVE",
"418 354 OFFCURVE",
"416 392 CURVE SMOOTH",
"418 398 OFFCURVE",
"405 398 OFFCURVE",
"405 392 CURVE SMOOTH",
"406 342 OFFCURVE",
"388 323 OFFCURVE",
"331 323 CURVE SMOOTH",
"146 323 LINE",
"145 304 LINE SMOOTH",
"326 304 LINE SMOOTH",
"387 304 OFFCURVE",
"407 282 OFFCURVE",
"407 222 CURVE SMOOTH",
"407 216 OFFCURVE",
"419 216 OFFCURVE",
"419 222 CURVE SMOOTH"
);
}
);
width = 519;
},
{
layerId = "05D38584-429E-4AAF-9BEA-6CB44526FD1C";
paths = (
{
closed = 1;
nodes = (
"81 0 OFFCURVE",
"123 2 OFFCURVE",
"168 2 CURVE SMOOTH",
"253 2 OFFCURVE",
"304 0 OFFCURVE",
"331 0 CURVE SMOOTH",
"336 0 OFFCURVE",
"336 12 OFFCURVE",
"331 12 CURVE SMOOTH",
"244 12 OFFCURVE",
"223 25 OFFCURVE",
"223 85 CURVE SMOOTH",
"223 543 LINE SMOOTH",
"225 594 OFFCURVE",
"228 604 OFFCURVE",
"290 604 CURVE SMOOTH",
"310 604 LINE SMOOTH",
"391 604 OFFCURVE",
"455 557 OFFCURVE",
"475 483 CURVE SMOOTH",
"477 480 OFFCURVE",
"488 480 OFFCURVE",
"488 484 CURVE SMOOTH",
"488 515 OFFCURVE",
"487 577 OFFCURVE",
"485 616 CURVE SMOOTH",
"485 622 OFFCURVE",
"484 625 OFFCURVE",
"478 625 CURVE SMOOTH",
"48 625 LINE SMOOTH",
"44 625 OFFCURVE",
"44 613 OFFCURVE",
"48 613 CURVE SMOOTH",
"104 613 OFFCURVE",
"115 601 OFFCURVE",
"115 544 CURVE SMOOTH",
"115 81 LINE SMOOTH",
"115 23 OFFCURVE",
"108 12 OFFCURVE",
"48 12 CURVE SMOOTH",
"44 12 OFFCURVE",
"44 0 OFFCURVE",
"48 0 CURVE SMOOTH"
);
},
{
closed = 1;
nodes = (
"437 249 OFFCURVE",
"435 278 OFFCURVE",
"435 312 CURVE SMOOTH",
"435 339 OFFCURVE",
"436 361 OFFCURVE",
"436 404 CURVE SMOOTH",
"436 409 OFFCURVE",
"423 409 OFFCURVE",
"423 404 CURVE SMOOTH",
"422 349 OFFCURVE",
"391 327 OFFCURVE",
"325 327 CURVE SMOOTH",
"174 327 LINE",
"175 299 LINE",
"323 299 LINE SMOOTH",
"385 299 OFFCURVE",
"425 269 OFFCURVE",
"425 212 CURVE SMOOTH",
"425 206 OFFCURVE",
"437 205 OFFCURVE",
"437 211 CURVE SMOOTH"
);
}
);
width = 523;
}
);
rightKerningGroup = F;
unicode = 0046;
},
{
color = 3;
glyphname = G;
layers = (
{
anchors = (
{
name = bottom;
position = "{409, 0}";
},
{
name = top;
position = "{398, 625}";
}
);
layerId = "899E7F5F-806C-4D81-B34A-222CEA57032B";
leftMetricsKey = "=O";
paths = (
{
closed = 1;
nodes = (
"460 -12 OFFCURVE",
"529 0 OFFCURVE",
"592 16 CURVE SMOOTH",
"600 19 OFFCURVE",
"602 21 OFFCURVE",
"602 28 CURVE SMOOTH",
"602 39 OFFCURVE",
"595 49 OFFCURVE",
"595 116 CURVE SMOOTH",
"595 222 OFFCURVE",
"600 234 OFFCURVE",
"646 233 CURVE SMOOTH",
"653 233 OFFCURVE",
"651 247 OFFCURVE",
"646 247 CURVE SMOOTH",
"575 243 OFFCURVE",
"516 243 OFFCURVE",
"440 249 CURVE SMOOTH",
"434 249 OFFCURVE",
"434 233 OFFCURVE",
"441 233 CURVE SMOOTH",
"543 233 OFFCURVE",
"549 222 OFFCURVE",
"549 126 CURVE SMOOTH",
"549 23 OFFCURVE",
"513 5 OFFCURVE",
"420 5 CURVE SMOOTH",
"240 5 OFFCURVE",
"110 142 OFFCURVE",
"110 344 CURVE SMOOTH",
"110 508 OFFCURVE",
"209 615 OFFCURVE",
"384 615 CURVE SMOOTH",
"489 615 OFFCURVE",
"563 565 OFFCURVE",
"585 469 CURVE SMOOTH",
"586 464 OFFCURVE",
"598 464 OFFCURVE",
"598 470 CURVE SMOOTH",
"587 575 LINE SMOOTH",
"586 586 OFFCURVE",
"585 589 OFFCURVE",
"574 598 CURVE SMOOTH",
"537 623 OFFCURVE",
"482 636 OFFCURVE",
"422 636 CURVE SMOOTH",
"209 636 OFFCURVE",
"49 501 OFFCURVE",
"49 308 CURVE SMOOTH",
"49 127 OFFCURVE",
"178 -12 OFFCURVE",
"396 -12 CURVE SMOOTH"
);
}
);
width = 682;
},
{
anchors = (
{
name = bottom;
position = "{407, 0}";
},
{
name = top;
position = "{382, 625}";
}
);
layerId = "05D38584-429E-4AAF-9BEA-6CB44526FD1C";
leftMetricsKey = "=O";
paths = (
{
closed = 1;
nodes = (
"465 -12 OFFCURVE",
"546 0 OFFCURVE",
"619 16 CURVE SMOOTH",
"626 19 OFFCURVE",
"628 20 OFFCURVE",
"628 28 CURVE SMOOTH",
"628 44 OFFCURVE",
"622 49 OFFCURVE",
"622 116 CURVE SMOOTH",
"622 219 OFFCURVE",
"616 234 OFFCURVE",
"646 233 CURVE SMOOTH",
"651 233 OFFCURVE",
"650 247 OFFCURVE",
"644 247 CURVE SMOOTH",
"561 243 OFFCURVE",
"488 243 OFFCURVE",
"398 249 CURVE SMOOTH",
"392 249 OFFCURVE",
"391 233 OFFCURVE",
"399 233 CURVE SMOOTH",
"498 233 OFFCURVE",
"518 222 OFFCURVE",
"518 126 CURVE SMOOTH",
"518 35 OFFCURVE",
"499 9 OFFCURVE",
"429 9 CURVE SMOOTH",
"271 9 OFFCURVE",
"153 146 OFFCURVE",
"153 356 CURVE SMOOTH",
"153 511 OFFCURVE",
"227 611 OFFCURVE",
"358 611 CURVE SMOOTH",
"461 611 OFFCURVE",
"537 549 OFFCURVE",
"582 450 CURVE SMOOTH",
"585 446 OFFCURVE",
"594 448 OFFCURVE",
"594 453 CURVE SMOOTH",
"586 584 LINE SMOOTH",
"585 598 OFFCURVE",
"584 601 OFFCURVE",
"573 607 CURVE SMOOTH",
"536 623 OFFCURVE",
"464 636 OFFCURVE",
"400 636 CURVE SMOOTH",
"195 636 OFFCURVE",
"36 505 OFFCURVE",
"36 319 CURVE SMOOTH",
"36 132 OFFCURVE",
"168 -12 OFFCURVE",
"396 -12 CURVE SMOOTH"
);
}
);
width = 684;
}
);
leftKerningGroup = O;
leftMetricsKey = O;
unicode = 0047;
},
{
color = 3;
glyphname = H;
layers = (
{
anchors = (
{
name = bottom;
position = "{377, 0}";
},
{
name = center;
position = "{329, 312}";
},
{
name = top;
position = "{364, 625}";
}
);
layerId = "899E7F5F-806C-4D81-B34A-222CEA57032B";
paths = (
{
closed = 1;
nodes = (
"69 0 OFFCURVE",
"108 2 OFFCURVE",
"147 2 CURVE SMOOTH",
"192 2 OFFCURVE",
"230 0 OFFCURVE",
"260 0 CURVE SMOOTH",
"263 0 OFFCURVE",
"263 12 OFFCURVE",
"260 12 CURVE SMOOTH",
"187 12 OFFCURVE",
"177 23 OFFCURVE",
"177 81 CURVE SMOOTH",
"177 542 LINE SMOOTH",
"178 599 OFFCURVE",
"189 613 OFFCURVE",
"261 613 CURVE SMOOTH",
"264 613 OFFCURVE",
"264 625 OFFCURVE",
"261 625 CURVE SMOOTH",
"232 625 OFFCURVE",
"191 622 OFFCURVE",
"150 622 CURVE SMOOTH",
"109 622 OFFCURVE",
"71 625 OFFCURVE",
"43 625 CURVE SMOOTH",
"39 625 OFFCURVE",
"40 613 OFFCURVE",
"43 613 CURVE SMOOTH",
"113 613 OFFCURVE",
"124 601 OFFCURVE",
"125 544 CURVE SMOOTH",
"125 81 LINE SMOOTH",
"125 23 OFFCURVE",
"111 12 OFFCURVE",
"41 12 CURVE SMOOTH",
"36 12 OFFCURVE",
"37 0 OFFCURVE",
"41 0 CURVE SMOOTH"
);
},
{
closed = 1;
nodes = (
"570 316 LINE",
"570 335 LINE",
"149 335 LINE",
"147 316 LINE"
);
},
{
closed = 1;
nodes = (
"494 0 OFFCURVE",
"533 2 OFFCURVE",
"574 2 CURVE SMOOTH",
"616 2 OFFCURVE",
"655 0 OFFCURVE",
"683 0 CURVE SMOOTH",
"687 0 OFFCURVE",
"687 12 OFFCURVE",
"683 12 CURVE SMOOTH",
"612 12 OFFCURVE",
"600 23 OFFCURVE",
"599 81 CURVE SMOOTH",
"599 544 LINE SMOOTH",
"599 601 OFFCURVE",
"613 613 OFFCURVE",
"683 613 CURVE SMOOTH",
"687 613 OFFCURVE",
"687 625 OFFCURVE",
"682 625 CURVE SMOOTH",
"654 625 OFFCURVE",
"613 622 OFFCURVE",
"573 622 CURVE SMOOTH",
"532 622 OFFCURVE",
"494 625 OFFCURVE",
"464 625 CURVE SMOOTH",
"461 625 OFFCURVE",
"461 613 OFFCURVE",
"465 613 CURVE SMOOTH",
"537 613 OFFCURVE",
"547 599 OFFCURVE",
"546 542 CURVE SMOOTH",
"547 81 LINE SMOOTH",
"547 23 OFFCURVE",
"536 12 OFFCURVE",
"464 12 CURVE SMOOTH",
"460 12 OFFCURVE",
"460 0 OFFCURVE",
"464 0 CURVE SMOOTH"
);
}
);
width = 725;
},
{
anchors = (
{
name = bottom;
position = "{378, 0}";
},
{
name = center;
position = "{331, 312}";
},
{
name = top;
position = "{366, 625}";
}
);
layerId = "05D38584-429E-4AAF-9BEA-6CB44526FD1C";
paths = (
{
closed = 1;
nodes = (
"78 0 OFFCURVE",
"120 2 OFFCURVE",
"165 2 CURVE SMOOTH",
"214 2 OFFCURVE",
"256 0 OFFCURVE",
"290 0 CURVE SMOOTH",
"294 0 OFFCURVE",
"294 12 OFFCURVE",
"290 12 CURVE SMOOTH",
"233 12 OFFCURVE",
"221 23 OFFCURVE",
"221 81 CURVE SMOOTH",
"221 542 LINE SMOOTH",
"222 598 OFFCURVE",
"229 613 OFFCURVE",
"289 613 CURVE SMOOTH",
"292 613 OFFCURVE",
"292 625 OFFCURVE",
"289 625 CURVE SMOOTH",
"256 625 OFFCURVE",
"212 622 OFFCURVE",
"165 622 CURVE SMOOTH",
"119 622 OFFCURVE",
"77 625 OFFCURVE",
"46 625 CURVE SMOOTH",
"42 625 OFFCURVE",
"42 613 OFFCURVE",
"46 613 CURVE SMOOTH",
"101 613 OFFCURVE",
"113 600 OFFCURVE",
"112 544 CURVE SMOOTH",
"112 81 LINE SMOOTH",
"112 23 OFFCURVE",
"104 12 OFFCURVE",
"46 12 CURVE SMOOTH",
"42 12 OFFCURVE",
"42 0 OFFCURVE",
"46 0 CURVE SMOOTH"
);
},
{
closed = 1;
nodes = (
"573 311 LINE",
"571 339 LINE",
"150 339 LINE",
"151 311 LINE"
);
},
{
closed = 1;
nodes = (
"477 0 OFFCURVE",
"520 2 OFFCURVE",
"567 2 CURVE SMOOTH",
"613 2 OFFCURVE",
"660 0 OFFCURVE",
"688 0 CURVE SMOOTH",
"691 0 OFFCURVE",
"691 12 OFFCURVE",
"688 12 CURVE SMOOTH",
"632 12 OFFCURVE",
"616 23 OFFCURVE",
"616 81 CURVE SMOOTH",
"616 544 LINE SMOOTH",
"619 600 OFFCURVE",
"627 613 OFFCURVE",
"685 613 CURVE SMOOTH",
"689 613 OFFCURVE",
"689 625 OFFCURVE",
"685 625 CURVE SMOOTH",
"653 625 OFFCURVE",
"608 622 OFFCURVE",
"563 622 CURVE SMOOTH",
"516 622 OFFCURVE",
"474 625 OFFCURVE",
"442 625 CURVE SMOOTH",
"437 625 OFFCURVE",
"439 613 OFFCURVE",
"442 613 CURVE SMOOTH",
"497 613 OFFCURVE",
"508 598 OFFCURVE",
"508 542 CURVE SMOOTH",
"509 81 LINE SMOOTH",
"509 23 OFFCURVE",
"503 12 OFFCURVE",
"443 12 CURVE SMOOTH",
"439 12 OFFCURVE",
"440 0 OFFCURVE",
"443 0 CURVE SMOOTH"
);
}
);
width = 731;
}
);
unicode = 0048;
},
{
color = 3;
glyphname = Hbar;
layers = (
{
anchors = (
{
name = bottom;
position = "{364, 0}";
},
{
name = center;
position = "{388, 312}";
},
{
name = top;
position = "{327, 625}";
}
);
layerId = "899E7F5F-806C-4D81-B34A-222CEA57032B";
paths = (
{
closed = 1;
nodes = (
"69 0 OFFCURVE",
"108 2 OFFCURVE",
"147 2 CURVE SMOOTH",
"192 2 OFFCURVE",
"230 0 OFFCURVE",
"260 0 CURVE SMOOTH",
"263 0 OFFCURVE",
"263 12 OFFCURVE",
"260 12 CURVE SMOOTH",
"187 12 OFFCURVE",
"177 23 OFFCURVE",
"177 81 CURVE SMOOTH",
"177 542 LINE SMOOTH",
"178 599 OFFCURVE",
"189 613 OFFCURVE",
"261 613 CURVE SMOOTH",
"264 613 OFFCURVE",
"264 625 OFFCURVE",
"261 625 CURVE SMOOTH",
"232 625 OFFCURVE",
"191 622 OFFCURVE",
"150 622 CURVE SMOOTH",
"109 622 OFFCURVE",
"71 625 OFFCURVE",
"43 625 CURVE SMOOTH",
"39 625 OFFCURVE",
"40 613 OFFCURVE",
"43 613 CURVE SMOOTH",
"113 613 OFFCURVE",
"124 601 OFFCURVE",
"125 544 CURVE SMOOTH",
"125 81 LINE SMOOTH",
"125 23 OFFCURVE",
"111 12 OFFCURVE",
"41 12 CURVE SMOOTH",
"36 12 OFFCURVE",
"37 0 OFFCURVE",
"41 0 CURVE SMOOTH"
);
},
{
closed = 1;
nodes = (
"575 222 LINE",
"574 241 LINE",
"153 241 LINE",
"153 222 LINE"
);
},
{
closed = 1;
nodes = (
"564 409 LINE",
"564 428 LINE",
"144 428 LINE",
"143 409 LINE"
);
},
{
closed = 1;
nodes = (
"494 0 OFFCURVE",
"533 2 OFFCURVE",
"574 2 CURVE SMOOTH",
"616 2 OFFCURVE",
"655 0 OFFCURVE",
"683 0 CURVE SMOOTH",
"687 0 OFFCURVE",
"687 12 OFFCURVE",
"683 12 CURVE SMOOTH",
"612 12 OFFCURVE",
"600 23 OFFCURVE",
"599 81 CURVE SMOOTH",
"599 544 LINE SMOOTH",
"599 601 OFFCURVE",
"613 613 OFFCURVE",
"683 613 CURVE SMOOTH",
"687 613 OFFCURVE",
"687 625 OFFCURVE",
"682 625 CURVE SMOOTH",
"654 625 OFFCURVE",
"613 622 OFFCURVE",
"573 622 CURVE SMOOTH",
"532 622 OFFCURVE",
"494 625 OFFCURVE",
"464 625 CURVE SMOOTH",
"461 625 OFFCURVE",
"461 613 OFFCURVE",
"465 613 CURVE SMOOTH",
"537 613 OFFCURVE",
"547 599 OFFCURVE",
"546 542 CURVE SMOOTH",
"547 81 LINE SMOOTH",
"547 23 OFFCURVE",
"536 12 OFFCURVE",
"464 12 CURVE SMOOTH",
"460 12 OFFCURVE",
"460 0 OFFCURVE",
"464 0 CURVE SMOOTH"
);
}
);
width = 725;
},
{
anchors = (
{
name = bottom;
position = "{364, 0}";
},
{
name = center;
position = "{388, 312}";
},
{
name = top;
position = "{327, 625}";
}
);
layerId = "05D38584-429E-4AAF-9BEA-6CB44526FD1C";
paths = (
{
closed = 1;
nodes = (
"78 0 OFFCURVE",
"120 2 OFFCURVE",
"165 2 CURVE SMOOTH",
"214 2 OFFCURVE",
"256 0 OFFCURVE",
"290 0 CURVE SMOOTH",
"294 0 OFFCURVE",
"294 12 OFFCURVE",
"290 12 CURVE SMOOTH",
"233 12 OFFCURVE",
"221 23 OFFCURVE",
"221 81 CURVE SMOOTH",
"221 542 LINE SMOOTH",
"222 598 OFFCURVE",
"229 613 OFFCURVE",
"289 613 CURVE SMOOTH",
"292 613 OFFCURVE",
"292 625 OFFCURVE",
"289 625 CURVE SMOOTH",
"256 625 OFFCURVE",
"212 622 OFFCURVE",
"165 622 CURVE SMOOTH",
"119 622 OFFCURVE",
"77 625 OFFCURVE",
"46 625 CURVE SMOOTH",
"42 625 OFFCURVE",
"42 613 OFFCURVE",
"46 613 CURVE SMOOTH",
"101 613 OFFCURVE",
"113 600 OFFCURVE",
"112 544 CURVE SMOOTH",
"112 81 LINE SMOOTH",
"112 23 OFFCURVE",
"104 12 OFFCURVE",
"46 12 CURVE SMOOTH",
"42 12 OFFCURVE",
"42 0 OFFCURVE",
"46 0 CURVE SMOOTH"
);
},
{
closed = 1;
nodes = (
"591 218 LINE",
"588 246 LINE",
"168 246 LINE",
"170 218 LINE"
);
},
{
closed = 1;
nodes = (
"556 405 LINE",
"552 433 LINE",
"132 433 LINE",
"133 405 LINE"
);
},
{
closed = 1;
nodes = (
"477 0 OFFCURVE",
"520 2 OFFCURVE",
"567 2 CURVE SMOOTH",
"613 2 OFFCURVE",
"660 0 OFFCURVE",
"688 0 CURVE SMOOTH",
"691 0 OFFCURVE",
"691 12 OFFCURVE",
"688 12 CURVE SMOOTH",
"632 12 OFFCURVE",
"616 23 OFFCURVE",
"616 81 CURVE SMOOTH",
"616 544 LINE SMOOTH",
"619 600 OFFCURVE",
"627 613 OFFCURVE",
"685 613 CURVE SMOOTH",
"689 613 OFFCURVE",
"689 625 OFFCURVE",
"685 625 CURVE SMOOTH",
"653 625 OFFCURVE",
"608 622 OFFCURVE",
"563 622 CURVE SMOOTH",
"516 622 OFFCURVE",
"474 625 OFFCURVE",
"442 625 CURVE SMOOTH",
"437 625 OFFCURVE",
"439 613 OFFCURVE",
"442 613 CURVE SMOOTH",
"497 613 OFFCURVE",
"508 598 OFFCURVE",
"508 542 CURVE SMOOTH",
"509 81 LINE SMOOTH",
"509 23 OFFCURVE",
"503 12 OFFCURVE",
"443 12 CURVE SMOOTH",
"439 12 OFFCURVE",
"440 0 OFFCURVE",
"443 0 CURVE SMOOTH"
);
}
);
width = 731;
}
);
unicode = 0126;
},
{
color = 3;
glyphname = I;
layers = (
{
anchors = (
{
name = bottom;
position = "{160, 0}";
},
{
name = ogonek;
position = "{166, 12}";
},
{
name = top;
position = "{157, 625}";
}
);
layerId = "899E7F5F-806C-4D81-B34A-222CEA57032B";
paths = (
{
closed = 1;
nodes = (
"80 0 OFFCURVE",
"120 2 OFFCURVE",
"161 2 CURVE SMOOTH",
"207 2 OFFCURVE",
"240 0 OFFCURVE",
"270 0 CURVE SMOOTH",
"274 0 OFFCURVE",
"274 12 OFFCURVE",
"269 12 CURVE SMOOTH",
"198 12 OFFCURVE",
"187 23 OFFCURVE",
"186 81 CURVE SMOOTH",
"186 542 LINE SMOOTH",
"187 599 OFFCURVE",
"199 613 OFFCURVE",
"269 613 CURVE SMOOTH",
"274 613 OFFCURVE",
"274 625 OFFCURVE",
"269 625 CURVE SMOOTH",
"241 625 OFFCURVE",
"204 622 OFFCURVE",
"158 622 CURVE SMOOTH",
"116 622 OFFCURVE",
"78 625 OFFCURVE",
"49 625 CURVE SMOOTH",
"46 625 OFFCURVE",
"46 613 OFFCURVE",
"49 613 CURVE SMOOTH",
"120 613 OFFCURVE",
"133 601 OFFCURVE",
"133 544 CURVE SMOOTH",
"133 81 LINE SMOOTH",
"135 23 OFFCURVE",
"120 12 OFFCURVE",
"49 12 CURVE SMOOTH",
"46 12 OFFCURVE",
"46 0 OFFCURVE",
"50 0 CURVE SMOOTH"
);
}
);
width = 319;
},
{
anchors = (
{
name = bottom;
position = "{179, 0}";
},
{
name = ogonek;
position = "{188, 12}";
},
{
name = top;
position = "{175, 625}";
}
);
layerId = "05D38584-429E-4AAF-9BEA-6CB44526FD1C";
paths = (
{
closed = 1;
nodes = (
"90 0 OFFCURVE",
"132 2 OFFCURVE",
"179 2 CURVE SMOOTH",
"228 2 OFFCURVE",
"269 0 OFFCURVE",
"302 0 CURVE SMOOTH",
"305 0 OFFCURVE",
"305 12 OFFCURVE",
"302 12 CURVE SMOOTH",
"246 12 OFFCURVE",
"234 23 OFFCURVE",
"234 81 CURVE SMOOTH",
"234 542 LINE SMOOTH",
"235 599 OFFCURVE",
"242 613 OFFCURVE",
"302 613 CURVE SMOOTH",
"305 613 OFFCURVE",
"305 625 OFFCURVE",
"302 625 CURVE SMOOTH",
"269 625 OFFCURVE",
"228 622 OFFCURVE",
"177 622 CURVE SMOOTH",
"130 622 OFFCURVE",
"89 625 OFFCURVE",
"56 625 CURVE SMOOTH",
"51 625 OFFCURVE",
"53 613 OFFCURVE",
"56 613 CURVE SMOOTH",
"111 613 OFFCURVE",
"124 601 OFFCURVE",
"124 544 CURVE SMOOTH",
"124 81 LINE SMOOTH",
"124 23 OFFCURVE",
"115 12 OFFCURVE",
"56 12 CURVE SMOOTH",
"53 12 OFFCURVE",
"53 0 OFFCURVE",
"56 0 CURVE SMOOTH"
);
}
);
width = 358;
}
);
leftMetricsKey = "H+5";
rightMetricsKey = "H+5";
unicode = 0049;
},
{
color = 3;
glyphname = IJ;
layers = (
{
anchors = (
{
name = ogonek;
position = "{158, 12}";
},
{
name = top;
position = "{490, 625}";
}
);
layerId = "899E7F5F-806C-4D81-B34A-222CEA57032B";
paths = (
{
closed = 1;
nodes = (
"468 -13 OFFCURVE",
"564 82 OFFCURVE",
"564 258 CURVE SMOOTH",
"563 542 LINE SMOOTH",
"564 599 OFFCURVE",
"574 613 OFFCURVE",
"641 613 CURVE SMOOTH",
"647 613 OFFCURVE",
"647 625 OFFCURVE",
"641 625 CURVE SMOOTH",
"614 625 OFFCURVE",
"577 622 OFFCURVE",
"536 622 CURVE SMOOTH",
"489 622 OFFCURVE",
"447 625 OFFCURVE",
"409 625 CURVE SMOOTH",
"405 625 OFFCURVE",
"405 613 OFFCURVE",
"409 613 CURVE SMOOTH",
"496 613 OFFCURVE",
"508 601 OFFCURVE",
"508 544 CURVE SMOOTH",
"508 200 LINE SMOOTH",
"508 80 OFFCURVE",
"456 1 OFFCURVE",
"326 1 CURVE SMOOTH",
"138 1 OFFCURVE",
"221 167 OFFCURVE",
"144 167 CURVE SMOOTH",
"127 167 OFFCURVE",
"118 156 OFFCURVE",
"118 136 CURVE SMOOTH",
"117 71 OFFCURVE",
"205 -13 OFFCURVE",
"332 -13 CURVE SMOOTH"
);
},
{
closed = 1;
nodes = (
"69 269 OFFCURVE",
"109 271 OFFCURVE",
"151 271 CURVE SMOOTH",
"198 271 OFFCURVE",
"237 269 OFFCURVE",
"269 269 CURVE SMOOTH",
"274 269 OFFCURVE",
"274 281 OFFCURVE",
"268 281 CURVE SMOOTH",
"191 281 OFFCURVE",
"181 292 OFFCURVE",
"181 350 CURVE SMOOTH",
"181 542 LINE SMOOTH",
"182 599 OFFCURVE",
"194 613 OFFCURVE",
"269 613 CURVE SMOOTH",
"276 613 OFFCURVE",
"276 625 OFFCURVE",
"269 625 CURVE SMOOTH",
"240 625 OFFCURVE",
"200 622 OFFCURVE",
"153 622 CURVE SMOOTH",
"111 622 OFFCURVE",
"70 625 OFFCURVE",
"37 625 CURVE SMOOTH",
"32 625 OFFCURVE",
"32 613 OFFCURVE",
"37 613 CURVE SMOOTH",
"112 613 OFFCURVE",
"124 601 OFFCURVE",
"124 544 CURVE SMOOTH",
"124 350 LINE SMOOTH",
"124 292 OFFCURVE",
"112 281 OFFCURVE",
"37 281 CURVE SMOOTH",
"32 281 OFFCURVE",
"32 269 OFFCURVE",
"39 269 CURVE SMOOTH"
);
}
);
width = 669;
},
{
anchors = (
{
name = ogonek;
position = "{158, 12}";
},
{
name = top;
position = "{490, 625}";
}
);
layerId = "05D38584-429E-4AAF-9BEA-6CB44526FD1C";
paths = (
{
closed = 1;
nodes = (
"482 -14 OFFCURVE",
"594 81 OFFCURVE",
"593 258 CURVE SMOOTH",
"591 542 LINE SMOOTH",
"591 599 OFFCURVE",
"599 613 OFFCURVE",
"654 613 CURVE SMOOTH",
"660 613 OFFCURVE",
"660 625 OFFCURVE",
"654 625 CURVE SMOOTH",
"623 625 OFFCURVE",
"580 622 OFFCURVE",
"533 622 CURVE SMOOTH",
"482 622 OFFCURVE",
"437 625 OFFCURVE",
"396 625 CURVE SMOOTH",
"392 625 OFFCURVE",
"392 613 OFFCURVE",
"396 613 CURVE SMOOTH",
"468 613 OFFCURVE",
"480 601 OFFCURVE",
"480 544 CURVE SMOOTH",
"480 200 LINE SMOOTH",
"480 84 OFFCURVE",
"436 7 OFFCURVE",
"329 7 CURVE SMOOTH",
"160 7 OFFCURVE",
"268 191 OFFCURVE",
"147 191 CURVE SMOOTH",
"105 191 OFFCURVE",
"89 167 OFFCURVE",
"92 136 CURVE SMOOTH",
"96 61 OFFCURVE",
"196 -14 OFFCURVE",
"330 -14 CURVE SMOOTH"
);
},
{
closed = 1;
nodes = (
"60 269 OFFCURVE",
"104 271 OFFCURVE",
"151 271 CURVE SMOOTH",
"201 271 OFFCURVE",
"247 269 OFFCURVE",
"282 269 CURVE SMOOTH",
"287 269 OFFCURVE",
"287 281 OFFCURVE",
"281 281 CURVE SMOOTH",
"221 281 OFFCURVE",
"209 292 OFFCURVE",
"209 350 CURVE SMOOTH",
"209 542 LINE SMOOTH",
"211 599 OFFCURVE",
"218 613 OFFCURVE",
"282 613 CURVE SMOOTH",
"289 613 OFFCURVE",
"289 625 OFFCURVE",
"282 625 CURVE SMOOTH",
"249 625 OFFCURVE",
"205 622 OFFCURVE",
"153 622 CURVE SMOOTH",
"106 622 OFFCURVE",
"61 625 OFFCURVE",
"25 625 CURVE SMOOTH",
"19 625 OFFCURVE",
"19 613 OFFCURVE",
"25 613 CURVE SMOOTH",
"84 613 OFFCURVE",
"96 601 OFFCURVE",
"96 544 CURVE SMOOTH",
"96 350 LINE SMOOTH",
"96 292 OFFCURVE",
"88 281 OFFCURVE",
"25 281 CURVE SMOOTH",
"19 281 OFFCURVE",
"19 269 OFFCURVE",
"26 269 CURVE SMOOTH"
);
}
);
width = 669;
}
);
leftKerningGroup = U;
rightKerningGroup = U;
unicode = 0132;
},
{
color = 3;
glyphname = J;
layers = (
{
anchors = (
{
name = bottom;
position = "{144, 0}";
},
{
name = top;
position = "{144, 625}";
}
);
layerId = "899E7F5F-806C-4D81-B34A-222CEA57032B";
paths = (
{
closed = 1;
nodes = (
"143 -147 OFFCURVE",
"174 -89 OFFCURVE",
"174 67 CURVE SMOOTH",
"174 542 LINE SMOOTH",
"175 599 OFFCURVE",
"187 613 OFFCURVE",
"258 613 CURVE SMOOTH",
"262 613 OFFCURVE",
"263 625 OFFCURVE",
"258 625 CURVE SMOOTH",
"230 625 OFFCURVE",
"192 622 OFFCURVE",
"146 622 CURVE SMOOTH",
"104 622 OFFCURVE",
"68 625 OFFCURVE",
"37 625 CURVE SMOOTH",
"34 625 OFFCURVE",
"34 613 OFFCURVE",
"37 613 CURVE SMOOTH",
"109 613 OFFCURVE",
"122 601 OFFCURVE",
"122 544 CURVE SMOOTH",
"122 40 LINE SMOOTH",
"123 -70 OFFCURVE",
"101 -145 OFFCURVE",
"41 -182 CURVE SMOOTH",
"36 -185 OFFCURVE",
"43 -195 OFFCURVE",
"47 -194 CURVE SMOOTH"
);
}
);
width = 287;
},
{
anchors = (
{
name = bottom;
position = "{126, 0}";
},
{
name = top;
position = "{163, 625}";
}
);
layerId = "05D38584-429E-4AAF-9BEA-6CB44526FD1C";
paths = (
{
closed = 1;
nodes = (
"171 -146 OFFCURVE",
"225 -90 OFFCURVE",
"225 67 CURVE SMOOTH",
"225 542 LINE SMOOTH",
"226 599 OFFCURVE",
"234 613 OFFCURVE",
"292 613 CURVE SMOOTH",
"297 613 OFFCURVE",
"296 625 OFFCURVE",
"292 625 CURVE SMOOTH",
"261 625 OFFCURVE",
"219 622 OFFCURVE",
"167 622 CURVE SMOOTH",
"122 622 OFFCURVE",
"81 625 OFFCURVE",
"47 625 CURVE SMOOTH",
"43 625 OFFCURVE",
"43 613 OFFCURVE",
"47 613 CURVE SMOOTH",
"102 613 OFFCURVE",
"115 601 OFFCURVE",
"115 544 CURVE SMOOTH",
"115 40 LINE SMOOTH",
"117 -70 OFFCURVE",
"96 -145 OFFCURVE",
"35 -182 CURVE SMOOTH",
"32 -185 OFFCURVE",
"37 -194 OFFCURVE",
"42 -193 CURVE SMOOTH"
);
}
);
width = 337;
}
);
rightKerningGroup = J;
rightMetricsKey = "=H+5";
unicode = 004A;
},
{
color = 3;
glyphname = K;
layers = (
{
anchors = (
{
name = bottom;
position = "{351, 0}";
},
{
name = top;
position = "{327, 625}";
}
);
layerId = "899E7F5F-806C-4D81-B34A-222CEA57032B";
paths = (
{
closed = 1;
nodes = (
"69 0 OFFCURVE",
"108 2 OFFCURVE",
"147 2 CURVE SMOOTH",
"192 2 OFFCURVE",
"218 0 OFFCURVE",
"247 0 CURVE SMOOTH",
"250 0 OFFCURVE",
"250 12 OFFCURVE",
"247 12 CURVE SMOOTH",
"174 12 OFFCURVE",
"177 23 OFFCURVE",
"177 81 CURVE SMOOTH",
"177 542 LINE SMOOTH",
"178 599 OFFCURVE",
"189 613 OFFCURVE",
"261 613 CURVE SMOOTH",
"264 613 OFFCURVE",
"264 625 OFFCURVE",
"261 625 CURVE SMOOTH",
"232 625 OFFCURVE",
"191 622 OFFCURVE",
"150 622 CURVE SMOOTH",
"109 622 OFFCURVE",
"71 625 OFFCURVE",
"43 625 CURVE SMOOTH",
"39 625 OFFCURVE",
"40 613 OFFCURVE",
"43 613 CURVE SMOOTH",
"113 613 OFFCURVE",
"124 601 OFFCURVE",
"125 544 CURVE SMOOTH",
"125 81 LINE SMOOTH",
"125 23 OFFCURVE",
"111 12 OFFCURVE",
"41 12 CURVE SMOOTH",
"36 12 OFFCURVE",
"37 0 OFFCURVE",
"41 0 CURVE SMOOTH"
);
},
{
closed = 1;
nodes = (
"549 0 OFFCURVE",
"574 0 OFFCURVE",
"623 0 CURVE SMOOTH",
"627 0 OFFCURVE",
"627 12 OFFCURVE",
"623 12 CURVE SMOOTH",
"567 12 OFFCURVE",
"545 15 OFFCURVE",
"393 199 CURVE SMOOTH",
"243 380 LINE",
"204 349 LINE",
"371 145 LINE SMOOTH",
"497 -7 OFFCURVE",
"471 0 OFFCURVE",
"535 0 CURVE SMOOTH"
);
},
{
closed = 1;
nodes = (
"163 295 LINE",
"428 544 LINE SMOOTH",
"481 599 OFFCURVE",
"539 613 OFFCURVE",
"584 613 CURVE SMOOTH",
"587 613 OFFCURVE",
"587 625 OFFCURVE",
"584 625 CURVE SMOOTH",
"558 625 OFFCURVE",
"535 622 OFFCURVE",
"488 622 CURVE SMOOTH",
"437 622 OFFCURVE",
"413 625 OFFCURVE",
"384 625 CURVE SMOOTH",
"380 625 OFFCURVE",
"380 613 OFFCURVE",
"384 613 CURVE SMOOTH",
"449 613 OFFCURVE",
"454 601 OFFCURVE",
"406 550 CURVE SMOOTH",
"139 294 LINE"
);
}
);
width = 634;
},
{
anchors = (
{
name = bottom;
position = "{366, 0}";
},
{
name = top;
position = "{343, 625}";
}
);
layerId = "05D38584-429E-4AAF-9BEA-6CB44526FD1C";
paths = (
{
closed = 1;
nodes = (
"76 0 OFFCURVE",
"118 2 OFFCURVE",
"163 2 CURVE SMOOTH",
"219 2 OFFCURVE",
"250 0 OFFCURVE",
"288 0 CURVE SMOOTH",
"291 0 OFFCURVE",
"291 12 OFFCURVE",
"288 12 CURVE SMOOTH",
"220 12 OFFCURVE",
"221 23 OFFCURVE",
"221 81 CURVE SMOOTH",
"221 542 LINE SMOOTH",
"222 599 OFFCURVE",
"229 613 OFFCURVE",
"289 613 CURVE SMOOTH",
"292 613 OFFCURVE",
"292 625 OFFCURVE",
"289 625 CURVE SMOOTH",
"256 625 OFFCURVE",
"212 622 OFFCURVE",
"165 622 CURVE SMOOTH",
"119 622 OFFCURVE",
"77 625 OFFCURVE",
"46 625 CURVE SMOOTH",
"42 625 OFFCURVE",
"42 613 OFFCURVE",
"46 613 CURVE SMOOTH",
"101 613 OFFCURVE",
"112 601 OFFCURVE",
"112 544 CURVE SMOOTH",
"112 81 LINE SMOOTH",
"112 23 OFFCURVE",
"102 12 OFFCURVE",
"43 12 CURVE SMOOTH",
"40 12 OFFCURVE",
"40 0 OFFCURVE",
"43 0 CURVE SMOOTH"
);
},
{
closed = 1;
nodes = (
"593 0 OFFCURVE",
"622 0 OFFCURVE",
"677 0 CURVE SMOOTH",
"682 0 OFFCURVE",
"681 12 OFFCURVE",
"677 12 CURVE SMOOTH",
"625 12 OFFCURVE",
"608 32 OFFCURVE",
"470 216 CURVE SMOOTH",
"326 411 LINE",
"255 342 LINE",
"389 160 LINE SMOOTH",
"509 -2 OFFCURVE",
"461 0 OFFCURVE",
"575 0 CURVE SMOOTH"
);
},
{
closed = 1;
nodes = (
"185 260 LINE",
"442 518 LINE SMOOTH",
"503 578 OFFCURVE",
"580 613 OFFCURVE",
"637 613 CURVE SMOOTH",
"641 613 OFFCURVE",
"641 625 OFFCURVE",
"637 625 CURVE SMOOTH",
"608 625 OFFCURVE",
"582 622 OFFCURVE",
"529 622 CURVE SMOOTH",
"480 622 OFFCURVE",
"416 625 OFFCURVE",
"386 625 CURVE SMOOTH",
"382 625 OFFCURVE",
"382 613 OFFCURVE",
"387 613 CURVE SMOOTH",
"443 613 OFFCURVE",
"456 567 OFFCURVE",
"413 524 CURVE SMOOTH",
"158 262 LINE"
);
}
);
width = 675;
}
);
leftMetricsKey = H;
rightKerningGroup = K;
unicode = 004B;
},
{
color = 3;
glyphname = L;
layers = (
{
anchors = (
{
name = bottom;
position = "{303, 0}";
},
{
name = top;
position = "{149, 625}";
},
{
name = topright;
position = "{475, 625}";
}
);
layerId = "899E7F5F-806C-4D81-B34A-222CEA57032B";
paths = (
{
closed = 1;
nodes = (
"499 0 LINE SMOOTH",
"511 0 OFFCURVE",
"516 4 OFFCURVE",
"516 15 CURVE SMOOTH",
"516 56 OFFCURVE",
"519 111 OFFCURVE",
"523 146 CURVE SMOOTH",
"523 150 OFFCURVE",
"510 151 OFFCURVE",
"510 147 CURVE SMOOTH",
"499 71 OFFCURVE",
"469 18 OFFCURVE",
"389 18 CURVE SMOOTH",
"258 18 LINE SMOOTH",
"188 18 OFFCURVE",
"178 29 OFFCURVE",
"177 85 CURVE SMOOTH",
"177 543 LINE SMOOTH",
"178 600 OFFCURVE",
"189 613 OFFCURVE",
"261 613 CURVE SMOOTH",
"264 613 OFFCURVE",
"264 625 OFFCURVE",
"261 625 CURVE SMOOTH",
"232 625 OFFCURVE",
"191 622 OFFCURVE",
"150 622 CURVE SMOOTH",
"109 622 OFFCURVE",
"71 625 OFFCURVE",
"43 625 CURVE SMOOTH",
"39 625 OFFCURVE",
"40 613 OFFCURVE",
"43 613 CURVE SMOOTH",
"113 613 OFFCURVE",
"124 601 OFFCURVE",
"125 544 CURVE SMOOTH",
"125 81 LINE SMOOTH",
"125 23 OFFCURVE",
"112 12 OFFCURVE",
"42 12 CURVE SMOOTH",
"37 12 OFFCURVE",
"39 0 OFFCURVE",
"42 0 CURVE SMOOTH"
);
}
);
width = 531;
},
{
anchors = (
{
name = bottom;
position = "{318, 0}";
},
{
name = top;
position = "{164, 625}";
},
{
name = topright;
position = "{491, 625}";
}
);
layerId = "05D38584-429E-4AAF-9BEA-6CB44526FD1C";
paths = (
{
closed = 1;
nodes = (
"516 0 LINE SMOOTH",
"526 0 OFFCURVE",
"531 4 OFFCURVE",
"531 15 CURVE SMOOTH",
"531 63 OFFCURVE",
"535 127 OFFCURVE",
"539 168 CURVE SMOOTH",
"539 172 OFFCURVE",
"527 175 OFFCURVE",
"525 171 CURVE SMOOTH",
"481 68 OFFCURVE",
"409 21 OFFCURVE",
"302 21 CURVE SMOOTH",
"274 21 LINE SMOOTH",
"233 21 OFFCURVE",
"221 32 OFFCURVE",
"221 85 CURVE SMOOTH",
"221 543 LINE SMOOTH",
"222 600 OFFCURVE",
"229 613 OFFCURVE",
"289 613 CURVE SMOOTH",
"292 613 OFFCURVE",
"292 625 OFFCURVE",
"289 625 CURVE SMOOTH",
"256 625 OFFCURVE",
"212 622 OFFCURVE",
"165 622 CURVE SMOOTH",
"119 622 OFFCURVE",
"77 625 OFFCURVE",
"46 625 CURVE SMOOTH",
"42 625 OFFCURVE",
"42 613 OFFCURVE",
"46 613 CURVE SMOOTH",
"101 613 OFFCURVE",
"112 601 OFFCURVE",
"112 544 CURVE SMOOTH",
"112 81 LINE SMOOTH",
"112 23 OFFCURVE",
"104 12 OFFCURVE",
"44 12 CURVE SMOOTH",
"41 12 OFFCURVE",
"41 0 OFFCURVE",
"44 0 CURVE SMOOTH"
);
}
);
width = 544;
}
);
leftMetricsKey = H;
rightKerningGroup = L;
unicode = 004C;
},
{
glyphname = Lslash;
layers = (
{
components = (
{
name = L;
transform = "{1, 0, 0, 1, 29, 0}";
}
);
layerId = "899E7F5F-806C-4D81-B34A-222CEA57032B";
paths = (
{
closed = 1;
nodes = (
"291 366 LINE SMOOTH",
"296 368 OFFCURVE",
"283 385 OFFCURVE",
"278 382 CURVE SMOOTH",
"82 256 LINE SMOOTH",
"78 254 OFFCURVE",
"90 237 OFFCURVE",
"95 240 CURVE SMOOTH"
);
}
);
width = 565;
},
{
components = (
{
name = L;
}
);
layerId = "05D38584-429E-4AAF-9BEA-6CB44526FD1C";
paths = (
{
closed = 1;
nodes = (
"290 378 LINE SMOOTH",
"295 381 OFFCURVE",
"282 398 OFFCURVE",
"277 394 CURVE SMOOTH",
"46 233 LINE SMOOTH",
"42 230 OFFCURVE",
"54 213 OFFCURVE",
"58 216 CURVE SMOOTH"
);
}
);
width = 544;
}
);
rightKerningGroup = L;
rightMetricsKey = L;
unicode = 0141;
},
{
color = 3;
glyphname = M;
layers = (
{
anchors = (
{
name = bottom;
position = "{395, 0}";
},
{
name = top;
position = "{394, 625}";
}
);
layerId = "899E7F5F-806C-4D81-B34A-222CEA57032B";
paths = (
{
closed = 1;
nodes = (
"572 0 OFFCURVE",
"609 2 OFFCURVE",
"651 2 CURVE SMOOTH",
"695 2 OFFCURVE",
"733 0 OFFCURVE",
"761 0 CURVE SMOOTH",
"765 0 OFFCURVE",
"765 12 OFFCURVE",
"761 12 CURVE SMOOTH",
"690 12 OFFCURVE",
"680 23 OFFCURVE",
"677 81 CURVE SMOOTH",
"663 546 LINE SMOOTH",
"660 602 OFFCURVE",
"692 613 OFFCURVE",
"753 613 CURVE SMOOTH",
"757 613 OFFCURVE",
"757 625 OFFCURVE",
"753 625 CURVE SMOOTH",
"731 625 OFFCURVE",
"711 623 OFFCURVE",
"678 623 CURVE SMOOTH",
"663 623 OFFCURVE",
"646 625 OFFCURVE",
"640 625 CURVE SMOOTH",
"627 625 OFFCURVE",
"614 615 OFFCURVE",
"609 600 CURVE SMOOTH",
"382 35 LINE",
"407 74 LINE",
"194 573 LINE SMOOTH",
"174 616 OFFCURVE",
"166 625 OFFCURVE",
"150 625 CURVE SMOOTH",
"143 625 OFFCURVE",
"126 623 OFFCURVE",
"109 623 CURVE SMOOTH",
"95 623 OFFCURVE",
"69 625 OFFCURVE",
"50 625 CURVE SMOOTH",
"47 625 OFFCURVE",
"47 613 OFFCURVE",
"51 613 CURVE SMOOTH",
"80 613 OFFCURVE",
"123 605 OFFCURVE",
"149 542 CURVE SMOOTH",
"377 8 LINE SMOOTH",
"379 2 OFFCURVE",
"391 2 OFFCURVE",
"392 7 CURVE SMOOTH",
"635 613 LINE",
"611 589 LINE",
"626 81 LINE SMOOTH",
"628 23 OFFCURVE",
"614 12 OFFCURVE",
"543 12 CURVE SMOOTH",
"538 12 OFFCURVE",
"539 0 OFFCURVE",
"543 0 CURVE SMOOTH"
);
},
{
closed = 1;
nodes = (
"74 0 OFFCURVE",
"103 2 OFFCURVE",
"132 2 CURVE SMOOTH",
"166 2 OFFCURVE",
"189 0 OFFCURVE",
"213 0 CURVE SMOOTH",
"218 0 OFFCURVE",
"216 12 OFFCURVE",
"213 12 CURVE SMOOTH",
"160 12 OFFCURVE",
"145 36 OFFCURVE",
"144 104 CURVE SMOOTH",
"146 600 LINE",
"126 602 LINE",
"123 104 LINE SMOOTH",
"123 36 OFFCURVE",
"102 12 OFFCURVE",
"49 12 CURVE SMOOTH",
"46 12 OFFCURVE",
"46 0 OFFCURVE",
"50 0 CURVE SMOOTH"
);
}
);
width = 791;
},
{
anchors = (
{
name = bottom;
position = "{402, 0}";
},
{
name = top;
position = "{414, 625}";
}
);
layerId = "05D38584-429E-4AAF-9BEA-6CB44526FD1C";
paths = (
{
closed = 1;
nodes = (
"570 0 OFFCURVE",
"611 2 OFFCURVE",
"658 2 CURVE SMOOTH",
"706 2 OFFCURVE",
"749 0 OFFCURVE",
"780 0 CURVE SMOOTH",
"785 0 OFFCURVE",
"784 12 OFFCURVE",
"780 12 CURVE SMOOTH",
"725 12 OFFCURVE",
"715 23 OFFCURVE",
"712 81 CURVE SMOOTH",
"698 546 LINE SMOOTH",
"691 602 OFFCURVE",
"716 613 OFFCURVE",
"760 613 CURVE SMOOTH",
"763 613 OFFCURVE",
"763 625 OFFCURVE",
"759 625 CURVE SMOOTH",
"738 625 OFFCURVE",
"717 623 OFFCURVE",
"685 623 CURVE SMOOTH",
"661 623 OFFCURVE",
"627 625 OFFCURVE",
"613 625 CURVE SMOOTH",
"596 625 OFFCURVE",
"582 615 OFFCURVE",
"578 600 CURVE SMOOTH",
"385 39 LINE",
"440 132 LINE",
"251 573 LINE SMOOTH",
"233 616 OFFCURVE",
"225 625 OFFCURVE",
"208 625 CURVE SMOOTH",
"191 625 OFFCURVE",
"157 623 OFFCURVE",
"115 623 CURVE SMOOTH",
"85 623 OFFCURVE",
"64 625 OFFCURVE",
"47 625 CURVE SMOOTH",
"43 625 OFFCURVE",
"43 613 OFFCURVE",
"47 613 CURVE SMOOTH",
"80 613 OFFCURVE",
"126 605 OFFCURVE",
"156 542 CURVE SMOOTH",
"382 8 LINE SMOOTH",
"385 2 OFFCURVE",
"396 2 OFFCURVE",
"398 7 CURVE SMOOTH",
"609 613 LINE",
"589 580 LINE",
"604 81 LINE SMOOTH",
"607 23 OFFCURVE",
"596 12 OFFCURVE",
"536 12 CURVE SMOOTH",
"532 12 OFFCURVE",
"532 0 OFFCURVE",
"536 0 CURVE SMOOTH"
);
},
{
closed = 1;
nodes = (
"71 0 OFFCURVE",
"104 2 OFFCURVE",
"138 2 CURVE SMOOTH",
"177 2 OFFCURVE",
"211 0 OFFCURVE",
"237 0 CURVE SMOOTH",
"241 0 OFFCURVE",
"241 12 OFFCURVE",
"237 12 CURVE SMOOTH",
"186 12 OFFCURVE",
"156 57 OFFCURVE",
"158 130 CURVE SMOOTH",
"160 600 LINE",
"131 602 LINE",
"126 127 LINE SMOOTH",
"126 56 OFFCURVE",
"94 12 OFFCURVE",
"43 12 CURVE SMOOTH",
"40 12 OFFCURVE",
"40 0 OFFCURVE",
"43 0 CURVE SMOOTH"
);
}
);
width = 804;
}
);
unicode = 004D;
},
{
color = 3;
glyphname = N;
layers = (
{
anchors = (
{
name = bottom;
position = "{371, 0}";
},
{
name = top;
position = "{339, 625}";
}
);
layerId = "899E7F5F-806C-4D81-B34A-222CEA57032B";
paths = (
{
closed = 1;
nodes = (
"580 -16 OFFCURVE",
"587 -15 OFFCURVE",
"588 -11 CURVE SMOOTH",
"580 65 LINE",
"198 573 LINE SMOOTH",
"170 611 OFFCURVE",
"172 625 OFFCURVE",
"156 625 CURVE SMOOTH",
"147 625 OFFCURVE",
"131 623 OFFCURVE",
"112 623 CURVE SMOOTH",
"95 623 OFFCURVE",
"68 625 OFFCURVE",
"47 625 CURVE SMOOTH",
"43 625 OFFCURVE",
"43 613 OFFCURVE",
"47 613 CURVE SMOOTH",
"78 613 OFFCURVE",
"112 598 OFFCURVE",
"153 543 CURVE SMOOTH",
"575 -11 LINE SMOOTH"
);
},
{
closed = 1;
nodes = (
"70 0 OFFCURVE",
"98 2 OFFCURVE",
"129 2 CURVE SMOOTH",
"161 2 OFFCURVE",
"186 0 OFFCURVE",
"209 0 CURVE SMOOTH",
"213 0 OFFCURVE",
"213 12 OFFCURVE",
"209 12 CURVE SMOOTH",
"157 12 OFFCURVE",
"140 36 OFFCURVE",
"139 104 CURVE SMOOTH",
"138 600 LINE",
"119 602 LINE",
"119 104 LINE SMOOTH",
"120 36 OFFCURVE",
"98 12 OFFCURVE",
"46 12 CURVE SMOOTH",
"42 12 OFFCURVE",
"42 0 OFFCURVE",
"46 0 CURVE SMOOTH"
);
},
{
closed = 1;
nodes = (
"588 520 LINE SMOOTH",
"587 588 OFFCURVE",
"609 613 OFFCURVE",
"662 613 CURVE SMOOTH",
"665 613 OFFCURVE",
"665 625 OFFCURVE",
"662 625 CURVE SMOOTH",
"637 625 OFFCURVE",
"609 622 OFFCURVE",
"579 622 CURVE SMOOTH",
"546 622 OFFCURVE",
"522 625 OFFCURVE",
"498 625 CURVE SMOOTH",
"495 625 OFFCURVE",
"495 613 OFFCURVE",
"498 613 CURVE SMOOTH",
"551 613 OFFCURVE",
"567 588 OFFCURVE",
"568 520 CURVE SMOOTH",
"570 20 LINE",
"588 -11 LINE"
);
}
);
width = 704;
},
{
anchors = (
{
name = bottom;
position = "{378, 0}";
},
{
name = top;
position = "{352, 625}";
}
);
layerId = "05D38584-429E-4AAF-9BEA-6CB44526FD1C";
paths = (
{
closed = 1;
nodes = (
"575 -19 OFFCURVE",
"601 -14 OFFCURVE",
"600 -7 CURVE SMOOTH",
"580 143 LINE",
"236 573 LINE SMOOTH",
"205 611 OFFCURVE",
"207 625 OFFCURVE",
"189 625 CURVE SMOOTH",
"182 625 OFFCURVE",
"143 623 OFFCURVE",
"119 623 CURVE SMOOTH",
"94 623 OFFCURVE",
"53 625 OFFCURVE",
"22 625 CURVE SMOOTH",
"19 625 OFFCURVE",
"19 613 OFFCURVE",
"22 613 CURVE SMOOTH",
"54 613 OFFCURVE",
"85 598 OFFCURVE",
"130 543 CURVE SMOOTH",
"570 -9 LINE SMOOTH"
);
},
{
closed = 1;
nodes = (
"58 0 OFFCURVE",
"96 2 OFFCURVE",
"135 2 CURVE SMOOTH",
"179 2 OFFCURVE",
"211 0 OFFCURVE",
"241 0 CURVE SMOOTH",
"246 0 OFFCURVE",
"246 12 OFFCURVE",
"241 12 CURVE SMOOTH",
"185 12 OFFCURVE",
"149 51 OFFCURVE",
"150 116 CURVE SMOOTH",
"151 600 LINE",
"120 602 LINE",
"119 116 LINE SMOOTH",
"118 51 OFFCURVE",
"82 12 OFFCURVE",
"27 12 CURVE SMOOTH",
"22 12 OFFCURVE",
"22 0 OFFCURVE",
"27 0 CURVE SMOOTH"
);
},
{
closed = 1;
nodes = (
"601 509 LINE SMOOTH",
"602 573 OFFCURVE",
"639 613 OFFCURVE",
"694 613 CURVE SMOOTH",
"698 613 OFFCURVE",
"698 625 OFFCURVE",
"694 625 CURVE SMOOTH",
"662 625 OFFCURVE",
"625 622 OFFCURVE",
"586 622 CURVE SMOOTH",
"542 622 OFFCURVE",
"506 625 OFFCURVE",
"480 625 CURVE SMOOTH",
"475 625 OFFCURVE",
"475 613 OFFCURVE",
"480 613 CURVE SMOOTH",
"537 613 OFFCURVE",
"572 573 OFFCURVE",
"571 509 CURVE SMOOTH",
"568 54 LINE",
"600 -7 LINE"
);
}
);
width = 709;
}
);
unicode = 004E;
},
{
glyphname = Eng;
layers = (
{
anchors = (
{
name = bottom;
position = "{273, 0}";
},
{
name = top;
position = "{372, 625}";
}
);
components = (
{
name = N;
}
);
layerId = "899E7F5F-806C-4D81-B34A-222CEA57032B";
leftMetricsKey = "=N";
rightMetricsKey = "=N";
paths = (
{
closed = 1;
nodes = (
"547 -191 OFFCURVE",
"587 -129 OFFCURVE",
"588 -11 CURVE",
"571 0 LINE",
"571 -116 OFFCURVE",
"543 -173 OFFCURVE",
"498 -173 CURVE SMOOTH",
"449 -173 OFFCURVE",
"474 -104 OFFCURVE",
"427 -104 CURVE SMOOTH",
"413 -104 OFFCURVE",
"400 -111 OFFCURVE",
"400 -130 CURVE SMOOTH",
"399 -159 OFFCURVE",
"432 -191 OFFCURVE",
"480 -191 CURVE SMOOTH"
);
}
);
width = 704;
},
{
anchors = (
{
name = bottom;
position = "{273, 0}";
},
{
name = top;
position = "{372, 625}";
}
);
components = (
{
name = N;
}
);
layerId = "05D38584-429E-4AAF-9BEA-6CB44526FD1C";
leftMetricsKey = "=N";
rightMetricsKey = "=N";
paths = (
{
closed = 1;
nodes = (
"557 -191 OFFCURVE",
"599 -131 OFFCURVE",
"600 -7 CURVE",
"572 8 LINE",
"574 -104 OFFCURVE",
"550 -149 OFFCURVE",
"511 -149 CURVE SMOOTH",
"461 -149 OFFCURVE",
"482 -69 OFFCURVE",
"414 -69 CURVE SMOOTH",
"382 -69 OFFCURVE",
"365 -85 OFFCURVE",
"366 -116 CURVE SMOOTH",
"366 -161 OFFCURVE",
"414 -191 OFFCURVE",
"473 -191 CURVE SMOOTH"
);
}
);
width = 709;
}
);
leftMetricsKey = N;
rightMetricsKey = N;
unicode = 014A;
},
{
color = 3;
glyphname = O;
layers = (
{
anchors = (
{
name = bottom;
position = "{377, 0}";
},
{
name = center;
position = "{361, 312}";
},
{
name = top;
position = "{363, 625}";
},
{
name = topright;
position = "{575, 577}";
}
);
layerId = "899E7F5F-806C-4D81-B34A-222CEA57032B";
paths = (
{
closed = 1;
nodes = (
"530 -12 OFFCURVE",
"685 127 OFFCURVE",
"685 331 CURVE SMOOTH",
"685 505 OFFCURVE",
"572 636 OFFCURVE",
"391 636 CURVE SMOOTH",
"199 636 OFFCURVE",
"49 489 OFFCURVE",
"49 295 CURVE SMOOTH",
"49 122 OFFCURVE",
"167 -12 OFFCURVE",
"346 -12 CURVE SMOOTH"
);
},
{
closed = 1;
nodes = (
"222 14 OFFCURVE",
"94 154 OFFCURVE",
"98 343 CURVE SMOOTH",
"103 509 OFFCURVE",
"206 612 OFFCURVE",
"350 612 CURVE SMOOTH",
"516 612 OFFCURVE",
"637 473 OFFCURVE",
"635 283 CURVE SMOOTH",
"633 123 OFFCURVE",
"540 14 OFFCURVE",
"391 14 CURVE SMOOTH"
);
}
);
width = 730;
},
{
anchors = (
{
name = bottom;
position = "{382, 0}";
},
{
name = center;
position = "{361, 312}";
},
{
name = top;
position = "{370, 625}";
},
{
name = topright;
position = "{619, 580}";
}
);
layerId = "05D38584-429E-4AAF-9BEA-6CB44526FD1C";
paths = (
{
closed = 1;
nodes = (
"536 -12 OFFCURVE",
"696 111 OFFCURVE",
"698 313 CURVE SMOOTH",
"701 494 OFFCURVE",
"572 636 OFFCURVE",
"372 636 CURVE SMOOTH",
"178 636 OFFCURVE",
"37 499 OFFCURVE",
"36 313 CURVE SMOOTH",
"35 133 OFFCURVE",
"160 -12 OFFCURVE",
"356 -12 CURVE SMOOTH"
);
},
{
closed = 1;
nodes = (
"248 14 OFFCURVE",
"151 187 OFFCURVE",
"151 366 CURVE SMOOTH",
"151 518 OFFCURVE",
"225 612 OFFCURVE",
"336 612 CURVE SMOOTH",
"484 612 OFFCURVE",
"582 443 OFFCURVE",
"582 260 CURVE SMOOTH",
"582 109 OFFCURVE",
"509 14 OFFCURVE",
"398 14 CURVE SMOOTH"
);
}
);
width = 735;
}
);
leftKerningGroup = O;
rightKerningGroup = O;
unicode = 004F;
},
{
glyphname = Oslash;
layers = (
{
anchors = (
{
name = top;
position = "{354, 625}";
}
);
components = (
{
name = O;
}
);
layerId = "899E7F5F-806C-4D81-B34A-222CEA57032B";
paths = (
{
closed = 1;
nodes = (
"613 618 LINE SMOOTH",
"616 622 OFFCURVE",
"600 633 OFFCURVE",
"596 629 CURVE SMOOTH",
"94 7 LINE SMOOTH",
"90 2 OFFCURVE",
"106 -11 OFFCURVE",
"109 -7 CURVE SMOOTH"
);
}
);
width = 730;
},
{
anchors = (
{
name = top;
position = "{366, 625}";
}
);
components = (
{
name = O;
}
);
layerId = "05D38584-429E-4AAF-9BEA-6CB44526FD1C";
paths = (
{
closed = 1;
nodes = (
"622 616 LINE SMOOTH",
"626 621 OFFCURVE",
"601 639 OFFCURVE",
"598 635 CURVE SMOOTH",
"77 7 LINE SMOOTH",
"74 2 OFFCURVE",
"98 -18 OFFCURVE",
"101 -14 CURVE SMOOTH"
);
}
);
width = 735;
}
);
leftKerningGroup = O;
rightKerningGroup = O;
unicode = 00D8;
},
{
color = 3;
glyphname = OE;
layers = (
{
anchors = (
{
name = bottom;
position = "{122, 0}";
},
{
name = ogonek;
position = "{304, 12}";
},
{
name = top;
position = "{230, 625}";
}
);
layerId = "899E7F5F-806C-4D81-B34A-222CEA57032B";
leftMetricsKey = "=O";
rightMetricsKey = "=E";
paths = (
{
closed = 1;
nodes = (
"436 -4 OFFCURVE",
"491 0 OFFCURVE",
"536 0 CURVE SMOOTH",
"826 0 LINE SMOOTH",
"837 0 OFFCURVE",
"841 4 OFFCURVE",
"841 15 CURVE SMOOTH",
"841 56 OFFCURVE",
"843 110 OFFCURVE",
"848 145 CURVE SMOOTH",
"849 150 OFFCURVE",
"835 151 OFFCURVE",
"835 147 CURVE SMOOTH",
"826 71 OFFCURVE",
"788 18 OFFCURVE",
"739 18 CURVE SMOOTH",
"641 18 LINE SMOOTH",
"568 18 OFFCURVE",
"557 29 OFFCURVE",
"557 85 CURVE SMOOTH",
"557 543 LINE SMOOTH",
"557 600 OFFCURVE",
"570 611 OFFCURVE",
"641 611 CURVE SMOOTH",
"711 611 LINE",
"766 611 OFFCURVE",
"805 563 OFFCURVE",
"806 494 CURVE SMOOTH",
"806 490 OFFCURVE",
"819 489 OFFCURVE",
"819 494 CURVE SMOOTH",
"818 522 OFFCURVE",
"816 580 OFFCURVE",
"815 616 CURVE SMOOTH",
"815 622 OFFCURVE",
"814 625 OFFCURVE",
"807 625 CURVE SMOOTH",
"530 625 LINE SMOOTH",
"484 625 OFFCURVE",
"423 627 OFFCURVE",
"387 627 CURVE SMOOTH",
"204 627 OFFCURVE",
"44 501 OFFCURVE",
"44 301 CURVE SMOOTH",
"44 129 OFFCURVE",
"188 -4 OFFCURVE",
"401 -4 CURVE SMOOTH"
);
},
{
closed = 1;
nodes = (
"220 9 OFFCURVE",
"111 147 OFFCURVE",
"111 323 CURVE SMOOTH",
"111 511 OFFCURVE",
"230 614 OFFCURVE",
"396 614 CURVE SMOOTH",
"485 614 OFFCURVE",
"501 588 OFFCURVE",
"501 531 CURVE SMOOTH",
"503 82 LINE SMOOTH",
"503 19 OFFCURVE",
"471 9 OFFCURVE",
"391 9 CURVE SMOOTH"
);
},
{
closed = 1;
nodes = (
"775 268 OFFCURVE",
"773 295 OFFCURVE",
"773 325 CURVE SMOOTH",
"773 349 OFFCURVE",
"774 366 OFFCURVE",
"773 404 CURVE SMOOTH",
"774 409 OFFCURVE",
"761 409 OFFCURVE",
"761 404 CURVE SMOOTH",
"763 353 OFFCURVE",
"745 335 OFFCURVE",
"688 335 CURVE SMOOTH",
"529 335 LINE",
"527 316 LINE SMOOTH",
"683 316 LINE SMOOTH",
"744 316 OFFCURVE",
"764 294 OFFCURVE",
"764 234 CURVE SMOOTH",
"764 228 OFFCURVE",
"775 228 OFFCURVE",
"775 234 CURVE SMOOTH"
);
}
);
width = 883;
},
{
anchors = (
{
name = bottom;
position = "{125, 0}";
},
{
name = ogonek;
position = "{308, 12}";
},
{
name = top;
position = "{235, 625}";
}
);
layerId = "05D38584-429E-4AAF-9BEA-6CB44526FD1C";
leftMetricsKey = "=O";
rightMetricsKey = "=E";
paths = (
{
closed = 1;
nodes = (
"441 -4 OFFCURVE",
"495 0 OFFCURVE",
"539 0 CURVE SMOOTH",
"829 0 LINE SMOOTH",
"841 0 OFFCURVE",
"844 4 OFFCURVE",
"844 15 CURVE SMOOTH",
"844 60 OFFCURVE",
"847 118 OFFCURVE",
"854 157 CURVE SMOOTH",
"855 160 OFFCURVE",
"843 164 OFFCURVE",
"841 159 CURVE SMOOTH",
"804 73 OFFCURVE",
"766 18 OFFCURVE",
"680 18 CURVE SMOOTH",
"651 18 LINE SMOOTH",
"598 18 OFFCURVE",
"587 29 OFFCURVE",
"586 85 CURVE SMOOTH",
"586 543 LINE SMOOTH",
"588 594 OFFCURVE",
"591 604 OFFCURVE",
"653 604 CURVE SMOOTH",
"673 604 LINE SMOOTH",
"753 604 OFFCURVE",
"788 554 OFFCURVE",
"808 481 CURVE SMOOTH",
"809 477 OFFCURVE",
"821 477 OFFCURVE",
"821 482 CURVE SMOOTH",
"821 512 OFFCURVE",
"820 577 OFFCURVE",
"819 616 CURVE SMOOTH",
"819 622 OFFCURVE",
"818 625 OFFCURVE",
"812 625 CURVE SMOOTH",
"533 625 LINE SMOOTH",
"488 625 OFFCURVE",
"428 627 OFFCURVE",
"391 627 CURVE SMOOTH",
"202 627 OFFCURVE",
"37 504 OFFCURVE",
"36 309 CURVE SMOOTH",
"35 132 OFFCURVE",
"185 -4 OFFCURVE",
"405 -4 CURVE SMOOTH"
);
},
{
closed = 1;
nodes = (
"255 16 OFFCURVE",
"156 150 OFFCURVE",
"156 331 CURVE SMOOTH",
"156 513 OFFCURVE",
"256 606 OFFCURVE",
"402 606 CURVE SMOOTH",
"462 606 OFFCURVE",
"473 588 OFFCURVE",
"477 531 CURVE SMOOTH",
"478 82 LINE SMOOTH",
"481 19 OFFCURVE",
"456 16 OFFCURVE",
"393 16 CURVE SMOOTH"
);
},
{
closed = 1;
nodes = (
"800 262 OFFCURVE",
"796 291 OFFCURVE",
"796 325 CURVE SMOOTH",
"796 351 OFFCURVE",
"799 372 OFFCURVE",
"799 415 CURVE SMOOTH",
"799 421 OFFCURVE",
"786 421 OFFCURVE",
"784 415 CURVE SMOOTH",
"782 360 OFFCURVE",
"751 339 OFFCURVE",
"685 339 CURVE SMOOTH",
"535 339 LINE",
"536 311 LINE",
"683 311 LINE SMOOTH",
"745 311 OFFCURVE",
"786 281 OFFCURVE",
"786 223 CURVE SMOOTH",
"786 218 OFFCURVE",
"800 218 OFFCURVE",
"800 223 CURVE SMOOTH"
);
}
);
width = 891;
}
);
leftKerningGroup = O;
leftMetricsKey = O;
rightMetricsKey = E;
unicode = 0152;
},
{
color = 3;
glyphname = P;
layers = (
{
layerId = "899E7F5F-806C-4D81-B34A-222CEA57032B";
leftMetricsKey = "=F";
paths = (
{
closed = 1;
nodes = (
"70 0 OFFCURVE",
"109 2 OFFCURVE",
"149 2 CURVE SMOOTH",
"193 2 OFFCURVE",
"232 0 OFFCURVE",
"261 0 CURVE SMOOTH",
"264 0 OFFCURVE",
"264 12 OFFCURVE",
"261 12 CURVE SMOOTH",
"188 12 OFFCURVE",
"178 23 OFFCURVE",
"178 81 CURVE SMOOTH",
"177 542 LINE SMOOTH",
"178 613 OFFCURVE",
"191 615 OFFCURVE",
"262 615 CURVE SMOOTH",
"349 615 OFFCURVE",
"432 553 OFFCURVE",
"432 444 CURVE SMOOTH",
"432 329 OFFCURVE",
"336 276 OFFCURVE",
"248 276 CURVE SMOOTH",
"237 276 OFFCURVE",
"226 277 OFFCURVE",
"215 280 CURVE SMOOTH",
"211 281 OFFCURVE",
"209 268 OFFCURVE",
"213 267 CURVE SMOOTH",
"227 263 OFFCURVE",
"242 262 OFFCURVE",
"260 262 CURVE SMOOTH",
"358 262 OFFCURVE",
"494 323 OFFCURVE",
"494 464 CURVE SMOOTH",
"494 580 OFFCURVE",
"392 628 OFFCURVE",
"284 628 CURVE SMOOTH",
"229 628 OFFCURVE",
"181 622 OFFCURVE",
"149 622 CURVE SMOOTH",
"108 622 OFFCURVE",
"70 625 OFFCURVE",
"42 625 CURVE SMOOTH",
"37 625 OFFCURVE",
"39 613 OFFCURVE",
"42 613 CURVE SMOOTH",
"112 613 OFFCURVE",
"125 601 OFFCURVE",
"126 544 CURVE SMOOTH",
"126 81 LINE SMOOTH",
"126 23 OFFCURVE",
"112 12 OFFCURVE",
"42 12 CURVE SMOOTH",
"37 12 OFFCURVE",
"39 0 OFFCURVE",
"42 0 CURVE SMOOTH"
);
}
);
width = 533;
},
{
layerId = "05D38584-429E-4AAF-9BEA-6CB44526FD1C";
leftMetricsKey = "=F";
paths = (
{
closed = 1;
nodes = (
"78 0 OFFCURVE",
"123 2 OFFCURVE",
"168 2 CURVE SMOOTH",
"216 2 OFFCURVE",
"257 0 OFFCURVE",
"290 0 CURVE SMOOTH",
"295 0 OFFCURVE",
"294 12 OFFCURVE",
"290 12 CURVE SMOOTH",
"235 12 OFFCURVE",
"223 23 OFFCURVE",
"223 81 CURVE SMOOTH",
"222 542 LINE SMOOTH",
"223 595 OFFCURVE",
"234 607 OFFCURVE",
"281 607 CURVE SMOOTH",
"349 607 OFFCURVE",
"419 547 OFFCURVE",
"419 441 CURVE SMOOTH",
"419 330 OFFCURVE",
"359 283 OFFCURVE",
"290 283 CURVE SMOOTH",
"280 283 OFFCURVE",
"268 284 OFFCURVE",
"258 287 CURVE SMOOTH",
"253 288 OFFCURVE",
"251 268 OFFCURVE",
"255 267 CURVE SMOOTH",
"269 263 OFFCURVE",
"285 262 OFFCURVE",
"302 262 CURVE SMOOTH",
"401 262 OFFCURVE",
"536 320 OFFCURVE",
"536 461 CURVE SMOOTH",
"536 573 OFFCURVE",
"432 628 OFFCURVE",
"297 628 CURVE SMOOTH",
"267 628 OFFCURVE",
"223 622 OFFCURVE",
"165 622 CURVE SMOOTH",
"119 622 OFFCURVE",
"78 625 OFFCURVE",
"46 625 CURVE SMOOTH",
"42 625 OFFCURVE",
"42 613 OFFCURVE",
"46 613 CURVE SMOOTH",
"102 613 OFFCURVE",
"115 602 OFFCURVE",
"115 544 CURVE SMOOTH",
"115 81 LINE SMOOTH",
"115 23 OFFCURVE",
"105 12 OFFCURVE",
"46 12 CURVE SMOOTH",
"42 12 OFFCURVE",
"42 0 OFFCURVE",
"46 0 CURVE SMOOTH"
);
}
);
width = 574;
}
);
leftMetricsKey = F;
rightKerningGroup = P;
unicode = 0050;
},
{
color = 3;
glyphname = Thorn;
layers = (
{
layerId = "899E7F5F-806C-4D81-B34A-222CEA57032B";
paths = (
{
closed = 1;
nodes = (
"70 0 OFFCURVE",
"111 2 OFFCURVE",
"151 2 CURVE SMOOTH",
"205 2 OFFCURVE",
"250 0 OFFCURVE",
"287 0 CURVE SMOOTH",
"290 0 OFFCURVE",
"290 12 OFFCURVE",
"287 12 CURVE SMOOTH",
"187 12 OFFCURVE",
"178 22 OFFCURVE",
"178 81 CURVE SMOOTH",
"177 542 LINE SMOOTH",
"178 606 OFFCURVE",
"189 613 OFFCURVE",
"289 613 CURVE SMOOTH",
"292 613 OFFCURVE",
"292 625 OFFCURVE",
"289 625 CURVE SMOOTH",
"254 625 OFFCURVE",
"207 622 OFFCURVE",
"151 622 CURVE",
"110 622 OFFCURVE",
"73 625 OFFCURVE",
"44 625 CURVE SMOOTH",
"40 625 OFFCURVE",
"41 613 OFFCURVE",
"44 613 CURVE SMOOTH",
"115 613 OFFCURVE",
"125 601 OFFCURVE",
"126 544 CURVE SMOOTH",
"126 81 LINE SMOOTH",
"126 23 OFFCURVE",
"112 12 OFFCURVE",
"42 12 CURVE SMOOTH",
"37 12 OFFCURVE",
"39 0 OFFCURVE",
"42 0 CURVE SMOOTH"
);
},
{
closed = 1;
nodes = (
"374 127 OFFCURVE",
"533 185 OFFCURVE",
"533 327 CURVE SMOOTH",
"533 449 OFFCURVE",
"416 505 OFFCURVE",
"284 505 CURVE SMOOTH",
"229 505 OFFCURVE",
"175 501 OFFCURVE",
"136 489 CURVE",
"145 477 LINE",
"171 485 OFFCURVE",
"199 492 OFFCURVE",
"262 492 CURVE SMOOTH",
"372 492 OFFCURVE",
"471 423 OFFCURVE",
"471 312 CURVE SMOOTH",
"471 193 OFFCURVE",
"354 142 OFFCURVE",
"250 142 CURVE SMOOTH",
"240 142 OFFCURVE",
"227 143 OFFCURVE",
"216 145 CURVE SMOOTH",
"212 146 OFFCURVE",
"211 133 OFFCURVE",
"214 132 CURVE SMOOTH",
"229 129 OFFCURVE",
"243 127 OFFCURVE",
"261 127 CURVE SMOOTH"
);
}
);
width = 572;
},
{
layerId = "05D38584-429E-4AAF-9BEA-6CB44526FD1C";
paths = (
{
closed = 1;
nodes = (
"81 0 OFFCURVE",
"125 2 OFFCURVE",
"171 2 CURVE SMOOTH",
"229 2 OFFCURVE",
"278 0 OFFCURVE",
"318 0 CURVE SMOOTH",
"323 0 OFFCURVE",
"322 12 OFFCURVE",
"318 12 CURVE SMOOTH",
"235 12 OFFCURVE",
"226 22 OFFCURVE",
"226 81 CURVE SMOOTH",
"225 542 LINE SMOOTH",
"226 606 OFFCURVE",
"235 613 OFFCURVE",
"320 613 CURVE SMOOTH",
"325 613 OFFCURVE",
"324 625 OFFCURVE",
"320 625 CURVE SMOOTH",
"282 625 OFFCURVE",
"229 622 OFFCURVE",
"167 622 CURVE SMOOTH",
"122 622 OFFCURVE",
"83 625 OFFCURVE",
"50 625 CURVE SMOOTH",
"47 625 OFFCURVE",
"47 613 OFFCURVE",
"50 613 CURVE SMOOTH",
"106 613 OFFCURVE",
"117 601 OFFCURVE",
"117 544 CURVE SMOOTH",
"117 81 LINE SMOOTH",
"117 23 OFFCURVE",
"108 12 OFFCURVE",
"48 12 CURVE SMOOTH",
"44 12 OFFCURVE",
"44 0 OFFCURVE",
"48 0 CURVE SMOOTH"
);
},
{
closed = 1;
nodes = (
"421 136 OFFCURVE",
"565 186 OFFCURVE",
"565 320 CURVE SMOOTH",
"565 432 OFFCURVE",
"467 502 OFFCURVE",
"318 502 CURVE SMOOTH",
"268 502 OFFCURVE",
"201 494 OFFCURVE",
"154 474 CURVE",
"165 454 LINE",
"195 468 OFFCURVE",
"241 481 OFFCURVE",
"283 481 CURVE SMOOTH",
"394 481 OFFCURVE",
"447 389 OFFCURVE",
"447 298 CURVE SMOOTH",
"447 186 OFFCURVE",
"368 156 OFFCURVE",
"305 156 CURVE SMOOTH",
"295 156 OFFCURVE",
"283 157 OFFCURVE",
"271 159 CURVE SMOOTH",
"267 160 OFFCURVE",
"265 142 OFFCURVE",
"269 140 CURVE SMOOTH",
"284 137 OFFCURVE",
"299 136 OFFCURVE",
"316 136 CURVE SMOOTH"
);
}
);
width = 592;
}
);
leftMetricsKey = F;
rightKerningGroup = O;
unicode = 00DE;
},
{
glyphname = Q;
layers = (
{
components = (
{
name = O;
}
);
layerId = "899E7F5F-806C-4D81-B34A-222CEA57032B";
paths = (
{
closed = 1;
nodes = (
"730 -200 OFFCURVE",
"760 -195 OFFCURVE",
"788 -188 CURVE SMOOTH",
"792 -187 OFFCURVE",
"787 -177 OFFCURVE",
"784 -178 CURVE SMOOTH",
"774 -180 OFFCURVE",
"759 -181 OFFCURVE",
"747 -181 CURVE SMOOTH",
"674 -181 OFFCURVE",
"565 -96 OFFCURVE",
"494 25 CURVE",
"440 5 LINE",
"524 -129 OFFCURVE",
"632 -200 OFFCURVE",
"705 -200 CURVE SMOOTH"
);
}
);
width = 730;
},
{
components = (
{
name = O;
}
);
layerId = "05D38584-429E-4AAF-9BEA-6CB44526FD1C";
paths = (
{
closed = 1;
nodes = (
"764 -200 OFFCURVE",
"789 -194 OFFCURVE",
"814 -185 CURVE SMOOTH",
"818 -184 OFFCURVE",
"812 -173 OFFCURVE",
"808 -174 CURVE SMOOTH",
"799 -177 OFFCURVE",
"789 -178 OFFCURVE",
"778 -178 CURVE SMOOTH",
"723 -178 OFFCURVE",
"596 -84 OFFCURVE",
"527 48 CURVE",
"443 1 LINE",
"537 -130 OFFCURVE",
"646 -200 OFFCURVE",
"743 -200 CURVE SMOOTH"
);
}
);
width = 735;
}
);
leftKerningGroup = O;
rightKerningGroup = O;
unicode = 0051;
},
{
color = 3;
glyphname = R;
layers = (
{
anchors = (
{
name = bottom;
position = "{346, 0}";
},
{
name = top;
position = "{255, 625}";
}
);
layerId = "899E7F5F-806C-4D81-B34A-222CEA57032B";
paths = (
{
closed = 1;
nodes = (
"77 0 OFFCURVE",
"119 2 OFFCURVE",
"161 2 CURVE SMOOTH",
"207 2 OFFCURVE",
"244 0 OFFCURVE",
"276 0 CURVE SMOOTH",
"280 0 OFFCURVE",
"280 12 OFFCURVE",
"275 12 CURVE SMOOTH",
"199 12 OFFCURVE",
"191 23 OFFCURVE",
"189 81 CURVE SMOOTH",
"191 320 LINE",
"202 319 OFFCURVE",
"221 318 OFFCURVE",
"232 318 CURVE SMOOTH",
"346 318 OFFCURVE",
"440 404 OFFCURVE",
"440 503 CURVE SMOOTH",
"440 580 OFFCURVE",
"384 628 OFFCURVE",
"278 628 CURVE SMOOTH",
"249 628 OFFCURVE",
"196 622 OFFCURVE",
"163 622 CURVE SMOOTH",
"120 622 OFFCURVE",
"81 625 OFFCURVE",
"49 625 CURVE SMOOTH",
"44 625 OFFCURVE",
"44 613 OFFCURVE",
"49 613 CURVE SMOOTH",
"125 613 OFFCURVE",
"137 601 OFFCURVE",
"138 544 CURVE SMOOTH",
"138 81 LINE SMOOTH",
"138 23 OFFCURVE",
"120 12 OFFCURVE",
"46 12 CURVE SMOOTH",
"41 12 OFFCURVE",
"41 0 OFFCURVE",
"46 0 CURVE SMOOTH"
);
},
{
closed = 1;
nodes = (
"584 0 OFFCURVE",
"615 0 OFFCURVE",
"671 0 CURVE SMOOTH",
"676 0 OFFCURVE",
"676 12 OFFCURVE",
"671 12 CURVE SMOOTH",
"587 12 OFFCURVE",
"506 97 OFFCURVE",
"337 349 CURVE",
"295 333 LINE",
"429 127 OFFCURVE",
"531 0 OFFCURVE",
"566 0 CURVE SMOOTH"
);
},
{
closed = 1;
nodes = (
"232 340 OFFCURVE",
"209 342 OFFCURVE",
"189 344 CURVE",
"189 542 LINE SMOOTH",
"191 613 OFFCURVE",
"206 615 OFFCURVE",
"255 615 CURVE SMOOTH",
"329 615 OFFCURVE",
"384 577 OFFCURVE",
"384 469 CURVE SMOOTH",
"384 378 OFFCURVE",
"345 340 OFFCURVE",
"249 340 CURVE SMOOTH"
);
}
);
width = 658;
},
{
anchors = (
{
name = bottom;
position = "{372, 0}";
},
{
name = top;
position = "{288, 625}";
}
);
layerId = "05D38584-429E-4AAF-9BEA-6CB44526FD1C";
paths = (
{
closed = 1;
nodes = (
"84 0 OFFCURVE",
"131 2 OFFCURVE",
"179 2 CURVE SMOOTH",
"228 2 OFFCURVE",
"270 0 OFFCURVE",
"305 0 CURVE SMOOTH",
"310 0 OFFCURVE",
"310 12 OFFCURVE",
"304 12 CURVE SMOOTH",
"246 12 OFFCURVE",
"234 25 OFFCURVE",
"235 81 CURVE SMOOTH",
"235 318 LINE",
"239 317 OFFCURVE",
"243 316 OFFCURVE",
"248 316 CURVE SMOOTH",
"381 316 OFFCURVE",
"497 404 OFFCURVE",
"497 503 CURVE SMOOTH",
"497 580 OFFCURVE",
"433 628 OFFCURVE",
"295 628 CURVE SMOOTH",
"265 628 OFFCURVE",
"232 622 OFFCURVE",
"179 622 CURVE SMOOTH",
"132 622 OFFCURVE",
"88 625 OFFCURVE",
"54 625 CURVE SMOOTH",
"48 625 OFFCURVE",
"48 613 OFFCURVE",
"54 613 CURVE SMOOTH",
"115 613 OFFCURVE",
"126 601 OFFCURVE",
"126 544 CURVE SMOOTH",
"126 81 LINE SMOOTH",
"125 25 OFFCURVE",
"113 12 OFFCURVE",
"49 12 CURVE SMOOTH",
"44 12 OFFCURVE",
"44 0 OFFCURVE",
"50 0 CURVE SMOOTH"
);
},
{
closed = 1;
nodes = (
"564 0 OFFCURVE",
"612 0 OFFCURVE",
"701 0 CURVE SMOOTH",
"706 0 OFFCURVE",
"705 12 OFFCURVE",
"701 12 CURVE SMOOTH",
"625 12 OFFCURVE",
"546 101 OFFCURVE",
"389 360 CURVE",
"305 333 LINE",
"429 92 OFFCURVE",
"509 0 OFFCURVE",
"537 0 CURVE SMOOTH"
);
},
{
closed = 1;
nodes = (
"255 343 OFFCURVE",
"243 344 OFFCURVE",
"235 346 CURVE",
"235 542 LINE SMOOTH",
"236 605 OFFCURVE",
"242 607 OFFCURVE",
"290 607 CURVE SMOOTH",
"338 607 OFFCURVE",
"385 571 OFFCURVE",
"385 469 CURVE SMOOTH",
"385 378 OFFCURVE",
"352 343 OFFCURVE",
"264 343 CURVE SMOOTH"
);
}
);
width = 687;
}
);
leftMetricsKey = "=B";
rightKerningGroup = R;
unicode = 0052;
},
{
color = 3;
glyphname = S;
layers = (
{
anchors = (
{
name = bottom;
position = "{250, 0}";
},
{
name = top;
position = "{261, 625}";
}
);
layerId = "899E7F5F-806C-4D81-B34A-222CEA57032B";
paths = (
{
closed = 1;
nodes = (
"139 561 OFFCURVE",
"168 623 OFFCURVE",
"255 623 CURVE SMOOTH",
"351 623 OFFCURVE",
"389 546 OFFCURVE",
"394 488 CURVE SMOOTH",
"394 482 OFFCURVE",
"406 483 OFFCURVE",
"406 489 CURVE SMOOTH",
"398 595 LINE SMOOTH",
"398 602 OFFCURVE",
"392 608 OFFCURVE",
"382 612 CURVE SMOOTH",
"340 629 OFFCURVE",
"302 636 OFFCURVE",
"268 636 CURVE SMOOTH",
"178 636 OFFCURVE",
"88 585 OFFCURVE",
"88 481 CURVE SMOOTH",
"88 295 OFFCURVE",
"381 313 OFFCURVE",
"381 122 CURVE SMOOTH",
"381 32 OFFCURVE",
"317 2 OFFCURVE",
"255 2 CURVE SMOOTH",
"146 2 OFFCURVE",
"92 94 OFFCURVE",
"82 173 CURVE SMOOTH",
"81 178 OFFCURVE",
"69 177 OFFCURVE",
"70 171 CURVE SMOOTH",
"85 41 LINE SMOOTH",
"87 32 OFFCURVE",
"88 26 OFFCURVE",
"95 22 CURVE SMOOTH",
"146 -4 OFFCURVE",
"188 -12 OFFCURVE",
"233 -12 CURVE SMOOTH",
"368 -12 OFFCURVE",
"436 65 OFFCURVE",
"436 157 CURVE SMOOTH",
"436 345 OFFCURVE",
"139 331 OFFCURVE",
"139 504 CURVE SMOOTH"
);
}
);
width = 494;
},
{
anchors = (
{
name = bottom;
position = "{281, 0}";
},
{
name = top;
position = "{262, 625}";
}
);
layerId = "05D38584-429E-4AAF-9BEA-6CB44526FD1C";
paths = (
{
closed = 1;
nodes = (
"168 579 OFFCURVE",
"206 614 OFFCURVE",
"260 614 CURVE SMOOTH",
"366 614 OFFCURVE",
"408 477 OFFCURVE",
"423 444 CURVE SMOOTH",
"426 440 OFFCURVE",
"435 443 OFFCURVE",
"435 447 CURVE SMOOTH",
"435 594 LINE SMOOTH",
"435 602 OFFCURVE",
"432 607 OFFCURVE",
"420 614 CURVE SMOOTH",
"392 626 OFFCURVE",
"335 636 OFFCURVE",
"287 636 CURVE SMOOTH",
"185 636 OFFCURVE",
"76 587 OFFCURVE",
"76 474 CURVE SMOOTH",
"76 304 OFFCURVE",
"361 301 OFFCURVE",
"361 109 CURVE SMOOTH",
"361 33 OFFCURVE",
"319 13 OFFCURVE",
"273 13 CURVE SMOOTH",
"178 13 OFFCURVE",
"123 124 OFFCURVE",
"82 208 CURVE SMOOTH",
"80 213 OFFCURVE",
"69 212 OFFCURVE",
"70 206 CURVE SMOOTH",
"74 47 LINE SMOOTH",
"75 35 OFFCURVE",
"77 32 OFFCURVE",
"83 28 CURVE SMOOTH",
"106 8 OFFCURVE",
"187 -12 OFFCURVE",
"247 -12 CURVE SMOOTH",
"370 -12 OFFCURVE",
"460 56 OFFCURVE",
"460 172 CURVE SMOOTH",
"460 352 OFFCURVE",
"168 370 OFFCURVE",
"168 530 CURVE SMOOTH"
);
}
);
width = 505;
}
);
leftKerningGroup = S;
unicode = 0053;
},
{
color = 3;
glyphname = Germandbls;
layers = (
{
layerId = "899E7F5F-806C-4D81-B34A-222CEA57032B";
paths = (
{
closed = 1;
nodes = (
"577 -12 OFFCURVE",
"637 80 OFFCURVE",
"636 166 CURVE SMOOTH",
"636 240 OFFCURVE",
"580 297 OFFCURVE",
"436 385 CURVE",
"598 623 LINE SMOOTH",
"600 627 OFFCURVE",
"589 633 OFFCURVE",
"587 629 CURVE SMOOTH",
"557 588 OFFCURVE",
"558 586 OFFCURVE",
"511 601 CURVE SMOOTH",
"473 615 OFFCURVE",
"404 636 OFFCURVE",
"346 636 CURVE SMOOTH",
"192 636 OFFCURVE",
"108 504 OFFCURVE",
"108 382 CURVE SMOOTH",
"108 81 LINE SMOOTH",
"109 23 OFFCURVE",
"89 12 OFFCURVE",
"15 12 CURVE SMOOTH",
"9 12 OFFCURVE",
"9 0 OFFCURVE",
"15 0 CURVE SMOOTH",
"48 0 OFFCURVE",
"87 1 OFFCURVE",
"132 1 CURVE SMOOTH",
"171 1 OFFCURVE",
"219 0 OFFCURVE",
"256 0 CURVE SMOOTH",
"261 0 OFFCURVE",
"261 12 OFFCURVE",
"255 12 CURVE SMOOTH",
"173 12 OFFCURVE",
"161 23 OFFCURVE",
"161 81 CURVE SMOOTH",
"161 404 LINE SMOOTH",
"161 559 OFFCURVE",
"208 605 OFFCURVE",
"298 605 CURVE SMOOTH",
"354 605 OFFCURVE",
"433 585 OFFCURVE",
"519 540 CURVE",
"400 361 LINE SMOOTH",
"394 356 OFFCURVE",
"395 351 OFFCURVE",
"404 346 CURVE SMOOTH",
"536 258 OFFCURVE",
"593 196 OFFCURVE",
"593 124 CURVE SMOOTH",
"595 48 OFFCURVE",
"550 8 OFFCURVE",
"484 8 CURVE SMOOTH",
"411 8 OFFCURVE",
"329 74 OFFCURVE",
"313 137 CURVE SMOOTH",
"312 143 OFFCURVE",
"301 143 OFFCURVE",
"302 136 CURVE SMOOTH",
"315 41 LINE SMOOTH",
"316 32 OFFCURVE",
"318 27 OFFCURVE",
"326 22 CURVE SMOOTH",
"366 -2 OFFCURVE",
"407 -12 OFFCURVE",
"448 -12 CURVE SMOOTH"
);
}
);
width = 682;
},
{
layerId = "05D38584-429E-4AAF-9BEA-6CB44526FD1C";
paths = (
{
closed = 1;
nodes = (
"609 -12 OFFCURVE",
"685 73 OFFCURVE",
"685 165 CURVE SMOOTH",
"685 251 OFFCURVE",
"618 326 OFFCURVE",
"478 408 CURVE",
"621 623 LINE SMOOTH",
"623 627 OFFCURVE",
"614 634 OFFCURVE",
"611 629 CURVE SMOOTH",
"589 598 OFFCURVE",
"571 600 OFFCURVE",
"557 604 CURVE SMOOTH",
"498 620 OFFCURVE",
"436 636 OFFCURVE",
"372 636 CURVE SMOOTH",
"199 636 OFFCURVE",
"91 517 OFFCURVE",
"89 382 CURVE SMOOTH",
"89 81 LINE SMOOTH",
"89 23 OFFCURVE",
"76 12 OFFCURVE",
"12 12 CURVE SMOOTH",
"7 12 OFFCURVE",
"7 0 OFFCURVE",
"13 0 CURVE SMOOTH",
"50 0 OFFCURVE",
"95 1 OFFCURVE",
"145 1 CURVE SMOOTH",
"184 1 OFFCURVE",
"228 0 OFFCURVE",
"265 0 CURVE SMOOTH",
"271 0 OFFCURVE",
"271 12 OFFCURVE",
"265 12 CURVE SMOOTH",
"212 12 OFFCURVE",
"200 23 OFFCURVE",
"200 81 CURVE SMOOTH",
"200 444 LINE SMOOTH",
"202 557 OFFCURVE",
"216 588 OFFCURVE",
"282 588 CURVE SMOOTH",
"336 588 OFFCURVE",
"436 561 OFFCURVE",
"520 517 CURVE",
"408 346 LINE SMOOTH",
"405 340 OFFCURVE",
"405 336 OFFCURVE",
"413 331 CURVE SMOOTH",
"509 273 OFFCURVE",
"591 200 OFFCURVE",
"591 104 CURVE SMOOTH",
"591 62 OFFCURVE",
"574 19 OFFCURVE",
"530 19 CURVE SMOOTH",
"477 19 OFFCURVE",
"391 83 OFFCURVE",
"345 161 CURVE SMOOTH",
"342 167 OFFCURVE",
"331 166 OFFCURVE",
"332 159 CURVE SMOOTH",
"340 41 LINE SMOOTH",
"340 32 OFFCURVE",
"342 26 OFFCURVE",
"350 22 CURVE SMOOTH",
"382 1 OFFCURVE",
"428 -12 OFFCURVE",
"480 -12 CURVE SMOOTH"
);
}
);
width = 709;
}
);
unicode = 1E9E;
},
{
color = 3;
glyphname = Schwa;
layers = (
{
anchors = (
{
name = bottom;
position = "{303, 0}";
},
{
name = top;
position = "{381, 625}";
}
);
layerId = "899E7F5F-806C-4D81-B34A-222CEA57032B";
paths = (
{
closed = 1;
nodes = (
"444 -12 OFFCURVE",
"588 109 OFFCURVE",
"588 324 CURVE SMOOTH",
"588 470 OFFCURVE",
"519 636 OFFCURVE",
"289 636 CURVE SMOOTH",
"235 636 OFFCURVE",
"201 627 OFFCURVE",
"145 607 CURVE SMOOTH",
"124 600 OFFCURVE",
"112 612 OFFCURVE",
"117 635 CURVE SMOOTH",
"118 641 OFFCURVE",
"105 644 OFFCURVE",
"104 639 CURVE SMOOTH",
"63 490 LINE SMOOTH",
"62 485 OFFCURVE",
"76 481 OFFCURVE",
"78 487 CURVE SMOOTH",
"108 582 OFFCURVE",
"212 625 OFFCURVE",
"290 625 CURVE SMOOTH",
"436 625 OFFCURVE",
"524 477 OFFCURVE",
"524 288 CURVE SMOOTH",
"524 115 OFFCURVE",
"451 7 OFFCURVE",
"310 7 CURVE SMOOTH",
"199 7 OFFCURVE",
"120 74 OFFCURVE",
"122 175 CURVE",
"69 175 LINE SMOOTH",
"61 175 OFFCURVE",
"57 173 OFFCURVE",
"57 163 CURVE SMOOTH",
"57 94 OFFCURVE",
"118 -12 OFFCURVE",
"275 -12 CURVE SMOOTH"
);
},
{
closed = 1;
nodes = (
"529 158 LINE",
"526 177 LINE",
"106 175 LINE",
"105 153 LINE"
);
}
);
width = 639;
},
{
anchors = (
{
name = bottom;
position = "{303, 0}";
},
{
name = top;
position = "{381, 625}";
}
);
layerId = "05D38584-429E-4AAF-9BEA-6CB44526FD1C";
paths = (
{
closed = 1;
nodes = (
"453 -12 OFFCURVE",
"601 109 OFFCURVE",
"601 324 CURVE SMOOTH",
"601 465 OFFCURVE",
"538 636 OFFCURVE",
"281 636 CURVE SMOOTH",
"234 636 OFFCURVE",
"192 630 OFFCURVE",
"130 619 CURVE SMOOTH",
"108 614 OFFCURVE",
"98 623 OFFCURVE",
"102 648 CURVE SMOOTH",
"103 653 OFFCURVE",
"89 656 OFFCURVE",
"88 650 CURVE SMOOTH",
"56 467 LINE SMOOTH",
"55 463 OFFCURVE",
"67 458 OFFCURVE",
"69 463 CURVE SMOOTH",
"131 568 OFFCURVE",
"205 615 OFFCURVE",
"278 615 CURVE SMOOTH",
"404 615 OFFCURVE",
"467 482 OFFCURVE",
"468 288 CURVE SMOOTH",
"469 106 OFFCURVE",
"418 13 OFFCURVE",
"312 13 CURVE SMOOTH",
"221 13 OFFCURVE",
"170 83 OFFCURVE",
"165 175 CURVE",
"56 175 LINE SMOOTH",
"48 175 OFFCURVE",
"44 173 OFFCURVE",
"44 163 CURVE SMOOTH",
"43 91 OFFCURVE",
"109 -12 OFFCURVE",
"274 -12 CURVE SMOOTH"
);
},
{
closed = 1;
nodes = (
"529 157 LINE",
"526 177 LINE",
"106 175 LINE",
"105 152 LINE"
);
}
);
width = 639;
}
);
rightKerningGroup = O;
rightMetricsKey = O;
unicode = 018F;
},
{
color = 3;
glyphname = T;
layers = (
{
anchors = (
{
name = bottom;
position = "{302, 0}";
},
{
name = center;
position = "{274, 312}";
},
{
name = top;
position = "{299, 625}";
}
);
layerId = "899E7F5F-806C-4D81-B34A-222CEA57032B";
paths = (
{
closed = 1;
nodes = (
"222 0 OFFCURVE",
"261 2 OFFCURVE",
"302 2 CURVE SMOOTH",
"347 2 OFFCURVE",
"382 0 OFFCURVE",
"413 0 CURVE SMOOTH",
"416 0 OFFCURVE",
"416 12 OFFCURVE",
"413 12 CURVE SMOOTH",
"340 12 OFFCURVE",
"330 23 OFFCURVE",
"329 81 CURVE SMOOTH",
"327 542 LINE SMOOTH",
"327 595 OFFCURVE",
"337 609 OFFCURVE",
"398 609 CURVE SMOOTH",
"428 609 LINE SMOOTH",
"526 609 OFFCURVE",
"552 575 OFFCURVE",
"552 471 CURVE SMOOTH",
"552 467 OFFCURVE",
"565 467 OFFCURVE",
"565 471 CURVE SMOOTH",
"564 502 OFFCURVE",
"570 611 OFFCURVE",
"573 648 CURVE SMOOTH",
"574 653 OFFCURVE",
"563 654 OFFCURVE",
"561 650 CURVE SMOOTH",
"556 629 OFFCURVE",
"535 625 OFFCURVE",
"494 625 CURVE SMOOTH",
"444 625 OFFCURVE",
"388 622 OFFCURVE",
"301 622 CURVE SMOOTH",
"230 622 OFFCURVE",
"152 623 OFFCURVE",
"98 625 CURVE SMOOTH",
"82 625 OFFCURVE",
"53 626 OFFCURVE",
"53 646 CURVE SMOOTH",
"53 650 OFFCURVE",
"40 651 OFFCURVE",
"40 647 CURVE SMOOTH",
"37 604 OFFCURVE",
"30 503 OFFCURVE",
"25 470 CURVE SMOOTH",
"25 467 OFFCURVE",
"37 465 OFFCURVE",
"37 469 CURVE SMOOTH",
"50 575 OFFCURVE",
"80 609 OFFCURVE",
"172 609 CURVE SMOOTH",
"201 609 LINE SMOOTH",
"264 609 OFFCURVE",
"276 598 OFFCURVE",
"276 544 CURVE SMOOTH",
"276 81 LINE SMOOTH",
"277 23 OFFCURVE",
"263 12 OFFCURVE",
"192 12 CURVE SMOOTH",
"188 12 OFFCURVE",
"188 0 OFFCURVE",
"193 0 CURVE SMOOTH"
);
}
);
width = 596;
},
{
anchors = (
{
name = bottom;
position = "{302, 0}";
},
{
name = center;
position = "{274, 312}";
},
{
name = top;
position = "{299, 625}";
}
);
layerId = "05D38584-429E-4AAF-9BEA-6CB44526FD1C";
paths = (
{
closed = 1;
nodes = (
"194 0 OFFCURVE",
"247 2 OFFCURVE",
"302 2 CURVE SMOOTH",
"363 2 OFFCURVE",
"412 0 OFFCURVE",
"451 0 CURVE SMOOTH",
"455 0 OFFCURVE",
"455 12 OFFCURVE",
"451 12 CURVE SMOOTH",
"368 12 OFFCURVE",
"357 23 OFFCURVE",
"357 81 CURVE SMOOTH",
"356 542 LINE SMOOTH",
"357 589 OFFCURVE",
"358 602 OFFCURVE",
"398 602 CURVE SMOOTH",
"411 602 LINE SMOOTH",
"488 602 OFFCURVE",
"552 532 OFFCURVE",
"551 449 CURVE SMOOTH",
"551 444 OFFCURVE",
"564 443 OFFCURVE",
"565 448 CURVE SMOOTH",
"563 482 OFFCURVE",
"570 606 OFFCURVE",
"573 648 CURVE SMOOTH",
"574 653 OFFCURVE",
"563 654 OFFCURVE",
"561 650 CURVE SMOOTH",
"556 629 OFFCURVE",
"535 625 OFFCURVE",
"494 625 CURVE SMOOTH",
"444 625 OFFCURVE",
"388 622 OFFCURVE",
"301 622 CURVE SMOOTH",
"230 622 OFFCURVE",
"152 623 OFFCURVE",
"98 625 CURVE SMOOTH",
"82 625 OFFCURVE",
"53 626 OFFCURVE",
"53 646 CURVE SMOOTH",
"53 650 OFFCURVE",
"40 651 OFFCURVE",
"40 647 CURVE SMOOTH",
"37 598 OFFCURVE",
"30 485 OFFCURVE",
"25 448 CURVE SMOOTH",
"23 444 OFFCURVE",
"36 442 OFFCURVE",
"37 446 CURVE SMOOTH",
"48 531 OFFCURVE",
"118 602 OFFCURVE",
"188 602 CURVE SMOOTH",
"201 602 LINE SMOOTH",
"237 602 OFFCURVE",
"249 591 OFFCURVE",
"248 544 CURVE SMOOTH",
"248 81 LINE SMOOTH",
"248 23 OFFCURVE",
"233 12 OFFCURVE",
"153 12 CURVE SMOOTH",
"150 12 OFFCURVE",
"150 0 OFFCURVE",
"154 0 CURVE SMOOTH"
);
}
);
width = 596;
}
);
leftKerningGroup = T;
rightKerningGroup = T;
unicode = 0054;
},
{
glyphname = Tbar;
layers = (
{
components = (
{
name = T;
}
);
layerId = "899E7F5F-806C-4D81-B34A-222CEA57032B";
paths = (
{
closed = 1;
nodes = (
"430 313 LINE SMOOTH",
"436 313 OFFCURVE",
"436 332 OFFCURVE",
"430 332 CURVE SMOOTH",
"173 332 LINE SMOOTH",
"167 332 OFFCURVE",
"167 313 OFFCURVE",
"173 313 CURVE SMOOTH"
);
}
);
width = 596;
},
{
components = (
{
name = T;
}
);
layerId = "05D38584-429E-4AAF-9BEA-6CB44526FD1C";
paths = (
{
closed = 1;
nodes = (
"442 309 LINE SMOOTH",
"448 309 OFFCURVE",
"448 337 OFFCURVE",
"442 337 CURVE SMOOTH",
"161 337 LINE SMOOTH",
"156 337 OFFCURVE",
"156 309 OFFCURVE",
"161 309 CURVE SMOOTH"
);
}
);
width = 596;
}
);
leftKerningGroup = T;
leftMetricsKey = T;
rightKerningGroup = T;
rightMetricsKey = T;
unicode = 0166;
},
{
color = 3;
glyphname = U;
layers = (
{
anchors = (
{
name = bottom;
position = "{375, 0}";
},
{
name = ogonek;
position = "{604, 12}";
},
{
name = top;
position = "{367, 625}";
},
{
name = topright;
position = "{730, 625}";
}
);
layerId = "899E7F5F-806C-4D81-B34A-222CEA57032B";
paths = (
{
closed = 1;
nodes = (
"434 -12 OFFCURVE",
"508 28 OFFCURVE",
"598 125 CURVE",
"588 133 LINE",
"504 43 OFFCURVE",
"441 13 OFFCURVE",
"363 13 CURVE SMOOTH",
"239 13 OFFCURVE",
"171 89 OFFCURVE",
"171 221 CURVE SMOOTH",
"170 542 LINE SMOOTH",
"171 599 OFFCURVE",
"182 613 OFFCURVE",
"253 613 CURVE SMOOTH",
"256 613 OFFCURVE",
"256 625 OFFCURVE",
"253 625 CURVE SMOOTH",
"225 625 OFFCURVE",
"184 622 OFFCURVE",
"142 622 CURVE SMOOTH",
"101 622 OFFCURVE",
"63 625 OFFCURVE",
"35 625 CURVE SMOOTH",
"32 625 OFFCURVE",
"32 613 OFFCURVE",
"35 613 CURVE SMOOTH",
"106 613 OFFCURVE",
"117 601 OFFCURVE",
"118 544 CURVE SMOOTH",
"118 186 LINE SMOOTH",
"118 64 OFFCURVE",
"213 -12 OFFCURVE",
"342 -12 CURVE SMOOTH"
);
},
{
closed = 1;
nodes = (
"599 0 OFFCURVE",
"613 1 OFFCURVE",
"632 1 CURVE SMOOTH",
"662 1 OFFCURVE",
"687 0 OFFCURVE",
"715 0 CURVE SMOOTH",
"720 0 OFFCURVE",
"719 12 OFFCURVE",
"715 12 CURVE SMOOTH",
"632 12 OFFCURVE",
"619 23 OFFCURVE",
"619 81 CURVE SMOOTH",
"619 544 LINE SMOOTH",
"619 601 OFFCURVE",
"633 613 OFFCURVE",
"702 613 CURVE SMOOTH",
"705 613 OFFCURVE",
"705 625 OFFCURVE",
"702 625 CURVE SMOOTH",
"674 625 OFFCURVE",
"632 622 OFFCURVE",
"592 622 CURVE SMOOTH",
"551 622 OFFCURVE",
"512 625 OFFCURVE",
"484 625 CURVE SMOOTH",
"481 625 OFFCURVE",
"481 613 OFFCURVE",
"484 613 CURVE SMOOTH",
"557 613 OFFCURVE",
"567 599 OFFCURVE",
"565 542 CURVE SMOOTH",
"567 19 LINE SMOOTH",
"567 2 OFFCURVE",
"570 0 OFFCURVE",
"584 0 CURVE SMOOTH"
);
}
);
width = 750;
},
{
anchors = (
{
name = bottom;
position = "{388, 0}";
},
{
name = ogonek;
position = "{585, 12}";
},
{
name = top;
position = "{374, 625}";
},
{
name = topright;
position = "{756, 625}";
}
);
layerId = "05D38584-429E-4AAF-9BEA-6CB44526FD1C";
paths = (
{
closed = 1;
nodes = (
"443 -12 OFFCURVE",
"517 26 OFFCURVE",
"608 123 CURVE",
"591 135 LINE",
"509 53 OFFCURVE",
"451 25 OFFCURVE",
"381 25 CURVE SMOOTH",
"269 25 OFFCURVE",
"202 97 OFFCURVE",
"204 221 CURVE SMOOTH",
"204 542 LINE SMOOTH",
"205 599 OFFCURVE",
"213 613 OFFCURVE",
"273 613 CURVE SMOOTH",
"276 613 OFFCURVE",
"276 625 OFFCURVE",
"271 625 CURVE SMOOTH",
"240 625 OFFCURVE",
"194 622 OFFCURVE",
"149 622 CURVE SMOOTH",
"102 622 OFFCURVE",
"61 625 OFFCURVE",
"29 625 CURVE SMOOTH",
"25 625 OFFCURVE",
"25 613 OFFCURVE",
"29 613 CURVE SMOOTH",
"84 613 OFFCURVE",
"96 601 OFFCURVE",
"96 544 CURVE SMOOTH",
"96 186 LINE SMOOTH",
"96 64 OFFCURVE",
"201 -12 OFFCURVE",
"343 -12 CURVE SMOOTH"
);
},
{
closed = 1;
nodes = (
"586 0 OFFCURVE",
"609 1 OFFCURVE",
"637 1 CURVE SMOOTH",
"674 1 OFFCURVE",
"702 0 OFFCURVE",
"735 0 CURVE SMOOTH",
"739 0 OFFCURVE",
"739 12 OFFCURVE",
"735 12 CURVE SMOOTH",
"665 12 OFFCURVE",
"653 23 OFFCURVE",
"653 81 CURVE SMOOTH",
"653 544 LINE SMOOTH",
"653 601 OFFCURVE",
"663 613 OFFCURVE",
"722 613 CURVE SMOOTH",
"725 613 OFFCURVE",
"725 625 OFFCURVE",
"720 625 CURVE SMOOTH",
"689 625 OFFCURVE",
"643 622 OFFCURVE",
"599 622 CURVE SMOOTH",
"552 622 OFFCURVE",
"510 625 OFFCURVE",
"477 625 CURVE SMOOTH",
"474 625 OFFCURVE",
"474 613 OFFCURVE",
"478 613 CURVE SMOOTH",
"533 613 OFFCURVE",
"545 599 OFFCURVE",
"544 542 CURVE SMOOTH",
"545 19 LINE SMOOTH",
"545 2 OFFCURVE",
"547 0 OFFCURVE",
"561 0 CURVE SMOOTH"
);
}
);
width = 775;
}
);
leftKerningGroup = U;
unicode = 0055;
},
{
color = 3;
glyphname = Uhorn;
layers = (
{
anchors = (
{
name = bottom;
position = "{389, 0}";
},
{
name = top;
position = "{375, 625}";
}
);
layerId = "899E7F5F-806C-4D81-B34A-222CEA57032B";
paths = (
{
closed = 1;
nodes = (
"434 -12 OFFCURVE",
"508 28 OFFCURVE",
"598 125 CURVE",
"588 133 LINE",
"504 43 OFFCURVE",
"440 13 OFFCURVE",
"364 13 CURVE SMOOTH",
"243 13 OFFCURVE",
"171 83 OFFCURVE",
"171 221 CURVE SMOOTH",
"170 542 LINE SMOOTH",
"171 599 OFFCURVE",
"182 613 OFFCURVE",
"253 613 CURVE SMOOTH",
"256 613 OFFCURVE",
"256 625 OFFCURVE",
"253 625 CURVE SMOOTH",
"225 625 OFFCURVE",
"184 622 OFFCURVE",
"142 622 CURVE SMOOTH",
"101 622 OFFCURVE",
"63 625 OFFCURVE",
"35 625 CURVE SMOOTH",
"32 625 OFFCURVE",
"32 613 OFFCURVE",
"35 613 CURVE SMOOTH",
"106 613 OFFCURVE",
"117 601 OFFCURVE",
"118 544 CURVE SMOOTH",
"118 186 LINE SMOOTH",
"118 64 OFFCURVE",
"212 -12 OFFCURVE",
"343 -12 CURVE SMOOTH"
);
},
{
closed = 1;
nodes = (
"599 0 OFFCURVE",
"613 1 OFFCURVE",
"632 1 CURVE SMOOTH",
"662 1 OFFCURVE",
"687 0 OFFCURVE",
"715 0 CURVE SMOOTH",
"720 0 OFFCURVE",
"719 12 OFFCURVE",
"715 12 CURVE SMOOTH",
"632 12 OFFCURVE",
"619 23 OFFCURVE",
"619 81 CURVE SMOOTH",
"619 544 LINE SMOOTH",
"619 588 OFFCURVE",
"620 604 OFFCURVE",
"654 613 CURVE SMOOTH",
"675 621 OFFCURVE",
"766 637 OFFCURVE",
"766 705 CURVE SMOOTH",
"766 732 OFFCURVE",
"752 757 OFFCURVE",
"726 757 CURVE SMOOTH",
"711 757 OFFCURVE",
"692 746 OFFCURVE",
"692 725 CURVE SMOOTH",
"692 704 OFFCURVE",
"711 692 OFFCURVE",
"711 673 CURVE SMOOTH",
"711 643 OFFCURVE",
"664 622 OFFCURVE",
"591 622 CURVE SMOOTH",
"546 622 OFFCURVE",
"509 625 OFFCURVE",
"478 625 CURVE SMOOTH",
"474 625 OFFCURVE",
"474 613 OFFCURVE",
"478 613 CURVE SMOOTH",
"554 613 OFFCURVE",
"567 599 OFFCURVE",
"565 542 CURVE SMOOTH",
"567 19 LINE SMOOTH",
"568 2 OFFCURVE",
"570 0 OFFCURVE",
"584 0 CURVE SMOOTH"
);
}
);
width = 750;
},
{
anchors = (
{
name = bottom;
position = "{389, 0}";
},
{
name = top;
position = "{388, 625}";
}
);
layerId = "05D38584-429E-4AAF-9BEA-6CB44526FD1C";
paths = (
{
closed = 1;
nodes = (
"443 -12 OFFCURVE",
"517 26 OFFCURVE",
"608 123 CURVE",
"591 135 LINE",
"509 53 OFFCURVE",
"451 25 OFFCURVE",
"381 25 CURVE SMOOTH",
"269 25 OFFCURVE",
"202 97 OFFCURVE",
"204 221 CURVE SMOOTH",
"204 542 LINE SMOOTH",
"205 599 OFFCURVE",
"213 613 OFFCURVE",
"273 613 CURVE SMOOTH",
"276 613 OFFCURVE",
"276 625 OFFCURVE",
"271 625 CURVE SMOOTH",
"240 625 OFFCURVE",
"194 622 OFFCURVE",
"149 622 CURVE SMOOTH",
"102 622 OFFCURVE",
"61 625 OFFCURVE",
"29 625 CURVE SMOOTH",
"25 625 OFFCURVE",
"25 613 OFFCURVE",
"29 613 CURVE SMOOTH",
"84 613 OFFCURVE",
"96 601 OFFCURVE",
"96 544 CURVE SMOOTH",
"96 186 LINE SMOOTH",
"96 64 OFFCURVE",
"201 -12 OFFCURVE",
"343 -12 CURVE SMOOTH"
);
},
{
closed = 1;
nodes = (
"586 0 OFFCURVE",
"609 1 OFFCURVE",
"637 1 CURVE SMOOTH",
"674 1 OFFCURVE",
"702 0 OFFCURVE",
"735 0 CURVE SMOOTH",
"739 0 OFFCURVE",
"739 12 OFFCURVE",
"735 12 CURVE SMOOTH",
"665 12 OFFCURVE",
"653 23 OFFCURVE",
"653 81 CURVE SMOOTH",
"653 544 LINE SMOOTH",
"653 588 OFFCURVE",
"660 599 OFFCURVE",
"690 609 CURVE SMOOTH",
"752 630 OFFCURVE",
"809 649 OFFCURVE",
"809 708 CURVE SMOOTH",
"809 743 OFFCURVE",
"789 766 OFFCURVE",
"757 766 CURVE SMOOTH",
"732 766 OFFCURVE",
"709 753 OFFCURVE",
"709 722 CURVE SMOOTH",
"709 691 OFFCURVE",
"732 682 OFFCURVE",
"732 660 CURVE SMOOTH",
"732 632 OFFCURVE",
"691 622 OFFCURVE",
"598 622 CURVE SMOOTH",
"552 622 OFFCURVE",
"510 625 OFFCURVE",
"475 625 CURVE SMOOTH",
"473 625 OFFCURVE",
"470 613 OFFCURVE",
"474 613 CURVE SMOOTH",
"535 613 OFFCURVE",
"544 599 OFFCURVE",
"544 542 CURVE SMOOTH",
"545 19 LINE SMOOTH",
"545 2 OFFCURVE",
"547 0 OFFCURVE",
"561 0 CURVE SMOOTH"
);
}
);
width = 775;
}
);
leftKerningGroup = U;
unicode = 01AF;
},
{
color = 3;
glyphname = V;
layers = (
{
layerId = "899E7F5F-806C-4D81-B34A-222CEA57032B";
paths = (
{
closed = 1;
nodes = (
"319 -4 OFFCURVE",
"337 -5 OFFCURVE",
"339 1 CURVE SMOOTH",
"544 544 LINE SMOOTH",
"564 601 OFFCURVE",
"596 613 OFFCURVE",
"634 613 CURVE SMOOTH",
"639 613 OFFCURVE",
"639 625 OFFCURVE",
"634 625 CURVE SMOOTH",
"601 625 OFFCURVE",
"585 622 OFFCURVE",
"550 622 CURVE SMOOTH",
"508 622 OFFCURVE",
"485 625 OFFCURVE",
"457 625 CURVE SMOOTH",
"454 625 OFFCURVE",
"454 613 OFFCURVE",
"457 613 CURVE SMOOTH",
"526 613 OFFCURVE",
"539 595 OFFCURVE",
"523 550 CURVE SMOOTH",
"326 11 LINE",
"353 56 LINE",
"138 552 LINE SMOOTH",
"118 600 OFFCURVE",
"143 613 OFFCURVE",
"189 613 CURVE SMOOTH",
"195 613 OFFCURVE",
"194 625 OFFCURVE",
"189 625 CURVE SMOOTH",
"161 625 OFFCURVE",
"129 622 OFFCURVE",
"84 622 CURVE SMOOTH",
"60 622 OFFCURVE",
"30 625 OFFCURVE",
"6 625 CURVE SMOOTH",
"1 625 OFFCURVE",
"2 613 OFFCURVE",
"6 613 CURVE SMOOTH",
"44 613 OFFCURVE",
"67 594 OFFCURVE",
"87 542 CURVE SMOOTH",
"317 1 LINE SMOOTH"
);
}
);
width = 639;
},
{
layerId = "05D38584-429E-4AAF-9BEA-6CB44526FD1C";
paths = (
{
closed = 1;
nodes = (
"320 -4 OFFCURVE",
"345 -6 OFFCURVE",
"349 1 CURVE SMOOTH",
"539 506 LINE SMOOTH",
"574 601 OFFCURVE",
"613 613 OFFCURVE",
"655 613 CURVE SMOOTH",
"661 613 OFFCURVE",
"661 625 OFFCURVE",
"655 625 CURVE SMOOTH",
"618 625 OFFCURVE",
"599 622 OFFCURVE",
"559 622 CURVE SMOOTH",
"498 622 OFFCURVE",
"468 625 OFFCURVE",
"428 625 CURVE SMOOTH",
"423 625 OFFCURVE",
"423 613 OFFCURVE",
"428 613 CURVE SMOOTH",
"491 613 OFFCURVE",
"529 575 OFFCURVE",
"504 509 CURVE SMOOTH",
"324 15 LINE",
"381 113 LINE",
"181 552 LINE SMOOTH",
"159 600 OFFCURVE",
"185 613 OFFCURVE",
"229 613 CURVE SMOOTH",
"235 613 OFFCURVE",
"235 625 OFFCURVE",
"229 625 CURVE SMOOTH",
"194 625 OFFCURVE",
"154 622 OFFCURVE",
"94 622 CURVE SMOOTH",
"61 622 OFFCURVE",
"21 625 OFFCURVE",
"-12 625 CURVE SMOOTH",
"-15 625 OFFCURVE",
"-15 613 OFFCURVE",
"-11 613 CURVE SMOOTH",
"27 613 OFFCURVE",
"46 594 OFFCURVE",
"69 542 CURVE SMOOTH",
"318 1 LINE SMOOTH"
);
}
);
width = 647;
}
);
leftKerningGroup = V;
rightKerningGroup = V;
unicode = 0056;
},
{
color = 3;
glyphname = W;
layers = (
{
anchors = (
{
name = top;
position = "{451, 625}";
}
);
layerId = "899E7F5F-806C-4D81-B34A-222CEA57032B";
leftMetricsKey = "=V";
rightMetricsKey = "=V";
paths = (
{
closed = 1;
nodes = (
"572 -4 OFFCURVE",
"588 -4 OFFCURVE",
"589 1 CURVE SMOOTH",
"795 544 LINE SMOOTH",
"816 601 OFFCURVE",
"847 613 OFFCURVE",
"885 613 CURVE SMOOTH",
"891 613 OFFCURVE",
"891 625 OFFCURVE",
"885 625 CURVE SMOOTH",
"854 625 OFFCURVE",
"836 622 OFFCURVE",
"802 622 CURVE SMOOTH",
"759 622 OFFCURVE",
"738 625 OFFCURVE",
"708 625 CURVE SMOOTH",
"703 625 OFFCURVE",
"703 613 OFFCURVE",
"709 613 CURVE SMOOTH",
"779 613 OFFCURVE",
"794 596 OFFCURVE",
"777 550 CURVE SMOOTH",
"577 11 LINE",
"604 56 LINE",
"391 552 LINE SMOOTH",
"366 607 OFFCURVE",
"368 613 OFFCURVE",
"408 613 CURVE SMOOTH",
"415 613 OFFCURVE",
"415 625 OFFCURVE",
"408 625 CURVE SMOOTH",
"391 625 OFFCURVE",
"367 622 OFFCURVE",
"336 622 CURVE SMOOTH",
"310 622 OFFCURVE",
"281 625 OFFCURVE",
"256 625 CURVE SMOOTH",
"251 625 OFFCURVE",
"251 613 OFFCURVE",
"256 613 CURVE SMOOTH",
"297 613 OFFCURVE",
"317 594 OFFCURVE",
"338 542 CURVE SMOOTH",
"570 1 LINE SMOOTH"
);
},
{
closed = 1;
nodes = (
"319 -4 OFFCURVE",
"337 -4 OFFCURVE",
"339 1 CURVE SMOOTH",
"460 323 LINE",
"447 339 LINE",
"326 11 LINE",
"353 56 LINE",
"138 552 LINE SMOOTH",
"118 600 OFFCURVE",
"143 613 OFFCURVE",
"189 613 CURVE SMOOTH",
"195 613 OFFCURVE",
"194 625 OFFCURVE",
"189 625 CURVE SMOOTH",
"161 625 OFFCURVE",
"129 622 OFFCURVE",
"84 622 CURVE SMOOTH",
"60 622 OFFCURVE",
"30 625 OFFCURVE",
"6 625 CURVE SMOOTH",
"0 625 OFFCURVE",
"1 613 OFFCURVE",
"6 613 CURVE SMOOTH",
"44 613 OFFCURVE",
"67 594 OFFCURVE",
"87 542 CURVE SMOOTH",
"317 1 LINE SMOOTH"
);
},
{
closed = 1;
nodes = (
"550 544 LINE SMOOTH",
"571 601 OFFCURVE",
"602 613 OFFCURVE",
"640 613 CURVE SMOOTH",
"646 613 OFFCURVE",
"644 625 OFFCURVE",
"640 625 CURVE SMOOTH",
"608 625 OFFCURVE",
"591 622 OFFCURVE",
"557 622 CURVE SMOOTH",
"529 622 OFFCURVE",
"515 625 OFFCURVE",
"496 625 CURVE SMOOTH",
"490 625 OFFCURVE",
"491 613 OFFCURVE",
"496 613 CURVE SMOOTH",
"542 613 OFFCURVE",
"549 596 OFFCURVE",
"531 550 CURVE SMOOTH",
"454 339 LINE",
"467 323 LINE"
);
}
);
width = 891;
},
{
anchors = (
{
name = top;
position = "{447, 625}";
}
);
layerId = "05D38584-429E-4AAF-9BEA-6CB44526FD1C";
leftMetricsKey = "=V";
rightMetricsKey = "=V";
paths = (
{
closed = 1;
nodes = (
"578 -4 OFFCURVE",
"602 -6 OFFCURVE",
"606 1 CURVE SMOOTH",
"796 506 LINE SMOOTH",
"832 601 OFFCURVE",
"870 613 OFFCURVE",
"912 613 CURVE SMOOTH",
"918 613 OFFCURVE",
"918 625 OFFCURVE",
"912 625 CURVE SMOOTH",
"875 625 OFFCURVE",
"856 622 OFFCURVE",
"816 622 CURVE SMOOTH",
"766 622 OFFCURVE",
"740 625 OFFCURVE",
"706 625 CURVE SMOOTH",
"703 625 OFFCURVE",
"703 613 OFFCURVE",
"706 613 CURVE SMOOTH",
"761 613 OFFCURVE",
"781 566 OFFCURVE",
"761 509 CURVE SMOOTH",
"581 15 LINE",
"635 113 LINE",
"434 552 LINE SMOOTH",
"409 607 OFFCURVE",
"413 613 OFFCURVE",
"435 613 CURVE SMOOTH",
"441 613 OFFCURVE",
"441 625 OFFCURVE",
"435 625 CURVE SMOOTH",
"413 625 OFFCURVE",
"389 622 OFFCURVE",
"351 622 CURVE SMOOTH",
"322 622 OFFCURVE",
"288 625 OFFCURVE",
"258 625 CURVE SMOOTH",
"255 625 OFFCURVE",
"255 613 OFFCURVE",
"260 613 CURVE SMOOTH",
"289 613 OFFCURVE",
"303 594 OFFCURVE",
"326 542 CURVE SMOOTH",
"575 1 LINE SMOOTH"
);
},
{
closed = 1;
nodes = (
"320 -4 OFFCURVE",
"345 -6 OFFCURVE",
"349 1 CURVE SMOOTH",
"475 339 LINE",
"453 366 LINE",
"324 15 LINE",
"378 113 LINE",
"177 552 LINE SMOOTH",
"156 599 OFFCURVE",
"178 613 OFFCURVE",
"204 613 CURVE SMOOTH",
"209 613 OFFCURVE",
"209 625 OFFCURVE",
"204 625 CURVE SMOOTH",
"175 625 OFFCURVE",
"143 622 OFFCURVE",
"94 622 CURVE SMOOTH",
"61 622 OFFCURVE",
"21 625 OFFCURVE",
"-12 625 CURVE SMOOTH",
"-15 625 OFFCURVE",
"-15 613 OFFCURVE",
"-11 613 CURVE SMOOTH",
"27 613 OFFCURVE",
"46 594 OFFCURVE",
"69 542 CURVE SMOOTH",
"318 1 LINE SMOOTH"
);
},
{
closed = 1;
nodes = (
"559 506 LINE SMOOTH",
"595 600 OFFCURVE",
"621 613 OFFCURVE",
"658 613 CURVE SMOOTH",
"663 613 OFFCURVE",
"663 625 OFFCURVE",
"657 625 CURVE SMOOTH",
"627 625 OFFCURVE",
"612 622 OFFCURVE",
"578 622 CURVE SMOOTH",
"540 622 OFFCURVE",
"523 625 OFFCURVE",
"498 625 CURVE SMOOTH",
"495 625 OFFCURVE",
"495 613 OFFCURVE",
"498 613 CURVE SMOOTH",
"543 613 OFFCURVE",
"550 580 OFFCURVE",
"523 509 CURVE SMOOTH",
"471 366 LINE",
"495 339 LINE"
);
}
);
width = 904;
}
);
leftKerningGroup = V;
leftMetricsKey = "-V";
rightKerningGroup = V;
rightMetricsKey = V;
unicode = 0057;
},
{
color = 3;
glyphname = X;
layers = (
{
layerId = "899E7F5F-806C-4D81-B34A-222CEA57032B";
paths = (
{
closed = 1;
nodes = (
"430 0 OFFCURVE",
"469 2 OFFCURVE",
"518 2 CURVE SMOOTH",
"552 2 OFFCURVE",
"582 0 OFFCURVE",
"608 0 CURVE SMOOTH",
"613 0 OFFCURVE",
"613 12 OFFCURVE",
"608 12 CURVE SMOOTH",
"554 12 OFFCURVE",
"524 30 OFFCURVE",
"491 83 CURVE SMOOTH",
"187 573 LINE SMOOTH",
"168 602 OFFCURVE",
"179 613 OFFCURVE",
"230 613 CURVE SMOOTH",
"236 613 OFFCURVE",
"236 625 OFFCURVE",
"230 625 CURVE SMOOTH",
"199 625 OFFCURVE",
"156 622 OFFCURVE",
"103 622 CURVE SMOOTH",
"82 622 OFFCURVE",
"57 625 OFFCURVE",
"35 625 CURVE SMOOTH",
"30 625 OFFCURVE",
"30 613 OFFCURVE",
"35 613 CURVE SMOOTH",
"81 613 OFFCURVE",
"109 594 OFFCURVE",
"140 542 CURVE SMOOTH",
"444 51 LINE SMOOTH",
"464 22 OFFCURVE",
"451 12 OFFCURVE",
"400 12 CURVE SMOOTH",
"394 12 OFFCURVE",
"393 0 OFFCURVE",
"400 0 CURVE SMOOTH"
);
},
{
closed = 1;
nodes = (
"48 0 OFFCURVE",
"63 2 OFFCURVE",
"94 2 CURVE SMOOTH",
"142 2 OFFCURVE",
"166 0 OFFCURVE",
"198 0 CURVE SMOOTH",
"202 0 OFFCURVE",
"202 12 OFFCURVE",
"198 12 CURVE SMOOTH",
"138 12 OFFCURVE",
"130 40 OFFCURVE",
"164 92 CURVE SMOOTH",
"303 299 LINE",
"290 309 LINE",
"143 92 LINE SMOOTH",
"106 40 OFFCURVE",
"62 12 OFFCURVE",
"20 12 CURVE SMOOTH",
"15 12 OFFCURVE",
"15 0 OFFCURVE",
"20 0 CURVE SMOOTH"
);
},
{
closed = 1;
nodes = (
"464 523 LINE SMOOTH",
"501 581 OFFCURVE",
"546 613 OFFCURVE",
"589 613 CURVE SMOOTH",
"596 613 OFFCURVE",
"596 625 OFFCURVE",
"589 625 CURVE SMOOTH",
"563 625 OFFCURVE",
"547 622 OFFCURVE",
"518 622 CURVE SMOOTH",
"469 622 OFFCURVE",
"446 625 OFFCURVE",
"413 625 CURVE SMOOTH",
"408 625 OFFCURVE",
"408 613 OFFCURVE",
"414 613 CURVE SMOOTH",
"471 613 OFFCURVE",
"480 582 OFFCURVE",
"442 524 CURVE SMOOTH",
"311 325 LINE",
"323 316 LINE"
);
}
);
width = 626;
},
{
layerId = "05D38584-429E-4AAF-9BEA-6CB44526FD1C";
paths = (
{
closed = 1;
nodes = (
"405 0 OFFCURVE",
"469 2 OFFCURVE",
"518 2 CURVE SMOOTH",
"557 2 OFFCURVE",
"592 0 OFFCURVE",
"621 0 CURVE SMOOTH",
"626 0 OFFCURVE",
"626 12 OFFCURVE",
"621 12 CURVE SMOOTH",
"574 12 OFFCURVE",
"547 32 OFFCURVE",
"517 83 CURVE SMOOTH",
"215 573 LINE SMOOTH",
"199 600 OFFCURVE",
"221 613 OFFCURVE",
"243 613 CURVE SMOOTH",
"249 613 OFFCURVE",
"249 625 OFFCURVE",
"243 625 CURVE SMOOTH",
"212 625 OFFCURVE",
"156 622 OFFCURVE",
"103 622 CURVE SMOOTH",
"77 622 OFFCURVE",
"48 625 OFFCURVE",
"22 625 CURVE SMOOTH",
"18 625 OFFCURVE",
"18 613 OFFCURVE",
"22 613 CURVE SMOOTH",
"60 613 OFFCURVE",
"85 592 OFFCURVE",
"115 542 CURVE SMOOTH",
"416 51 LINE SMOOTH",
"434 23 OFFCURVE",
"398 12 OFFCURVE",
"374 12 CURVE SMOOTH",
"368 12 OFFCURVE",
"367 0 OFFCURVE",
"374 0 CURVE SMOOTH"
);
},
{
closed = 1;
nodes = (
"21 0 OFFCURVE",
"50 2 OFFCURVE",
"80 2 CURVE SMOOTH",
"129 2 OFFCURVE",
"189 0 OFFCURVE",
"222 0 CURVE SMOOTH",
"227 0 OFFCURVE",
"227 12 OFFCURVE",
"222 12 CURVE SMOOTH",
"164 12 OFFCURVE",
"127 34 OFFCURVE",
"173 103 CURVE SMOOTH",
"297 291 LINE",
"273 310 LINE",
"147 123 LINE SMOOTH",
"94 44 OFFCURVE",
"37 12 OFFCURVE",
"-6 12 CURVE SMOOTH",
"-13 12 OFFCURVE",
"-12 0 OFFCURVE",
"-6 0 CURVE SMOOTH"
);
},
{
closed = 1;
nodes = (
"449 502 LINE SMOOTH",
"504 580 OFFCURVE",
"559 613 OFFCURVE",
"602 613 CURVE SMOOTH",
"609 613 OFFCURVE",
"609 625 OFFCURVE",
"602 625 CURVE SMOOTH",
"575 625 OFFCURVE",
"547 622 OFFCURVE",
"518 622 CURVE SMOOTH",
"469 622 OFFCURVE",
"407 625 OFFCURVE",
"374 625 CURVE SMOOTH",
"370 625 OFFCURVE",
"370 613 OFFCURVE",
"375 613 CURVE SMOOTH",
"433 613 OFFCURVE",
"469 591 OFFCURVE",
"423 522 CURVE SMOOTH",
"301 333 LINE",
"325 315 LINE"
);
}
);
width = 627;
}
);
rightKerningGroup = X;
unicode = 0058;
},
{
color = 3;
glyphname = Y;
layers = (
{
anchors = (
{
name = bottom;
position = "{290, 0}";
},
{
name = top;
position = "{288, 625}";
}
);
layerId = "899E7F5F-806C-4D81-B34A-222CEA57032B";
paths = (
{
closed = 1;
nodes = (
"446 523 LINE SMOOTH",
"482 581 OFFCURVE",
"525 613 OFFCURVE",
"572 613 CURVE SMOOTH",
"577 613 OFFCURVE",
"577 625 OFFCURVE",
"572 625 CURVE SMOOTH",
"545 625 OFFCURVE",
"529 622 OFFCURVE",
"498 622 CURVE SMOOTH",
"450 622 OFFCURVE",
"428 625 OFFCURVE",
"394 625 CURVE SMOOTH",
"389 625 OFFCURVE",
"389 613 OFFCURVE",
"394 613 CURVE SMOOTH",
"449 613 OFFCURVE",
"457 582 OFFCURVE",
"423 524 CURVE SMOOTH",
"277 278 LINE",
"289 270 LINE"
);
},
{
closed = 1;
nodes = (
"207 0 OFFCURVE",
"244 2 OFFCURVE",
"288 2 CURVE SMOOTH",
"330 2 OFFCURVE",
"366 0 OFFCURVE",
"395 0 CURVE SMOOTH",
"401 0 OFFCURVE",
"401 12 OFFCURVE",
"395 12 CURVE SMOOTH",
"324 12 OFFCURVE",
"315 23 OFFCURVE",
"313 81 CURVE SMOOTH",
"313 319 LINE",
"261 310 LINE",
"262 81 LINE SMOOTH",
"262 23 OFFCURVE",
"248 12 OFFCURVE",
"177 12 CURVE SMOOTH",
"172 12 OFFCURVE",
"172 0 OFFCURVE",
"177 0 CURVE SMOOTH"
);
},
{
closed = 1;
nodes = (
"313 317 LINE",
"147 573 LINE SMOOTH",
"126 602 OFFCURVE",
"137 613 OFFCURVE",
"188 613 CURVE SMOOTH",
"194 613 OFFCURVE",
"194 625 OFFCURVE",
"188 625 CURVE SMOOTH",
"157 625 OFFCURVE",
"113 622 OFFCURVE",
"64 622 CURVE SMOOTH",
"43 622 OFFCURVE",
"18 625 OFFCURVE",
"-4 625 CURVE SMOOTH",
"-8 625 OFFCURVE",
"-8 613 OFFCURVE",
"-4 613 CURVE SMOOTH",
"42 613 OFFCURVE",
"68 593 OFFCURVE",
"101 542 CURVE SMOOTH",
"280 271 LINE"
);
}
);
width = 568;
},
{
anchors = (
{
name = bottom;
position = "{296, 0}";
},
{
name = top;
position = "{294, 625}";
}
);
layerId = "05D38584-429E-4AAF-9BEA-6CB44526FD1C";
paths = (
{
closed = 1;
nodes = (
"449 504 LINE SMOOTH",
"491 579 OFFCURVE",
"532 613 OFFCURVE",
"578 613 CURVE SMOOTH",
"584 613 OFFCURVE",
"584 625 OFFCURVE",
"578 625 CURVE SMOOTH",
"551 625 OFFCURVE",
"536 622 OFFCURVE",
"505 622 CURVE SMOOTH",
"457 622 OFFCURVE",
"408 625 OFFCURVE",
"374 625 CURVE SMOOTH",
"370 625 OFFCURVE",
"370 613 OFFCURVE",
"375 613 CURVE SMOOTH",
"428 613 OFFCURVE",
"449 573 OFFCURVE",
"426 526 CURVE SMOOTH",
"301 282 LINE",
"323 265 LINE"
);
},
{
closed = 1;
nodes = (
"194 0 OFFCURVE",
"240 2 OFFCURVE",
"295 2 CURVE SMOOTH",
"347 2 OFFCURVE",
"392 0 OFFCURVE",
"428 0 CURVE SMOOTH",
"433 0 OFFCURVE",
"433 12 OFFCURVE",
"428 12 CURVE SMOOTH",
"358 12 OFFCURVE",
"349 23 OFFCURVE",
"349 81 CURVE SMOOTH",
"349 319 LINE",
"239 310 LINE",
"240 81 LINE SMOOTH",
"241 23 OFFCURVE",
"227 12 OFFCURVE",
"158 12 CURVE SMOOTH",
"152 12 OFFCURVE",
"153 0 OFFCURVE",
"158 0 CURVE SMOOTH"
);
},
{
closed = 1;
nodes = (
"349 317 LINE",
"182 573 LINE SMOOTH",
"161 604 OFFCURVE",
"172 613 OFFCURVE",
"221 613 CURVE SMOOTH",
"226 613 OFFCURVE",
"228 625 OFFCURVE",
"223 625 CURVE SMOOTH",
"196 625 OFFCURVE",
"138 622 OFFCURVE",
"97 622 CURVE SMOOTH",
"62 622 OFFCURVE",
"22 625 OFFCURVE",
"-11 625 CURVE SMOOTH",
"-15 625 OFFCURVE",
"-15 613 OFFCURVE",
"-9 613 CURVE SMOOTH",
"20 613 OFFCURVE",
"48 591 OFFCURVE",
"80 542 CURVE SMOOTH",
"258 271 LINE"
);
}
);
width = 577;
}
);
leftKerningGroup = Y;
rightKerningGroup = Y;
unicode = 0059;
},
{
color = 3;
glyphname = Z;
layers = (
{
anchors = (
{
name = bottom;
position = "{305, 0}";
},
{
name = top;
position = "{294, 625}";
}
);
layerId = "899E7F5F-806C-4D81-B34A-222CEA57032B";
paths = (
{
closed = 1;
nodes = (
"538 -2 OFFCURVE",
"544 4 OFFCURVE",
"543 8 CURVE SMOOTH",
"557 129 LINE SMOOTH",
"557 133 OFFCURVE",
"544 136 OFFCURVE",
"543 131 CURVE SMOOTH",
"530 49 OFFCURVE",
"492 19 OFFCURVE",
"400 19 CURVE SMOOTH",
"343 19 OFFCURVE",
"253 19 OFFCURVE",
"137 19 CURVE SMOOTH",
"130 19 OFFCURVE",
"127 20 OFFCURVE",
"133 27 CURVE SMOOTH",
"529 612 LINE SMOOTH",
"531 616 OFFCURVE",
"526 625 OFFCURVE",
"520 625 CURVE SMOOTH",
"346 625 OFFCURVE",
"239 625 OFFCURVE",
"159 625 CURVE SMOOTH",
"109 625 OFFCURVE",
"101 628 OFFCURVE",
"105 651 CURVE SMOOTH",
"106 655 OFFCURVE",
"92 658 OFFCURVE",
"91 655 CURVE SMOOTH",
"53 504 LINE SMOOTH",
"50 499 OFFCURVE",
"62 496 OFFCURVE",
"65 501 CURVE SMOOTH",
"98 606 OFFCURVE",
"97 608 OFFCURVE",
"448 608 CURVE SMOOTH",
"457 608 OFFCURVE",
"458 607 OFFCURVE",
"454 600 CURVE SMOOTH",
"54 13 LINE SMOOTH",
"50 8 OFFCURVE",
"54 0 OFFCURVE",
"60 0 CURVE SMOOTH",
"207 0 OFFCURVE",
"387 0 OFFCURVE",
"533 -2 CURVE SMOOTH"
);
}
);
width = 588;
},
{
anchors = (
{
name = bottom;
position = "{326, 0}";
},
{
name = top;
position = "{303, 625}";
}
);
layerId = "05D38584-429E-4AAF-9BEA-6CB44526FD1C";
paths = (
{
closed = 1;
nodes = (
"558 -2 OFFCURVE",
"561 2 OFFCURVE",
"561 8 CURVE SMOOTH",
"575 152 LINE SMOOTH",
"575 157 OFFCURVE",
"565 159 OFFCURVE",
"563 154 CURVE SMOOTH",
"508 51 OFFCURVE",
"430 19 OFFCURVE",
"284 19 CURVE SMOOTH",
"260 19 OFFCURVE",
"221 19 OFFCURVE",
"172 19 CURVE SMOOTH",
"164 19 OFFCURVE",
"163 20 OFFCURVE",
"168 27 CURVE SMOOTH",
"563 612 LINE SMOOTH",
"565 616 OFFCURVE",
"561 625 OFFCURVE",
"556 625 CURVE SMOOTH",
"367 625 OFFCURVE",
"251 625 OFFCURVE",
"165 625 CURVE SMOOTH",
"115 625 OFFCURVE",
"108 628 OFFCURVE",
"111 651 CURVE SMOOTH",
"112 655 OFFCURVE",
"98 658 OFFCURVE",
"97 655 CURVE SMOOTH",
"53 469 LINE SMOOTH",
"51 464 OFFCURVE",
"63 461 OFFCURVE",
"65 465 CURVE SMOOTH",
"131 584 OFFCURVE",
"192 608 OFFCURVE",
"427 608 CURVE SMOOTH",
"435 608 OFFCURVE",
"436 607 OFFCURVE",
"432 600 CURVE SMOOTH",
"32 13 LINE SMOOTH",
"29 8 OFFCURVE",
"32 0 OFFCURVE",
"37 0 CURVE SMOOTH",
"194 0 OFFCURVE",
"396 0 OFFCURVE",
"552 -2 CURVE SMOOTH"
);
}
);
width = 601;
}
);
rightKerningGroup = Z;
unicode = 005A;
},
{
glyphname = Q.cv01;
layers = (
{
components = (
{
name = O;
}
);
layerId = "899E7F5F-806C-4D81-B34A-222CEA57032B";
paths = (
{
closed = 1;
nodes = (
"1112 -241 OFFCURVE",
"1156 -220 OFFCURVE",
"1192 -184 CURVE",
"1195 -180 OFFCURVE",
"1187 -172 OFFCURVE",
"1184 -175 CURVE",
"1161 -192 OFFCURVE",
"1142 -201 OFFCURVE",
"1090 -201 CURVE SMOOTH",
"847 -201 OFFCURVE",
"601 -71 OFFCURVE",
"425 -71 CURVE SMOOTH",
"395 -71 OFFCURVE",
"373 -76 OFFCURVE",
"353 -85 CURVE",
"335 -104 LINE",
"546 51 LINE",
"537 57 LINE",
"268 -131 LINE SMOOTH",
"263 -133 OFFCURVE",
"270 -144 OFFCURVE",
"275 -140 CURVE SMOOTH",
"311 -116 OFFCURVE",
"356 -109 OFFCURVE",
"389 -109 CURVE SMOOTH",
"554 -109 OFFCURVE",
"850 -241 OFFCURVE",
"1046 -241 CURVE SMOOTH"
);
}
);
width = 730;
},
{
components = (
{
name = O;
}
);
layerId = "05D38584-429E-4AAF-9BEA-6CB44526FD1C";
paths = (
{
closed = 1;
nodes = (
"1122 -264 OFFCURVE",
"1171 -235 OFFCURVE",
"1209 -184 CURVE",
"1213 -180 OFFCURVE",
"1205 -172 OFFCURVE",
"1201 -175 CURVE",
"1179 -192 OFFCURVE",
"1159 -201 OFFCURVE",
"1108 -201 CURVE SMOOTH",
"864 -201 OFFCURVE",
"619 -71 OFFCURVE",
"442 -71 CURVE SMOOTH",
"413 -71 OFFCURVE",
"391 -76 OFFCURVE",
"371 -85 CURVE",
"352 -104 LINE",
"564 51 LINE",
"551 63 LINE",
"281 -125 LINE SMOOTH",
"276 -127 OFFCURVE",
"288 -144 OFFCURVE",
"292 -140 CURVE SMOOTH",
"313 -133 OFFCURVE",
"339 -132 OFFCURVE",
"358 -132 CURVE SMOOTH",
"531 -132 OFFCURVE",
"840 -264 OFFCURVE",
"1044 -264 CURVE SMOOTH"
);
}
);
width = 735;
}
);
leftKerningGroup = O;
leftMetricsKey = O;
rightKerningGroup = O;
},
{
glyphname = Q.cv02;
layers = (
{
components = (
{
name = O;
}
);
layerId = "899E7F5F-806C-4D81-B34A-222CEA57032B";
paths = (
{
closed = 1;
nodes = (
"1163 -187 OFFCURVE",
"1157 -178 OFFCURVE",
"1152 -179 CURVE SMOOTH",
"1123 -186 OFFCURVE",
"1091 -189 OFFCURVE",
"1057 -189 CURVE SMOOTH",
"896 -189 OFFCURVE",
"687 -115 OFFCURVE",
"492 20 CURVE",
"421 7 LINE",
"651 -145 OFFCURVE",
"836 -219 OFFCURVE",
"994 -219 CURVE SMOOTH",
"1053 -219 OFFCURVE",
"1108 -209 OFFCURVE",
"1159 -189 CURVE SMOOTH"
);
}
);
width = 730;
},
{
components = (
{
name = O;
}
);
layerId = "05D38584-429E-4AAF-9BEA-6CB44526FD1C";
paths = (
{
closed = 1;
nodes = (
"1163 -187 OFFCURVE",
"1157 -178 OFFCURVE",
"1152 -179 CURVE SMOOTH",
"1123 -186 OFFCURVE",
"1091 -191 OFFCURVE",
"1056 -191 CURVE SMOOTH",
"899 -191 OFFCURVE",
"697 -113 OFFCURVE",
"505 28 CURVE",
"389 -6 LINE",
"626 -157 OFFCURVE",
"823 -220 OFFCURVE",
"986 -220 CURVE SMOOTH",
"1047 -220 OFFCURVE",
"1104 -209 OFFCURVE",
"1159 -189 CURVE SMOOTH"
);
}
);
width = 735;
}
);
leftKerningGroup = O;
rightKerningGroup = O;
},
{
color = 3;
glyphname = Q.cv03;
layers = (
{
layerId = "899E7F5F-806C-4D81-B34A-222CEA57032B";
paths = (
{
closed = 1;
nodes = (
"413 -174 OFFCURVE",
"662 67 OFFCURVE",
"662 317 CURVE SMOOTH",
"662 487 OFFCURVE",
"547 636 OFFCURVE",
"364 636 CURVE SMOOTH",
"193 636 OFFCURVE",
"49 506 OFFCURVE",
"49 331 CURVE SMOOTH",
"49 165 OFFCURVE",
"178 39 OFFCURVE",
"331 39 CURVE SMOOTH",
"366 39 OFFCURVE",
"407 46 OFFCURVE",
"440 61 CURVE SMOOTH",
"446 63 OFFCURVE",
"439 73 OFFCURVE",
"435 70 CURVE SMOOTH",
"416 62 OFFCURVE",
"382 57 OFFCURVE",
"360 57 CURVE SMOOTH",
"222 57 OFFCURVE",
"96 186 OFFCURVE",
"96 354 CURVE SMOOTH",
"96 508 OFFCURVE",
"181 612 OFFCURVE",
"322 612 CURVE SMOOTH",
"487 612 OFFCURVE",
"612 468 OFFCURVE",
"612 290 CURVE SMOOTH",
"612 56 OFFCURVE",
"392 -159 OFFCURVE",
"212 -159 CURVE SMOOTH",
"172 -159 OFFCURVE",
"132 -149 OFFCURVE",
"132 -122 CURVE SMOOTH",
"132 -92 OFFCURVE",
"181 -85 OFFCURVE",
"240 -85 CURVE SMOOTH",
"277 -85 OFFCURVE",
"315 -89 OFFCURVE",
"354 -95 CURVE",
"371 -54 LINE",
"345 -50 OFFCURVE",
"318 -48 OFFCURVE",
"290 -48 CURVE SMOOTH",
"186 -48 OFFCURVE",
"109 -64 OFFCURVE",
"109 -118 CURVE SMOOTH",
"109 -159 OFFCURVE",
"154 -174 OFFCURVE",
"206 -174 CURVE SMOOTH"
);
},
{
closed = 1;
nodes = (
"1152 -241 OFFCURVE",
"1199 -220 OFFCURVE",
"1239 -184 CURVE SMOOTH",
"1243 -180 OFFCURVE",
"1235 -172 OFFCURVE",
"1230 -175 CURVE SMOOTH",
"1206 -192 OFFCURVE",
"1184 -201 OFFCURVE",
"1127 -201 CURVE SMOOTH",
"874 -201 OFFCURVE",
"587 -81 OFFCURVE",
"371 -54 CURVE",
"354 -95 LINE",
"585 -129 OFFCURVE",
"875 -241 OFFCURVE",
"1078 -241 CURVE SMOOTH"
);
}
);
width = 711;
},
{
layerId = "05D38584-429E-4AAF-9BEA-6CB44526FD1C";
paths = (
{
closed = 1;
nodes = (
"441 -179 OFFCURVE",
"695 57 OFFCURVE",
"695 311 CURVE SMOOTH",
"695 488 OFFCURVE",
"572 636 OFFCURVE",
"373 636 CURVE SMOOTH",
"196 636 OFFCURVE",
"36 519 OFFCURVE",
"36 325 CURVE SMOOTH",
"36 152 OFFCURVE",
"165 39 OFFCURVE",
"354 39 CURVE SMOOTH",
"389 39 OFFCURVE",
"430 46 OFFCURVE",
"463 61 CURVE SMOOTH",
"469 63 OFFCURVE",
"457 78 OFFCURVE",
"454 76 CURVE SMOOTH",
"435 68 OFFCURVE",
"404 63 OFFCURVE",
"381 63 CURVE SMOOTH",
"240 63 OFFCURVE",
"139 192 OFFCURVE",
"139 368 CURVE SMOOTH",
"139 533 OFFCURVE",
"227 609 OFFCURVE",
"331 609 CURVE SMOOTH",
"474 609 OFFCURVE",
"588 465 OFFCURVE",
"588 273 CURVE SMOOTH",
"588 25 OFFCURVE",
"399 -159 OFFCURVE",
"230 -159 CURVE SMOOTH",
"184 -159 OFFCURVE",
"160 -145 OFFCURVE",
"157 -127 CURVE SMOOTH",
"152 -103 OFFCURVE",
"191 -97 OFFCURVE",
"227 -97 CURVE SMOOTH",
"264 -97 OFFCURVE",
"302 -101 OFFCURVE",
"342 -106 CURVE",
"420 -54 LINE",
"394 -50 OFFCURVE",
"367 -48 OFFCURVE",
"298 -48 CURVE SMOOTH",
"215 -48 OFFCURVE",
"116 -68 OFFCURVE",
"127 -127 CURVE SMOOTH",
"135 -158 OFFCURVE",
"164 -179 OFFCURVE",
"232 -179 CURVE SMOOTH"
);
},
{
closed = 1;
nodes = (
"1163 -253 OFFCURVE",
"1222 -223 OFFCURVE",
"1273 -172 CURVE",
"1277 -168 OFFCURVE",
"1268 -160 OFFCURVE",
"1264 -164 CURVE",
"1237 -181 OFFCURVE",
"1220 -189 OFFCURVE",
"1156 -189 CURVE SMOOTH",
"919 -189 OFFCURVE",
"627 -78 OFFCURVE",
"420 -54 CURVE",
"342 -106 LINE",
"570 -140 OFFCURVE",
"865 -253 OFFCURVE",
"1062 -253 CURVE SMOOTH"
);
}
);
width = 731;
}
);
leftKerningGroup = O;
leftMetricsKey = O;
rightKerningGroup = O;
},
{
glyphname = Q.cv04;
layers = (
{
components = (
{
name = O;
}
);
layerId = "899E7F5F-806C-4D81-B34A-222CEA57032B";
paths = (
{
closed = 1;
nodes = (
"1083 -264 OFFCURVE",
"1126 -243 OFFCURVE",
"1161 -207 CURVE SMOOTH",
"1166 -204 OFFCURVE",
"1158 -195 OFFCURVE",
"1153 -199 CURVE SMOOTH",
"1132 -215 OFFCURVE",
"1112 -225 OFFCURVE",
"1061 -225 CURVE SMOOTH",
"818 -225 OFFCURVE",
"566 -71 OFFCURVE",
"391 -71 CURVE SMOOTH",
"310 -71 OFFCURVE",
"241 -104 OFFCURVE",
"201 -142 CURVE SMOOTH",
"199 -144 OFFCURVE",
"206 -154 OFFCURVE",
"209 -152 CURVE SMOOTH",
"244 -118 OFFCURVE",
"315 -109 OFFCURVE",
"356 -109 CURVE SMOOTH",
"520 -109 OFFCURVE",
"821 -264 OFFCURVE",
"1016 -264 CURVE SMOOTH"
);
}
);
width = 730;
},
{
components = (
{
name = O;
}
);
layerId = "05D38584-429E-4AAF-9BEA-6CB44526FD1C";
paths = (
{
closed = 1;
nodes = (
"1053 -276 OFFCURVE",
"1118 -249 OFFCURVE",
"1171 -202 CURVE SMOOTH",
"1175 -198 OFFCURVE",
"1164 -187 OFFCURVE",
"1159 -192 CURVE SMOOTH",
"1129 -216 OFFCURVE",
"1105 -225 OFFCURVE",
"1056 -225 CURVE SMOOTH",
"843 -225 OFFCURVE",
"572 -71 OFFCURVE",
"402 -71 CURVE SMOOTH",
"322 -71 OFFCURVE",
"253 -104 OFFCURVE",
"213 -142 CURVE SMOOTH",
"211 -144 OFFCURVE",
"218 -154 OFFCURVE",
"221 -152 CURVE SMOOTH",
"246 -132 OFFCURVE",
"271 -123 OFFCURVE",
"302 -123 CURVE SMOOTH",
"469 -123 OFFCURVE",
"760 -276 OFFCURVE",
"966 -276 CURVE SMOOTH"
);
}
);
width = 735;
}
);
leftKerningGroup = O;
rightKerningGroup = O;
},
{
glyphname = Q.long;
layers = (
{
components = (
{
name = O;
}
);
layerId = "899E7F5F-806C-4D81-B34A-222CEA57032B";
paths = (
{
closed = 1;
nodes = (
"1112 -241 OFFCURVE",
"1156 -220 OFFCURVE",
"1192 -184 CURVE",
"1195 -180 OFFCURVE",
"1187 -172 OFFCURVE",
"1184 -175 CURVE",
"1161 -192 OFFCURVE",
"1142 -201 OFFCURVE",
"1090 -201 CURVE SMOOTH",
"847 -201 OFFCURVE",
"601 -71 OFFCURVE",
"425 -71 CURVE SMOOTH",
"395 -71 OFFCURVE",
"373 -76 OFFCURVE",
"353 -85 CURVE",
"335 -104 LINE",
"546 51 LINE",
"537 57 LINE",
"268 -131 LINE SMOOTH",
"263 -133 OFFCURVE",
"270 -144 OFFCURVE",
"275 -140 CURVE SMOOTH",
"311 -116 OFFCURVE",
"356 -109 OFFCURVE",
"389 -109 CURVE SMOOTH",
"554 -109 OFFCURVE",
"850 -241 OFFCURVE",
"1046 -241 CURVE SMOOTH"
);
}
);
width = 730;
},
{
components = (
{
name = O;
}
);
layerId = "05D38584-429E-4AAF-9BEA-6CB44526FD1C";
paths = (
{
closed = 1;
nodes = (
"1122 -264 OFFCURVE",
"1171 -235 OFFCURVE",
"1209 -184 CURVE",
"1213 -180 OFFCURVE",
"1205 -172 OFFCURVE",
"1201 -175 CURVE",
"1179 -192 OFFCURVE",
"1159 -201 OFFCURVE",
"1108 -201 CURVE SMOOTH",
"864 -201 OFFCURVE",
"619 -71 OFFCURVE",
"442 -71 CURVE SMOOTH",
"413 -71 OFFCURVE",
"391 -76 OFFCURVE",
"371 -85 CURVE",
"352 -104 LINE",
"564 51 LINE",
"551 63 LINE",
"281 -125 LINE SMOOTH",
"276 -127 OFFCURVE",
"288 -144 OFFCURVE",
"292 -140 CURVE SMOOTH",
"313 -133 OFFCURVE",
"339 -132 OFFCURVE",
"358 -132 CURVE SMOOTH",
"531 -132 OFFCURVE",
"840 -264 OFFCURVE",
"1044 -264 CURVE SMOOTH"
);
}
);
width = 735;
}
);
leftKerningGroup = O;
leftMetricsKey = O;
rightKerningGroup = O;
},
{
color = 3;
glyphname = R.short;
layers = (
{
anchors = (
{
name = bottom;
position = "{339, 0}";
},
{
name = top;
position = "{248, 625}";
}
);
layerId = "899E7F5F-806C-4D81-B34A-222CEA57032B";
leftMetricsKey = "=B";
paths = (
{
closed = 1;
nodes = (
"76 0 OFFCURVE",
"117 2 OFFCURVE",
"160 2 CURVE SMOOTH",
"206 2 OFFCURVE",
"243 0 OFFCURVE",
"274 0 CURVE SMOOTH",
"278 0 OFFCURVE",
"278 12 OFFCURVE",
"274 12 CURVE SMOOTH",
"198 12 OFFCURVE",
"188 23 OFFCURVE",
"188 81 CURVE SMOOTH",
"188 320 LINE",
"201 319 OFFCURVE",
"218 318 OFFCURVE",
"230 318 CURVE SMOOTH",
"344 318 OFFCURVE",
"439 404 OFFCURVE",
"439 503 CURVE SMOOTH",
"439 580 OFFCURVE",
"382 628 OFFCURVE",
"277 628 CURVE SMOOTH",
"247 628 OFFCURVE",
"195 622 OFFCURVE",
"161 622 CURVE SMOOTH",
"119 622 OFFCURVE",
"80 625 OFFCURVE",
"48 625 CURVE SMOOTH",
"43 625 OFFCURVE",
"44 613 OFFCURVE",
"49 613 CURVE SMOOTH",
"125 613 OFFCURVE",
"136 601 OFFCURVE",
"136 544 CURVE SMOOTH",
"137 81 LINE SMOOTH",
"137 23 OFFCURVE",
"119 12 OFFCURVE",
"44 12 CURVE SMOOTH",
"40 12 OFFCURVE",
"40 0 OFFCURVE",
"44 0 CURVE SMOOTH"
);
},
{
closed = 1;
nodes = (
"487 0 OFFCURVE",
"533 0 OFFCURVE",
"588 0 CURVE SMOOTH",
"594 0 OFFCURVE",
"594 12 OFFCURVE",
"588 12 CURVE SMOOTH",
"510 12 OFFCURVE",
"468 70 OFFCURVE",
"338 350 CURVE",
"291 337 LINE",
"372 131 OFFCURVE",
"454 0 OFFCURVE",
"470 0 CURVE SMOOTH"
);
},
{
closed = 1;
nodes = (
"230 340 OFFCURVE",
"208 342 OFFCURVE",
"188 344 CURVE",
"188 542 LINE SMOOTH",
"188 613 OFFCURVE",
"205 615 OFFCURVE",
"254 615 CURVE SMOOTH",
"327 615 OFFCURVE",
"382 577 OFFCURVE",
"382 469 CURVE SMOOTH",
"382 378 OFFCURVE",
"344 340 OFFCURVE",
"248 340 CURVE SMOOTH"
);
}
);
width = 598;
},
{
anchors = (
{
name = bottom;
position = "{344, 0}";
},
{
name = top;
position = "{265, 625}";
}
);
layerId = "05D38584-429E-4AAF-9BEA-6CB44526FD1C";
leftMetricsKey = "=B";
paths = (
{
closed = 1;
nodes = (
"81 0 OFFCURVE",
"122 2 OFFCURVE",
"166 2 CURVE SMOOTH",
"211 2 OFFCURVE",
"248 0 OFFCURVE",
"278 0 CURVE SMOOTH",
"284 0 OFFCURVE",
"284 12 OFFCURVE",
"278 12 CURVE SMOOTH",
"233 12 OFFCURVE",
"222 23 OFFCURVE",
"222 81 CURVE SMOOTH",
"222 320 LINE",
"234 319 OFFCURVE",
"250 318 OFFCURVE",
"262 318 CURVE SMOOTH",
"381 318 OFFCURVE",
"481 404 OFFCURVE",
"482 503 CURVE SMOOTH",
"483 580 OFFCURVE",
"418 628 OFFCURVE",
"282 628 CURVE SMOOTH",
"251 628 OFFCURVE",
"200 622 OFFCURVE",
"166 622 CURVE SMOOTH",
"124 622 OFFCURVE",
"84 625 OFFCURVE",
"54 625 CURVE SMOOTH",
"48 625 OFFCURVE",
"48 613 OFFCURVE",
"54 613 CURVE SMOOTH",
"99 613 OFFCURVE",
"112 601 OFFCURVE",
"112 544 CURVE SMOOTH",
"113 81 LINE SMOOTH",
"115 23 OFFCURVE",
"104 12 OFFCURVE",
"49 12 CURVE SMOOTH",
"44 12 OFFCURVE",
"44 0 OFFCURVE",
"50 0 CURVE SMOOTH"
);
},
{
closed = 1;
nodes = (
"458 0 OFFCURVE",
"520 0 OFFCURVE",
"594 0 CURVE SMOOTH",
"599 0 OFFCURVE",
"599 12 OFFCURVE",
"594 12 CURVE SMOOTH",
"532 12 OFFCURVE",
"490 71 OFFCURVE",
"375 360 CURVE",
"290 333 LINE",
"358 127 OFFCURVE",
"426 0 OFFCURVE",
"436 0 CURVE SMOOTH"
);
},
{
closed = 1;
nodes = (
"262 346 OFFCURVE",
"239 347 OFFCURVE",
"221 350 CURVE",
"222 542 LINE SMOOTH",
"225 601 OFFCURVE",
"229 608 OFFCURVE",
"274 608 CURVE SMOOTH",
"320 608 OFFCURVE",
"370 572 OFFCURVE",
"370 469 CURVE SMOOTH",
"370 386 OFFCURVE",
"349 346 OFFCURVE",
"277 346 CURVE SMOOTH"
);
}
);
width = 591;
}
);
leftMetricsKey = H;
rightKerningGroup = R.short;
},
{
color = 3;
glyphname = Y.ss01;
layers = (
{
anchors = (
{
name = bottom;
position = "{306, 0}";
},
{
name = top;
position = "{292, 625}";
}
);
layerId = "899E7F5F-806C-4D81-B34A-222CEA57032B";
paths = (
{
closed = 1;
nodes = (
"419 636 OFFCURVE",
"326 450 OFFCURVE",
"308 201 CURVE",
"318 195 LINE",
"298 451 OFFCURVE",
"222 636 OFFCURVE",
"92 636 CURVE SMOOTH",
"56 636 OFFCURVE",
"16 622 OFFCURVE",
"-28 593 CURVE SMOOTH",
"-33 589 OFFCURVE",
"-25 581 OFFCURVE",
"-21 584 CURVE SMOOTH",
"-1 595 OFFCURVE",
"14 601 OFFCURVE",
"50 601 CURVE SMOOTH",
"158 601 OFFCURVE",
"261 478 OFFCURVE",
"269 81 CURVE SMOOTH",
"271 23 OFFCURVE",
"251 12 OFFCURVE",
"172 12 CURVE SMOOTH",
"166 12 OFFCURVE",
"167 0 OFFCURVE",
"172 0 CURVE SMOOTH",
"206 0 OFFCURVE",
"248 2 OFFCURVE",
"295 2 CURVE SMOOTH",
"344 2 OFFCURVE",
"385 0 OFFCURVE",
"418 0 CURVE SMOOTH",
"423 0 OFFCURVE",
"422 12 OFFCURVE",
"418 12 CURVE SMOOTH",
"332 12 OFFCURVE",
"323 23 OFFCURVE",
"323 81 CURVE SMOOTH",
"320 269 OFFCURVE",
"368 588 OFFCURVE",
"522 588 CURVE SMOOTH",
"543 588 OFFCURVE",
"550 582 OFFCURVE",
"561 582 CURVE SMOOTH",
"573 582 OFFCURVE",
"584 589 OFFCURVE",
"584 602 CURVE",
"582 621 OFFCURVE",
"558 636 OFFCURVE",
"526 636 CURVE SMOOTH"
);
}
);
width = 588;
},
{
anchors = (
{
name = bottom;
position = "{319, 0}";
},
{
name = top;
position = "{326, 625}";
}
);
layerId = "05D38584-429E-4AAF-9BEA-6CB44526FD1C";
paths = (
{
closed = 1;
nodes = (
"435 636 OFFCURVE",
"357 474 OFFCURVE",
"339 254 CURVE",
"354 251 LINE",
"332 478 OFFCURVE",
"251 636 OFFCURVE",
"97 636 CURVE SMOOTH",
"46 636 OFFCURVE",
"8 619 OFFCURVE",
"-42 581 CURVE SMOOTH",
"-46 578 OFFCURVE",
"-36 568 OFFCURVE",
"-33 571 CURVE SMOOTH",
"-15 586 OFFCURVE",
"8 592 OFFCURVE",
"35 592 CURVE SMOOTH",
"181 592 OFFCURVE",
"247 425 OFFCURVE",
"254 81 CURVE SMOOTH",
"255 23 OFFCURVE",
"240 12 OFFCURVE",
"172 12 CURVE SMOOTH",
"166 12 OFFCURVE",
"167 0 OFFCURVE",
"172 0 CURVE SMOOTH",
"209 0 OFFCURVE",
"258 2 OFFCURVE",
"310 2 CURVE SMOOTH",
"370 2 OFFCURVE",
"415 0 OFFCURVE",
"456 0 CURVE SMOOTH",
"462 0 OFFCURVE",
"461 12 OFFCURVE",
"456 12 CURVE SMOOTH",
"372 12 OFFCURVE",
"366 28 OFFCURVE",
"364 87 CURVE SMOOTH",
"356 275 OFFCURVE",
"400 556 OFFCURVE",
"488 556 CURVE SMOOTH",
"516 556 OFFCURVE",
"530 524 OFFCURVE",
"574 524 CURVE SMOOTH",
"608 524 OFFCURVE",
"628 540 OFFCURVE",
"628 574 CURVE SMOOTH",
"627 615 OFFCURVE",
"578 636 OFFCURVE",
"542 636 CURVE SMOOTH"
);
}
);
width = 614;
}
);
leftKerningGroup = Y;
rightKerningGroup = Y;
},
{
color = 3;
glyphname = Q.long.ss01;
layers = (
{
layerId = "899E7F5F-806C-4D81-B34A-222CEA57032B";
paths = (
{
closed = 1;
nodes = (
"413 -174 OFFCURVE",
"662 67 OFFCURVE",
"662 317 CURVE SMOOTH",
"662 487 OFFCURVE",
"547 636 OFFCURVE",
"364 636 CURVE SMOOTH",
"193 636 OFFCURVE",
"49 506 OFFCURVE",
"49 331 CURVE SMOOTH",
"49 165 OFFCURVE",
"178 39 OFFCURVE",
"331 39 CURVE SMOOTH",
"366 39 OFFCURVE",
"407 46 OFFCURVE",
"440 61 CURVE SMOOTH",
"446 63 OFFCURVE",
"439 73 OFFCURVE",
"435 70 CURVE SMOOTH",
"416 62 OFFCURVE",
"382 57 OFFCURVE",
"360 57 CURVE SMOOTH",
"222 57 OFFCURVE",
"96 186 OFFCURVE",
"96 354 CURVE SMOOTH",
"96 508 OFFCURVE",
"181 612 OFFCURVE",
"322 612 CURVE SMOOTH",
"487 612 OFFCURVE",
"612 468 OFFCURVE",
"612 290 CURVE SMOOTH",
"612 56 OFFCURVE",
"392 -159 OFFCURVE",
"212 -159 CURVE SMOOTH",
"172 -159 OFFCURVE",
"132 -149 OFFCURVE",
"132 -122 CURVE SMOOTH",
"132 -92 OFFCURVE",
"181 -85 OFFCURVE",
"240 -85 CURVE SMOOTH",
"277 -85 OFFCURVE",
"315 -89 OFFCURVE",
"354 -95 CURVE",
"371 -54 LINE",
"345 -50 OFFCURVE",
"318 -48 OFFCURVE",
"290 -48 CURVE SMOOTH",
"186 -48 OFFCURVE",
"109 -64 OFFCURVE",
"109 -118 CURVE SMOOTH",
"109 -159 OFFCURVE",
"154 -174 OFFCURVE",
"206 -174 CURVE SMOOTH"
);
},
{
closed = 1;
nodes = (
"1152 -241 OFFCURVE",
"1199 -220 OFFCURVE",
"1239 -184 CURVE SMOOTH",
"1243 -180 OFFCURVE",
"1235 -172 OFFCURVE",
"1230 -175 CURVE SMOOTH",
"1206 -192 OFFCURVE",
"1184 -201 OFFCURVE",
"1127 -201 CURVE SMOOTH",
"874 -201 OFFCURVE",
"587 -81 OFFCURVE",
"371 -54 CURVE",
"354 -95 LINE",
"585 -129 OFFCURVE",
"875 -241 OFFCURVE",
"1078 -241 CURVE SMOOTH"
);
}
);
width = 711;
},
{
layerId = "05D38584-429E-4AAF-9BEA-6CB44526FD1C";
paths = (
{
closed = 1;
nodes = (
"441 -179 OFFCURVE",
"695 57 OFFCURVE",
"695 311 CURVE SMOOTH",
"695 488 OFFCURVE",
"572 636 OFFCURVE",
"373 636 CURVE SMOOTH",
"196 636 OFFCURVE",
"36 519 OFFCURVE",
"36 325 CURVE SMOOTH",
"36 152 OFFCURVE",
"165 39 OFFCURVE",
"354 39 CURVE SMOOTH",
"389 39 OFFCURVE",
"430 46 OFFCURVE",
"463 61 CURVE SMOOTH",
"469 63 OFFCURVE",
"457 78 OFFCURVE",
"454 76 CURVE SMOOTH",
"435 68 OFFCURVE",
"404 63 OFFCURVE",
"381 63 CURVE SMOOTH",
"240 63 OFFCURVE",
"139 192 OFFCURVE",
"139 368 CURVE SMOOTH",
"139 533 OFFCURVE",
"227 609 OFFCURVE",
"331 609 CURVE SMOOTH",
"474 609 OFFCURVE",
"588 465 OFFCURVE",
"588 273 CURVE SMOOTH",
"588 25 OFFCURVE",
"399 -159 OFFCURVE",
"230 -159 CURVE SMOOTH",
"184 -159 OFFCURVE",
"160 -145 OFFCURVE",
"157 -127 CURVE SMOOTH",
"152 -103 OFFCURVE",
"191 -97 OFFCURVE",
"227 -97 CURVE SMOOTH",
"264 -97 OFFCURVE",
"302 -101 OFFCURVE",
"342 -106 CURVE",
"420 -54 LINE",
"394 -50 OFFCURVE",
"367 -48 OFFCURVE",
"298 -48 CURVE SMOOTH",
"215 -48 OFFCURVE",
"116 -68 OFFCURVE",
"127 -127 CURVE SMOOTH",
"135 -158 OFFCURVE",
"164 -179 OFFCURVE",
"232 -179 CURVE SMOOTH"
);
},
{
closed = 1;
nodes = (
"1163 -253 OFFCURVE",
"1222 -223 OFFCURVE",
"1273 -172 CURVE",
"1277 -168 OFFCURVE",
"1268 -160 OFFCURVE",
"1264 -164 CURVE",
"1237 -181 OFFCURVE",
"1220 -189 OFFCURVE",
"1156 -189 CURVE SMOOTH",
"919 -189 OFFCURVE",
"627 -78 OFFCURVE",
"420 -54 CURVE",
"342 -106 LINE",
"570 -140 OFFCURVE",
"865 -253 OFFCURVE",
"1062 -253 CURVE SMOOTH"
);
}
);
width = 731;
}
);
leftKerningGroup = O;
leftMetricsKey = O;
rightKerningGroup = O;
},
{
glyphname = Q.long.ss03;
layers = (
{
components = (
{
name = O;
}
);
layerId = "899E7F5F-806C-4D81-B34A-222CEA57032B";
paths = (
{
closed = 1;
nodes = (
"1163 -187 OFFCURVE",
"1157 -178 OFFCURVE",
"1152 -179 CURVE SMOOTH",
"1123 -186 OFFCURVE",
"1091 -189 OFFCURVE",
"1057 -189 CURVE SMOOTH",
"896 -189 OFFCURVE",
"687 -115 OFFCURVE",
"492 20 CURVE",
"421 7 LINE",
"651 -145 OFFCURVE",
"836 -219 OFFCURVE",
"994 -219 CURVE SMOOTH",
"1053 -219 OFFCURVE",
"1108 -209 OFFCURVE",
"1159 -189 CURVE SMOOTH"
);
}
);
width = 730;
},
{
components = (
{
name = O;
}
);
layerId = "05D38584-429E-4AAF-9BEA-6CB44526FD1C";
paths = (
{
closed = 1;
nodes = (
"1163 -187 OFFCURVE",
"1157 -178 OFFCURVE",
"1152 -179 CURVE SMOOTH",
"1123 -186 OFFCURVE",
"1091 -191 OFFCURVE",
"1056 -191 CURVE SMOOTH",
"899 -191 OFFCURVE",
"697 -113 OFFCURVE",
"505 28 CURVE",
"389 -6 LINE",
"626 -157 OFFCURVE",
"823 -220 OFFCURVE",
"986 -220 CURVE SMOOTH",
"1047 -220 OFFCURVE",
"1104 -209 OFFCURVE",
"1159 -189 CURVE SMOOTH"
);
}
);
width = 735;
}
);
leftKerningGroup = O;
rightKerningGroup = O;
},
{
glyphname = Q.long.ss08;
layers = (
{
components = (
{
name = O;
}
);
layerId = "899E7F5F-806C-4D81-B34A-222CEA57032B";
paths = (
{
closed = 1;
nodes = (
"1083 -264 OFFCURVE",
"1126 -243 OFFCURVE",
"1161 -207 CURVE SMOOTH",
"1166 -204 OFFCURVE",
"1158 -195 OFFCURVE",
"1153 -199 CURVE SMOOTH",
"1132 -215 OFFCURVE",
"1112 -225 OFFCURVE",
"1061 -225 CURVE SMOOTH",
"818 -225 OFFCURVE",
"566 -71 OFFCURVE",
"391 -71 CURVE SMOOTH",
"310 -71 OFFCURVE",
"241 -104 OFFCURVE",
"201 -142 CURVE SMOOTH",
"199 -144 OFFCURVE",
"206 -154 OFFCURVE",
"209 -152 CURVE SMOOTH",
"244 -118 OFFCURVE",
"315 -109 OFFCURVE",
"356 -109 CURVE SMOOTH",
"520 -109 OFFCURVE",
"821 -264 OFFCURVE",
"1016 -264 CURVE SMOOTH"
);
}
);
width = 730;
},
{
components = (
{
name = O;
}
);
layerId = "05D38584-429E-4AAF-9BEA-6CB44526FD1C";
paths = (
{
closed = 1;
nodes = (
"1053 -276 OFFCURVE",
"1118 -249 OFFCURVE",
"1171 -202 CURVE SMOOTH",
"1175 -198 OFFCURVE",
"1164 -187 OFFCURVE",
"1159 -192 CURVE SMOOTH",
"1129 -216 OFFCURVE",
"1105 -225 OFFCURVE",
"1056 -225 CURVE SMOOTH",
"843 -225 OFFCURVE",
"572 -71 OFFCURVE",
"402 -71 CURVE SMOOTH",
"322 -71 OFFCURVE",
"253 -104 OFFCURVE",
"213 -142 CURVE SMOOTH",
"211 -144 OFFCURVE",
"218 -154 OFFCURVE",
"221 -152 CURVE SMOOTH",
"246 -132 OFFCURVE",
"271 -123 OFFCURVE",
"302 -123 CURVE SMOOTH",
"469 -123 OFFCURVE",
"760 -276 OFFCURVE",
"966 -276 CURVE SMOOTH"
);
}
);
width = 735;
}
);
leftKerningGroup = O;
rightKerningGroup = O;
},
{
color = 3;
glyphname = a;
layers = (
{
anchors = (
{
name = bottom;
position = "{246, 0}";
},
{
name = ogonek;
position = "{436, 12}";
},
{
name = top;
position = "{256, 386}";
}
);
layerId = "899E7F5F-806C-4D81-B34A-222CEA57032B";
paths = (
{
closed = 1;
nodes = (
"214 -13 OFFCURVE",
"298 102 OFFCURVE",
"339 246 CURVE",
"325 229 LINE",
"323 65 LINE SMOOTH",
"322 16 OFFCURVE",
"340 -9 OFFCURVE",
"374 -9 CURVE SMOOTH",
"409 -9 OFFCURVE",
"439 19 OFFCURVE",
"477 69 CURVE SMOOTH",
"480 73 OFFCURVE",
"469 81 OFFCURVE",
"465 77 CURVE SMOOTH",
"440 47 OFFCURVE",
"416 28 OFFCURVE",
"398 28 CURVE SMOOTH",
"377 28 OFFCURVE",
"368 48 OFFCURVE",
"368 89 CURVE SMOOTH",
"371 406 LINE SMOOTH",
"371 409 OFFCURVE",
"358 409 OFFCURVE",
"358 406 CURVE SMOOTH",
"357 380 OFFCURVE",
"332 360 OFFCURVE",
"316 357 CURVE",
"364 332 LINE",
"350 380 OFFCURVE",
"304 399 OFFCURVE",
"264 399 CURVE SMOOTH",
"149 399 OFFCURVE",
"37 240 OFFCURVE",
"37 97 CURVE SMOOTH",
"37 14 OFFCURVE",
"75 -13 OFFCURVE",
"120 -13 CURVE SMOOTH"
);
},
{
closed = 1;
nodes = (
"103 30 OFFCURVE",
"83 63 OFFCURVE",
"83 133 CURVE SMOOTH",
"83 268 OFFCURVE",
"156 364 OFFCURVE",
"237 367 CURVE SMOOTH",
"284 370 OFFCURVE",
"320 337 OFFCURVE",
"320 290 CURVE SMOOTH",
"320 182 OFFCURVE",
"237 30 OFFCURVE",
"146 30 CURVE SMOOTH"
);
}
);
width = 463;
},
{
anchors = (
{
name = bottom;
position = "{256, 0}";
},
{
name = ogonek;
position = "{444, 12}";
},
{
name = top;
position = "{264, 386}";
}
);
layerId = "05D38584-429E-4AAF-9BEA-6CB44526FD1C";
paths = (
{
closed = 1;
nodes = (
"214 -13 OFFCURVE",
"304 82 OFFCURVE",
"325 246 CURVE",
"305 229 LINE SMOOTH",
"305 89 LINE SMOOTH",
"305 21 OFFCURVE",
"329 -9 OFFCURVE",
"377 -9 CURVE SMOOTH",
"414 -9 OFFCURVE",
"448 19 OFFCURVE",
"484 69 CURVE SMOOTH",
"487 73 OFFCURVE",
"477 81 OFFCURVE",
"473 77 CURVE SMOOTH",
"455 56 OFFCURVE",
"435 42 OFFCURVE",
"421 42 CURVE SMOOTH",
"407 42 OFFCURVE",
"398 57 OFFCURVE",
"400 89 CURVE SMOOTH",
"402 404 LINE SMOOTH",
"404 407 OFFCURVE",
"391 411 OFFCURVE",
"389 407 CURVE SMOOTH",
"375 380 OFFCURVE",
"349 360 OFFCURVE",
"324 357 CURVE",
"396 324 LINE",
"381 377 OFFCURVE",
"320 399 OFFCURVE",
"277 399 CURVE SMOOTH",
"153 399 OFFCURVE",
"28 226 OFFCURVE",
"33 91 CURVE SMOOTH",
"35 18 OFFCURVE",
"75 -13 OFFCURVE",
"125 -13 CURVE SMOOTH"
);
},
{
closed = 1;
nodes = (
"149 60 OFFCURVE",
"122 88 OFFCURVE",
"120 172 CURVE SMOOTH",
"120 275 OFFCURVE",
"160 350 OFFCURVE",
"229 350 CURVE SMOOTH",
"277 350 OFFCURVE",
"306 313 OFFCURVE",
"305 253 CURVE SMOOTH",
"304 178 OFFCURVE",
"251 60 OFFCURVE",
"182 60 CURVE SMOOTH"
);
}
);
width = 477;
}
);
leftKerningGroup = a;
rightKerningGroup = a;
rightMetricsKey = n;
unicode = 0061;
},
{
color = 3;
glyphname = aogonek;
layers = (
{
anchors = (
{
name = bottom;
position = "{173, 0}";
},
{
name = ogonek;
position = "{436, 12}";
},
{
name = top;
position = "{256, 386}";
}
);
layerId = "899E7F5F-806C-4D81-B34A-222CEA57032B";
paths = (
{
closed = 1;
nodes = (
"418 -275 OFFCURVE",
"449 -262 OFFCURVE",
"483 -230 CURVE SMOOTH",
"485 -227 OFFCURVE",
"477 -219 OFFCURVE",
"473 -221 CURVE SMOOTH",
"457 -234 OFFCURVE",
"442 -248 OFFCURVE",
"409 -248 CURVE SMOOTH",
"353 -248 OFFCURVE",
"324 -207 OFFCURVE",
"324 -157 CURVE SMOOTH",
"324 -71 OFFCURVE",
"409 -8 OFFCURVE",
"477 69 CURVE SMOOTH",
"480 73 OFFCURVE",
"469 81 OFFCURVE",
"465 77 CURVE SMOOTH",
"440 47 OFFCURVE",
"416 28 OFFCURVE",
"400 28 CURVE SMOOTH",
"380 28 OFFCURVE",
"368 41 OFFCURVE",
"368 89 CURVE SMOOTH",
"371 407 LINE SMOOTH",
"371 411 OFFCURVE",
"358 411 OFFCURVE",
"358 407 CURVE SMOOTH",
"357 393 OFFCURVE",
"351 380 OFFCURVE",
"340 371 CURVE",
"319 391 OFFCURVE",
"291 399 OFFCURVE",
"264 399 CURVE SMOOTH",
"149 399 OFFCURVE",
"33 237 OFFCURVE",
"37 91 CURVE SMOOTH",
"42 16 OFFCURVE",
"75 -13 OFFCURVE",
"122 -13 CURVE SMOOTH",
"201 -13 OFFCURVE",
"277 75 OFFCURVE",
"320 199 CURVE",
"323 58 LINE SMOOTH",
"323 15 OFFCURVE",
"344 -9 OFFCURVE",
"368 -9 CURVE SMOOTH",
"381 -9 OFFCURVE",
"389 -6 OFFCURVE",
"398 -1 CURVE",
"413 21 LINE",
"357 -33 OFFCURVE",
"282 -111 OFFCURVE",
"282 -181 CURVE SMOOTH",
"282 -232 OFFCURVE",
"320 -275 OFFCURVE",
"382 -275 CURVE SMOOTH"
);
},
{
closed = 1;
nodes = (
"104 30 OFFCURVE",
"84 64 OFFCURVE",
"83 127 CURVE SMOOTH",
"80 262 OFFCURVE",
"157 365 OFFCURVE",
"237 367 CURVE SMOOTH",
"294 368 OFFCURVE",
"324 329 OFFCURVE",
"320 283 CURVE SMOOTH",
"316 165 OFFCURVE",
"230 30 OFFCURVE",
"146 30 CURVE SMOOTH"
);
}
);
width = 469;
},
{
anchors = (
{
name = bottom;
position = "{181, 0}";
},
{
name = ogonek;
position = "{444, 12}";
},
{
name = top;
position = "{264, 386}";
}
);
layerId = "05D38584-429E-4AAF-9BEA-6CB44526FD1C";
paths = (
{
closed = 1;
nodes = (
"408 -275 OFFCURVE",
"457 -254 OFFCURVE",
"485 -207 CURVE SMOOTH",
"490 -204 OFFCURVE",
"481 -195 OFFCURVE",
"477 -198 CURVE SMOOTH",
"467 -209 OFFCURVE",
"454 -222 OFFCURVE",
"429 -222 CURVE SMOOTH",
"387 -222 OFFCURVE",
"363 -191 OFFCURVE",
"363 -144 CURVE SMOOTH",
"363 -74 OFFCURVE",
"386 -33 OFFCURVE",
"484 69 CURVE SMOOTH",
"487 73 OFFCURVE",
"477 81 OFFCURVE",
"473 77 CURVE SMOOTH",
"455 56 OFFCURVE",
"435 42 OFFCURVE",
"421 42 CURVE SMOOTH",
"407 42 OFFCURVE",
"398 57 OFFCURVE",
"400 89 CURVE SMOOTH",
"402 404 LINE SMOOTH",
"404 407 OFFCURVE",
"391 411 OFFCURVE",
"389 407 CURVE SMOOTH",
"382 394 OFFCURVE",
"371 382 OFFCURVE",
"361 374 CURVE",
"343 386 OFFCURVE",
"311 399 OFFCURVE",
"277 399 CURVE SMOOTH",
"153 399 OFFCURVE",
"28 226 OFFCURVE",
"33 91 CURVE SMOOTH",
"35 18 OFFCURVE",
"75 -13 OFFCURVE",
"125 -13 CURVE SMOOTH",
"196 -13 OFFCURVE",
"267 46 OFFCURVE",
"304 152 CURVE",
"305 89 LINE SMOOTH",
"305 21 OFFCURVE",
"329 -9 OFFCURVE",
"377 -9 CURVE SMOOTH",
"389 -9 OFFCURVE",
"396 -6 OFFCURVE",
"406 -1 CURVE",
"420 21 LINE",
"329 -42 OFFCURVE",
"271 -129 OFFCURVE",
"271 -192 CURVE SMOOTH",
"271 -247 OFFCURVE",
"315 -275 OFFCURVE",
"365 -275 CURVE SMOOTH"
);
},
{
closed = 1;
nodes = (
"149 60 OFFCURVE",
"122 88 OFFCURVE",
"120 172 CURVE SMOOTH",
"120 275 OFFCURVE",
"160 350 OFFCURVE",
"229 350 CURVE SMOOTH",
"277 350 OFFCURVE",
"306 313 OFFCURVE",
"305 253 CURVE SMOOTH",
"304 178 OFFCURVE",
"251 60 OFFCURVE",
"182 60 CURVE SMOOTH"
);
}
);
width = 480;
}
);
leftKerningGroup = a;
leftMetricsKey = a;
rightKerningGroup = a;
rightMetricsKey = a;
unicode = 0105;
},
{
color = 3;
glyphname = ae;
layers = (
{
anchors = (
{
name = top;
position = "{330, 386}";
}
);
layerId = "899E7F5F-806C-4D81-B34A-222CEA57032B";
paths = (
{
closed = 1;
nodes = (
"201 -13 OFFCURVE",
"269 95 OFFCURVE",
"302 246 CURVE",
"310 275 OFFCURVE",
"316 303 OFFCURVE",
"325 332 CURVE",
"312 380 OFFCURVE",
"274 399 OFFCURVE",
"239 399 CURVE SMOOTH",
"133 399 OFFCURVE",
"37 241 OFFCURVE",
"37 102 CURVE SMOOTH",
"37 14 OFFCURVE",
"75 -13 OFFCURVE",
"117 -13 CURVE SMOOTH"
);
},
{
closed = 1;
nodes = (
"103 30 OFFCURVE",
"83 64 OFFCURVE",
"83 139 CURVE SMOOTH",
"83 268 OFFCURVE",
"140 365 OFFCURVE",
"212 367 CURVE SMOOTH",
"258 368 OFFCURVE",
"283 329 OFFCURVE",
"283 271 CURVE SMOOTH",
"283 165 OFFCURVE",
"219 30 OFFCURVE",
"142 30 CURVE SMOOTH"
);
},
{
closed = 1;
nodes = (
"475 -12 OFFCURVE",
"512 4 OFFCURVE",
"551 44 CURVE SMOOTH",
"554 48 OFFCURVE",
"545 57 OFFCURVE",
"542 54 CURVE SMOOTH",
"517 28 OFFCURVE",
"489 16 OFFCURVE",
"450 16 CURVE SMOOTH",
"365 16 OFFCURVE",
"332 129 OFFCURVE",
"332 230 CURVE SMOOTH",
"332 319 OFFCURVE",
"371 380 OFFCURVE",
"429 380 CURVE SMOOTH",
"473 380 OFFCURVE",
"485 344 OFFCURVE",
"485 323 CURVE SMOOTH",
"484 270 OFFCURVE",
"384 240 OFFCURVE",
"315 220 CURVE",
"316 208 LINE",
"491 255 OFFCURVE",
"542 292 OFFCURVE",
"542 337 CURVE SMOOTH",
"542 365 OFFCURVE",
"522 399 OFFCURVE",
"461 399 CURVE SMOOTH",
"402 399 OFFCURVE",
"342 367 OFFCURVE",
"303 305 CURVE",
"282 211 LINE",
"278 74 OFFCURVE",
"333 -12 OFFCURVE",
"428 -12 CURVE SMOOTH"
);
}
);
width = 570;
},
{
anchors = (
{
name = top;
position = "{364, 386}";
}
);
layerId = "05D38584-429E-4AAF-9BEA-6CB44526FD1C";
paths = (
{
closed = 1;
nodes = (
"223 -13 OFFCURVE",
"298 97 OFFCURVE",
"331 246 CURVE",
"346 281 OFFCURVE",
"366 315 OFFCURVE",
"380 350 CURVE",
"367 385 OFFCURVE",
"323 399 OFFCURVE",
"281 399 CURVE SMOOTH",
"132 399 OFFCURVE",
"28 219 OFFCURVE",
"33 91 CURVE SMOOTH",
"35 26 OFFCURVE",
"76 -13 OFFCURVE",
"131 -13 CURVE SMOOTH"
);
},
{
closed = 1;
nodes = (
"163 65 OFFCURVE",
"127 81 OFFCURVE",
"126 171 CURVE SMOOTH",
"126 282 OFFCURVE",
"177 365 OFFCURVE",
"233 367 CURVE SMOOTH",
"277 368 OFFCURVE",
"311 317 OFFCURVE",
"310 254 CURVE SMOOTH",
"308 175 OFFCURVE",
"234 65 OFFCURVE",
"186 65 CURVE SMOOTH"
);
},
{
closed = 1;
nodes = (
"520 -12 OFFCURVE",
"567 7 OFFCURVE",
"615 56 CURVE SMOOTH",
"619 60 OFFCURVE",
"608 68 OFFCURVE",
"604 64 CURVE SMOOTH",
"581 44 OFFCURVE",
"556 35 OFFCURVE",
"530 35 CURVE SMOOTH",
"465 35 OFFCURVE",
"411 96 OFFCURVE",
"405 215 CURVE SMOOTH",
"400 308 OFFCURVE",
"428 373 OFFCURVE",
"477 373 CURVE SMOOTH",
"508 373 OFFCURVE",
"519 345 OFFCURVE",
"519 323 CURVE SMOOTH",
"522 258 OFFCURVE",
"429 221 OFFCURVE",
"365 196 CURVE",
"366 185 LINE",
"578 248 OFFCURVE",
"626 294 OFFCURVE",
"625 338 CURVE SMOOTH",
"625 373 OFFCURVE",
"599 399 OFFCURVE",
"526 399 CURVE SMOOTH",
"446 399 OFFCURVE",
"379 367 OFFCURVE",
"337 305 CURVE",
"316 211 LINE",
"308 77 OFFCURVE",
"361 -12 OFFCURVE",
"470 -12 CURVE SMOOTH"
);
}
);
width = 636;
}
);
leftKerningGroup = a;
leftMetricsKey = a;
rightKerningGroup = c;
rightMetricsKey = e;
unicode = 00E6;
},
{
color = 3;
glyphname = b;
layers = (
{
layerId = "899E7F5F-806C-4D81-B34A-222CEA57032B";
paths = (
{
closed = 1;
nodes = (
"292 -13 OFFCURVE",
"432 78 OFFCURVE",
"432 251 CURVE SMOOTH",
"432 337 OFFCURVE",
"387 399 OFFCURVE",
"318 399 CURVE SMOOTH",
"202 399 OFFCURVE",
"110 269 OFFCURVE",
"112 116 CURVE",
"123 96 LINE",
"124 253 OFFCURVE",
"191 359 OFFCURVE",
"285 359 CURVE SMOOTH",
"353 359 OFFCURVE",
"377 296 OFFCURVE",
"377 220 CURVE SMOOTH",
"377 88 OFFCURVE",
"306 12 OFFCURVE",
"235 12 CURVE SMOOTH",
"170 12 OFFCURVE",
"123 47 OFFCURVE",
"123 96 CURVE SMOOTH",
"126 717 LINE",
"126 720 OFFCURVE",
"118 727 OFFCURVE",
"113 725 CURVE SMOOTH",
"-9 665 LINE SMOOTH",
"-15 663 OFFCURVE",
"-9 651 OFFCURVE",
"-5 654 CURVE SMOOTH",
"57 684 OFFCURVE",
"82 670 OFFCURVE",
"82 627 CURVE SMOOTH",
"74 75 LINE SMOOTH",
"73 20 OFFCURVE",
"123 -13 OFFCURVE",
"194 -13 CURVE SMOOTH"
);
}
);
width = 462;
},
{
layerId = "05D38584-429E-4AAF-9BEA-6CB44526FD1C";
paths = (
{
closed = 1;
nodes = (
"308 -13 OFFCURVE",
"457 78 OFFCURVE",
"457 251 CURVE SMOOTH",
"456 338 OFFCURVE",
"411 399 OFFCURVE",
"342 399 CURVE SMOOTH",
"225 399 OFFCURVE",
"138 269 OFFCURVE",
"143 116 CURVE",
"158 96 LINE",
"157 236 OFFCURVE",
"212 332 OFFCURVE",
"291 332 CURVE SMOOTH",
"337 332 OFFCURVE",
"358 282 OFFCURVE",
"356 220 CURVE SMOOTH",
"359 90 OFFCURVE",
"304 15 OFFCURVE",
"239 15 CURVE SMOOTH",
"195 15 OFFCURVE",
"158 49 OFFCURVE",
"158 96 CURVE SMOOTH",
"158 717 LINE SMOOTH",
"158 720 OFFCURVE",
"149 727 OFFCURVE",
"144 725 CURVE SMOOTH",
"-14 649 LINE SMOOTH",
"-19 647 OFFCURVE",
"-15 635 OFFCURVE",
"-8 637 CURVE SMOOTH",
"47 663 OFFCURVE",
"68 653 OFFCURVE",
"67 589 CURVE SMOOTH",
"63 87 LINE SMOOTH",
"62 26 OFFCURVE",
"117 -13 OFFCURVE",
"204 -13 CURVE SMOOTH"
);
}
);
width = 485;
}
);
leftKerningGroup = l;
rightKerningGroup = o;
rightMetricsKey = "=|d";
unicode = 0062;
},
{
color = 3;
glyphname = c;
layers = (
{
anchors = (
{
name = bottom;
position = "{196, 0}";
},
{
name = top;
position = "{202, 386}";
}
);
layerId = "899E7F5F-806C-4D81-B34A-222CEA57032B";
paths = (
{
closed = 1;
nodes = (
"248 -13 OFFCURVE",
"298 2 OFFCURVE",
"344 37 CURVE SMOOTH",
"347 41 OFFCURVE",
"338 50 OFFCURVE",
"335 47 CURVE SMOOTH",
"310 33 OFFCURVE",
"281 18 OFFCURVE",
"240 18 CURVE SMOOTH",
"131 18 OFFCURVE",
"81 119 OFFCURVE",
"83 220 CURVE SMOOTH",
"84 301 OFFCURVE",
"112 379 OFFCURVE",
"192 379 CURVE SMOOTH",
"236 379 OFFCURVE",
"254 356 OFFCURVE",
"263 342 CURVE SMOOTH",
"273 326 OFFCURVE",
"284 313 OFFCURVE",
"304 313 CURVE SMOOTH",
"324 313 OFFCURVE",
"331 327 OFFCURVE",
"330 342 CURVE SMOOTH",
"326 377 OFFCURVE",
"276 399 OFFCURVE",
"225 399 CURVE SMOOTH",
"132 399 OFFCURVE",
"32 325 OFFCURVE",
"32 186 CURVE SMOOTH",
"32 99 OFFCURVE",
"81 -13 OFFCURVE",
"205 -13 CURVE SMOOTH"
);
}
);
width = 353;
},
{
anchors = (
{
name = bottom;
position = "{204, 0}";
},
{
name = top;
position = "{211, 386}";
}
);
layerId = "05D38584-429E-4AAF-9BEA-6CB44526FD1C";
paths = (
{
closed = 1;
nodes = (
"265 -13 OFFCURVE",
"316 1 OFFCURVE",
"360 50 CURVE SMOOTH",
"363 54 OFFCURVE",
"354 62 OFFCURVE",
"351 60 CURVE SMOOTH",
"331 44 OFFCURVE",
"301 36 OFFCURVE",
"269 36 CURVE SMOOTH",
"171 36 OFFCURVE",
"123 126 OFFCURVE",
"122 237 CURVE SMOOTH",
"120 317 OFFCURVE",
"146 371 OFFCURVE",
"191 371 CURVE SMOOTH",
"218 371 OFFCURVE",
"229 352 OFFCURVE",
"239 332 CURVE SMOOTH",
"249 310 OFFCURVE",
"262 287 OFFCURVE",
"302 287 CURVE SMOOTH",
"337 287 OFFCURVE",
"353 305 OFFCURVE",
"351 332 CURVE SMOOTH",
"345 380 OFFCURVE",
"284 399 OFFCURVE",
"234 399 CURVE SMOOTH",
"133 399 OFFCURVE",
"29 312 OFFCURVE",
"27 202 CURVE SMOOTH",
"22 99 OFFCURVE",
"80 -13 OFFCURVE",
"212 -13 CURVE SMOOTH"
);
}
);
width = 372;
}
);
leftKerningGroup = o;
leftMetricsKey = o;
rightKerningGroup = c;
unicode = 0063;
},
{
color = 3;
glyphname = d;
layers = (
{
anchors = (
{
name = bottom;
position = "{264, 0}";
},
{
name = center;
position = "{200, 193}";
},
{
name = top;
position = "{239, 386}";
},
{
name = topright;
position = "{418, 386}";
}
);
layerId = "899E7F5F-806C-4D81-B34A-222CEA57032B";
paths = (
{
closed = 1;
nodes = (
"421 -9 OFFCURVE",
"450 19 OFFCURVE",
"489 69 CURVE SMOOTH",
"491 73 OFFCURVE",
"481 81 OFFCURVE",
"477 77 CURVE SMOOTH",
"451 47 OFFCURVE",
"428 28 OFFCURVE",
"409 28 CURVE SMOOTH",
"388 28 OFFCURVE",
"380 48 OFFCURVE",
"380 89 CURVE SMOOTH",
"387 717 LINE SMOOTH",
"387 720 OFFCURVE",
"378 727 OFFCURVE",
"374 725 CURVE SMOOTH",
"250 665 LINE SMOOTH",
"243 662 OFFCURVE",
"249 650 OFFCURVE",
"256 654 CURVE SMOOTH",
"317 684 OFFCURVE",
"343 670 OFFCURVE",
"342 627 CURVE SMOOTH",
"333 65 LINE SMOOTH",
"332 18 OFFCURVE",
"352 -9 OFFCURVE",
"386 -9 CURVE SMOOTH"
);
},
{
closed = 1;
nodes = (
"242 -13 OFFCURVE",
"312 96 OFFCURVE",
"351 246 CURVE",
"378 332 LINE",
"364 380 OFFCURVE",
"320 399 OFFCURVE",
"274 399 CURVE SMOOTH",
"153 399 OFFCURVE",
"37 274 OFFCURVE",
"37 129 CURVE SMOOTH",
"37 26 OFFCURVE",
"95 -13 OFFCURVE",
"150 -13 CURVE SMOOTH"
);
},
{
closed = 1;
nodes = (
"122 30 OFFCURVE",
"83 71 OFFCURVE",
"83 164 CURVE SMOOTH",
"83 294 OFFCURVE",
"158 367 OFFCURVE",
"249 367 CURVE SMOOTH",
"308 367 OFFCURVE",
"336 337 OFFCURVE",
"336 283 CURVE SMOOTH",
"336 199 OFFCURVE",
"273 30 OFFCURVE",
"172 30 CURVE SMOOTH"
);
}
);
width = 476;
},
{
anchors = (
{
name = bottom;
position = "{268, 0}";
},
{
name = center;
position = "{208, 193}";
},
{
name = top;
position = "{242, 386}";
},
{
name = topright;
position = "{426, 386}";
}
);
layerId = "05D38584-429E-4AAF-9BEA-6CB44526FD1C";
paths = (
{
closed = 1;
nodes = (
"432 -9 OFFCURVE",
"461 19 OFFCURVE",
"498 69 CURVE SMOOTH",
"502 74 OFFCURVE",
"492 83 OFFCURVE",
"487 77 CURVE SMOOTH",
"468 57 OFFCURVE",
"453 42 OFFCURVE",
"436 42 CURVE SMOOTH",
"423 42 OFFCURVE",
"413 51 OFFCURVE",
"414 89 CURVE SMOOTH",
"415 717 LINE SMOOTH",
"415 720 OFFCURVE",
"406 727 OFFCURVE",
"401 725 CURVE SMOOTH",
"243 649 LINE SMOOTH",
"239 647 OFFCURVE",
"244 635 OFFCURVE",
"250 637 CURVE SMOOTH",
"305 663 OFFCURVE",
"325 653 OFFCURVE",
"324 589 CURVE SMOOTH",
"320 89 LINE SMOOTH",
"319 25 OFFCURVE",
"339 -9 OFFCURVE",
"388 -9 CURVE SMOOTH"
);
},
{
closed = 1;
nodes = (
"250 -13 OFFCURVE",
"313 102 OFFCURVE",
"346 246 CURVE",
"385 332 LINE",
"372 378 OFFCURVE",
"326 399 OFFCURVE",
"277 399 CURVE SMOOTH",
"158 399 OFFCURVE",
"33 269 OFFCURVE",
"33 125 CURVE SMOOTH",
"33 25 OFFCURVE",
"95 -13 OFFCURVE",
"151 -13 CURVE SMOOTH"
);
},
{
closed = 1;
nodes = (
"146 57 OFFCURVE",
"122 96 OFFCURVE",
"119 180 CURVE SMOOTH",
"116 284 OFFCURVE",
"151 350 OFFCURVE",
"225 350 CURVE SMOOTH",
"275 350 OFFCURVE",
"323 320 OFFCURVE",
"323 260 CURVE SMOOTH",
"323 191 OFFCURVE",
"277 57 OFFCURVE",
"192 57 CURVE SMOOTH"
);
}
);
width = 484;
}
);
leftKerningGroup = a;
leftMetricsKey = a;
unicode = 0064;
},
{
color = 3;
glyphname = eth;
layers = (
{
anchors = (
{
name = top;
position = "{213, 386}";
}
);
layerId = "899E7F5F-806C-4D81-B34A-222CEA57032B";
paths = (
{
closed = 1;
nodes = (
"311 -13 OFFCURVE",
"401 62 OFFCURVE",
"401 220 CURVE SMOOTH",
"401 413 OFFCURVE",
"267 640 OFFCURVE",
"97 725 CURVE SMOOTH",
"87 730 OFFCURVE",
"48 717 OFFCURVE",
"58 712 CURVE SMOOTH",
"218 632 OFFCURVE",
"353 401 OFFCURVE",
"347 204 CURVE",
"352 333 LINE",
"322 375 OFFCURVE",
"270 399 OFFCURVE",
"222 399 CURVE SMOOTH",
"139 399 OFFCURVE",
"32 331 OFFCURVE",
"32 188 CURVE SMOOTH",
"32 81 OFFCURVE",
"94 -13 OFFCURVE",
"208 -13 CURVE SMOOTH"
);
},
{
closed = 1;
nodes = (
"142 5 OFFCURVE",
"84 102 OFFCURVE",
"84 213 CURVE SMOOTH",
"84 323 OFFCURVE",
"142 381 OFFCURVE",
"211 381 CURVE SMOOTH",
"316 381 OFFCURVE",
"347 316 OFFCURVE",
"347 200 CURVE SMOOTH",
"347 60 OFFCURVE",
"301 5 OFFCURVE",
"233 5 CURVE SMOOTH"
);
},
{
closed = 1;
nodes = (
"364 626 LINE SMOOTH",
"368 628 OFFCURVE",
"359 646 OFFCURVE",
"354 643 CURVE SMOOTH",
"80 513 LINE SMOOTH",
"73 511 OFFCURVE",
"83 494 OFFCURVE",
"87 496 CURVE SMOOTH"
);
}
);
width = 432;
},
{
anchors = (
{
name = top;
position = "{212, 386}";
}
);
layerId = "05D38584-429E-4AAF-9BEA-6CB44526FD1C";
paths = (
{
closed = 1;
nodes = (
"315 -13 OFFCURVE",
"413 63 OFFCURVE",
"413 216 CURVE SMOOTH",
"415 415 OFFCURVE",
"274 640 OFFCURVE",
"95 725 CURVE SMOOTH",
"89 727 OFFCURVE",
"77 716 OFFCURVE",
"83 712 CURVE SMOOTH",
"194 632 OFFCURVE",
"299 401 OFFCURVE",
"308 204 CURVE",
"351 333 LINE",
"320 375 OFFCURVE",
"269 399 OFFCURVE",
"221 399 CURVE SMOOTH",
"133 399 OFFCURVE",
"19 332 OFFCURVE",
"18 186 CURVE SMOOTH",
"15 80 OFFCURVE",
"85 -13 OFFCURVE",
"204 -13 CURVE SMOOTH"
);
},
{
closed = 1;
nodes = (
"173 11 OFFCURVE",
"127 105 OFFCURVE",
"122 215 CURVE SMOOTH",
"117 319 OFFCURVE",
"158 378 OFFCURVE",
"209 378 CURVE SMOOTH",
"275 378 OFFCURVE",
"302 313 OFFCURVE",
"308 204 CURVE SMOOTH",
"315 67 OFFCURVE",
"282 11 OFFCURVE",
"229 11 CURVE SMOOTH"
);
},
{
closed = 1;
nodes = (
"367 625 LINE SMOOTH",
"375 628 OFFCURVE",
"364 651 OFFCURVE",
"357 648 CURVE SMOOTH",
"80 518 LINE SMOOTH",
"71 515 OFFCURVE",
"83 490 OFFCURVE",
"92 495 CURVE SMOOTH"
);
}
);
width = 429;
}
);
leftKerningGroup = oaccent;
leftMetricsKey = "=o";
rightKerningGroup = oaccent;
rightMetricsKey = "=o";
unicode = 00F0;
},
{
glyphname = dcroat;
layers = (
{
components = (
{
name = d;
}
);
layerId = "899E7F5F-806C-4D81-B34A-222CEA57032B";
paths = (
{
closed = 1;
nodes = (
"469 501 LINE SMOOTH",
"475 501 OFFCURVE",
"475 519 OFFCURVE",
"469 519 CURVE SMOOTH",
"182 519 LINE SMOOTH",
"177 519 OFFCURVE",
"177 501 OFFCURVE",
"182 501 CURVE SMOOTH"
);
}
);
width = 476;
},
{
components = (
{
name = d;
}
);
layerId = "05D38584-429E-4AAF-9BEA-6CB44526FD1C";
paths = (
{
closed = 1;
nodes = (
"480 498 LINE SMOOTH",
"485 498 OFFCURVE",
"485 522 OFFCURVE",
"480 522 CURVE SMOOTH",
"193 522 LINE SMOOTH",
"187 522 OFFCURVE",
"187 498 OFFCURVE",
"193 498 CURVE SMOOTH"
);
}
);
width = 484;
}
);
leftKerningGroup = a;
unicode = 0111;
},
{
color = 3;
glyphname = e;
layers = (
{
anchors = (
{
name = bottom;
position = "{216, -12}";
},
{
name = ogonek;
position = "{327, 12}";
},
{
name = top;
position = "{212, 386}";
}
);
layerId = "899E7F5F-806C-4D81-B34A-222CEA57032B";
paths = (
{
closed = 1;
nodes = (
"253 -12 OFFCURVE",
"302 4 OFFCURVE",
"350 44 CURVE",
"353 48 OFFCURVE",
"344 55 OFFCURVE",
"340 53 CURVE",
"308 28 OFFCURVE",
"268 20 OFFCURVE",
"236 20 CURVE SMOOTH",
"138 20 OFFCURVE",
"84 99 OFFCURVE",
"84 215 CURVE SMOOTH",
"84 302 OFFCURVE",
"115 372 OFFCURVE",
"196 372 CURVE SMOOTH",
"234 372 OFFCURVE",
"261 358 OFFCURVE",
"256 324 CURVE SMOOTH",
"249 273 OFFCURVE",
"181 241 OFFCURVE",
"63 226 CURVE",
"63 213 LINE",
"200 228 OFFCURVE",
"315 283 OFFCURVE",
"318 345 CURVE SMOOTH",
"319 378 OFFCURVE",
"290 399 OFFCURVE",
"237 399 CURVE SMOOTH",
"120 399 OFFCURVE",
"32 292 OFFCURVE",
"32 175 CURVE SMOOTH",
"32 81 OFFCURVE",
"89 -12 OFFCURVE",
"206 -12 CURVE SMOOTH"
);
}
);
width = 361;
},
{
anchors = (
{
name = bottom;
position = "{243, 0}";
},
{
name = ogonek;
position = "{320, 12}";
},
{
name = top;
position = "{214, 386}";
}
);
layerId = "05D38584-429E-4AAF-9BEA-6CB44526FD1C";
paths = (
{
closed = 1;
nodes = (
"264 -12 OFFCURVE",
"323 6 OFFCURVE",
"368 55 CURVE SMOOTH",
"371 58 OFFCURVE",
"363 65 OFFCURVE",
"359 63 CURVE SMOOTH",
"331 40 OFFCURVE",
"294 32 OFFCURVE",
"265 32 CURVE SMOOTH",
"174 32 OFFCURVE",
"127 116 OFFCURVE",
"125 218 CURVE SMOOTH",
"124 304 OFFCURVE",
"149 372 OFFCURVE",
"199 372 CURVE SMOOTH",
"226 372 OFFCURVE",
"242 353 OFFCURVE",
"242 324 CURVE SMOOTH",
"246 260 OFFCURVE",
"174 229 OFFCURVE",
"73 214 CURVE",
"73 201 LINE",
"218 215 OFFCURVE",
"356 275 OFFCURVE",
"350 345 CURVE SMOOTH",
"346 379 OFFCURVE",
"311 399 OFFCURVE",
"251 399 CURVE SMOOTH",
"112 399 OFFCURVE",
"27 290 OFFCURVE",
"25 185 CURVE SMOOTH",
"23 87 OFFCURVE",
"83 -12 OFFCURVE",
"211 -12 CURVE SMOOTH"
);
}
);
width = 381;
}
);
leftKerningGroup = o;
leftMetricsKey = o;
rightKerningGroup = c;
unicode = 0065;
},
{
glyphname = eogonek;
layers = (
{
components = (
{
name = e;
}
);
layerId = "899E7F5F-806C-4D81-B34A-222CEA57032B";
paths = (
{
closed = 1;
nodes = (
"298 -275 OFFCURVE",
"327 -262 OFFCURVE",
"358 -230 CURVE SMOOTH",
"360 -227 OFFCURVE",
"352 -219 OFFCURVE",
"349 -221 CURVE SMOOTH",
"335 -234 OFFCURVE",
"320 -248 OFFCURVE",
"291 -248 CURVE SMOOTH",
"237 -248 OFFCURVE",
"212 -207 OFFCURVE",
"213 -154 CURVE SMOOTH",
"215 -98 OFFCURVE",
"247 -53 OFFCURVE",
"350 44 CURVE",
"342 53 LINE",
"212 -53 OFFCURVE",
"175 -119 OFFCURVE",
"175 -179 CURVE SMOOTH",
"175 -237 OFFCURVE",
"212 -275 OFFCURVE",
"267 -275 CURVE SMOOTH"
);
}
);
width = 361;
},
{
components = (
{
name = e;
}
);
layerId = "05D38584-429E-4AAF-9BEA-6CB44526FD1C";
paths = (
{
closed = 1;
nodes = (
"318 -275 OFFCURVE",
"353 -237 OFFCURVE",
"366 -205 CURVE SMOOTH",
"367 -201 OFFCURVE",
"360 -195 OFFCURVE",
"357 -199 CURVE SMOOTH",
"349 -209 OFFCURVE",
"331 -221 OFFCURVE",
"309 -221 CURVE SMOOTH",
"268 -221 OFFCURVE",
"254 -182 OFFCURVE",
"254 -143 CURVE SMOOTH",
"254 -90 OFFCURVE",
"282 -33 OFFCURVE",
"368 55 CURVE",
"360 63 LINE",
"221 -65 OFFCURVE",
"173 -120 OFFCURVE",
"171 -179 CURVE SMOOTH",
"168 -243 OFFCURVE",
"222 -275 OFFCURVE",
"268 -275 CURVE SMOOTH"
);
}
);
width = 381;
}
);
leftKerningGroup = oaccent;
rightKerningGroup = caccent;
unicode = 0119;
},
{
color = 3;
glyphname = schwa;
layers = (
{
anchors = (
{
name = top;
position = "{153, 386}";
}
);
layerId = "899E7F5F-806C-4D81-B34A-222CEA57032B";
rightMetricsKey = "=o";
paths = (
{
closed = 1;
nodes = (
"242 -13 OFFCURVE",
"338 57 OFFCURVE",
"345 191 CURVE SMOOTH",
"352 301 OFFCURVE",
"290 399 OFFCURVE",
"158 399 CURVE SMOOTH",
"97 399 OFFCURVE",
"49 378 OFFCURVE",
"16 342 CURVE SMOOTH",
"12 336 OFFCURVE",
"21 330 OFFCURVE",
"25 333 CURVE SMOOTH",
"53 359 OFFCURVE",
"87 375 OFFCURVE",
"130 375 CURVE SMOOTH",
"233 375 OFFCURVE",
"299 276 OFFCURVE",
"292 160 CURVE SMOOTH",
"288 57 OFFCURVE",
"250 12 OFFCURVE",
"182 12 CURVE SMOOTH",
"131 12 OFFCURVE",
"109 36 OFFCURVE",
"112 62 CURVE SMOOTH",
"119 108 OFFCURVE",
"189 127 OFFCURVE",
"313 152 CURVE",
"310 163 LINE",
"139 129 OFFCURVE",
"58 99 OFFCURVE",
"55 47 CURVE SMOOTH",
"53 12 OFFCURVE",
"82 -13 OFFCURVE",
"140 -13 CURVE SMOOTH"
);
}
);
width = 377;
},
{
anchors = (
{
name = top;
position = "{160, 386}";
}
);
layerId = "05D38584-429E-4AAF-9BEA-6CB44526FD1C";
rightMetricsKey = "=o";
paths = (
{
closed = 1;
nodes = (
"263 -13 OFFCURVE",
"365 60 OFFCURVE",
"365 191 CURVE SMOOTH",
"366 295 OFFCURVE",
"306 399 OFFCURVE",
"170 399 CURVE SMOOTH",
"101 399 OFFCURVE",
"47 375 OFFCURVE",
"9 337 CURVE SMOOTH",
"6 332 OFFCURVE",
"16 324 OFFCURVE",
"20 327 CURVE SMOOTH",
"47 350 OFFCURVE",
"85 364 OFFCURVE",
"123 364 CURVE SMOOTH",
"212 364 OFFCURVE",
"263 280 OFFCURVE",
"267 160 CURVE SMOOTH",
"269 64 OFFCURVE",
"240 12 OFFCURVE",
"191 12 CURVE SMOOTH",
"159 12 OFFCURVE",
"145 34 OFFCURVE",
"145 62 CURVE SMOOTH",
"145 113 OFFCURVE",
"209 138 OFFCURVE",
"317 164 CURVE",
"313 174 LINE",
"132 140 OFFCURVE",
"35 105 OFFCURVE",
"35 47 CURVE SMOOTH",
"35 12 OFFCURVE",
"70 -13 OFFCURVE",
"140 -13 CURVE SMOOTH"
);
}
);
width = 388;
}
);
rightKerningGroup = o;
rightMetricsKey = o;
unicode = 0259;
},
{
color = 3;
glyphname = f;
layers = (
{
layerId = "899E7F5F-806C-4D81-B34A-222CEA57032B";
paths = (
{
closed = 1;
nodes = (
"127 -275 OFFCURVE",
"152 -212 OFFCURVE",
"146 -21 CURVE SMOOTH",
"131 439 LINE SMOOTH",
"124 620 OFFCURVE",
"150 712 OFFCURVE",
"209 712 CURVE SMOOTH",
"256 712 OFFCURVE",
"258 649 OFFCURVE",
"295 649 CURVE SMOOTH",
"311 649 OFFCURVE",
"324 656 OFFCURVE",
"324 675 CURVE SMOOTH",
"324 701 OFFCURVE",
"290 726 OFFCURVE",
"241 726 CURVE SMOOTH",
"115 726 OFFCURVE",
"81 660 OFFCURVE",
"83 418 CURVE SMOOTH",
"83 384 OFFCURVE",
"67 373 OFFCURVE",
"12 373 CURVE SMOOTH",
"8 373 OFFCURVE",
"7 361 OFFCURVE",
"13 361 CURVE SMOOTH",
"77 361 OFFCURVE",
"84 356 OFFCURVE",
"87 306 CURVE SMOOTH",
"98 -47 LINE SMOOTH",
"105 -227 OFFCURVE",
"98 -257 OFFCURVE",
"71 -257 CURVE SMOOTH",
"36 -257 OFFCURVE",
"43 -207 OFFCURVE",
"1 -207 CURVE SMOOTH",
"-21 -207 OFFCURVE",
"-30 -220 OFFCURVE",
"-30 -235 CURVE SMOOTH",
"-30 -255 OFFCURVE",
"-8 -275 OFFCURVE",
"41 -275 CURVE SMOOTH"
);
},
{
closed = 1;
nodes = (
"241 340 OFFCURVE",
"255 363 OFFCURVE",
"256 374 CURVE SMOOTH",
"256 379 OFFCURVE",
"253 382 OFFCURVE",
"247 382 CURVE SMOOTH",
"213 380 OFFCURVE",
"150 375 OFFCURVE",
"104 375 CURVE",
"106 353 LINE",
"152 353 OFFCURVE",
"194 347 OFFCURVE",
"225 343 CURVE SMOOTH"
);
}
);
width = 274;
},
{
layerId = "05D38584-429E-4AAF-9BEA-6CB44526FD1C";
paths = (
{
closed = 1;
nodes = (
"140 -275 OFFCURVE",
"181 -213 OFFCURVE",
"175 -21 CURVE SMOOTH",
"161 439 LINE SMOOTH",
"157 614 OFFCURVE",
"168 705 OFFCURVE",
"216 705 CURVE SMOOTH",
"260 705 OFFCURVE",
"234 627 OFFCURVE",
"311 627 CURVE SMOOTH",
"338 627 OFFCURVE",
"356 641 OFFCURVE",
"356 669 CURVE SMOOTH",
"356 701 OFFCURVE",
"313 726 OFFCURVE",
"248 726 CURVE SMOOTH",
"109 726 OFFCURVE",
"62 661 OFFCURVE",
"68 418 CURVE SMOOTH",
"68 384 OFFCURVE",
"50 375 OFFCURVE",
"4 375 CURVE SMOOTH",
"-1 375 OFFCURVE",
"0 359 OFFCURVE",
"5 359 CURVE SMOOTH",
"62 359 OFFCURVE",
"69 356 OFFCURVE",
"71 306 CURVE SMOOTH",
"83 -47 LINE SMOOTH",
"89 -222 OFFCURVE",
"89 -255 OFFCURVE",
"68 -255 CURVE SMOOTH",
"29 -255 OFFCURVE",
"50 -178 OFFCURVE",
"-20 -178 CURVE SMOOTH",
"-43 -178 OFFCURVE",
"-62 -191 OFFCURVE",
"-62 -218 CURVE SMOOTH",
"-62 -249 OFFCURVE",
"-26 -275 OFFCURVE",
"40 -275 CURVE SMOOTH"
);
},
{
closed = 1;
nodes = (
"261 337 OFFCURVE",
"275 363 OFFCURVE",
"276 374 CURVE SMOOTH",
"276 379 OFFCURVE",
"273 386 OFFCURVE",
"265 386 CURVE SMOOTH",
"228 384 OFFCURVE",
"160 378 OFFCURVE",
"110 378 CURVE",
"112 351 LINE",
"164 351 OFFCURVE",
"209 344 OFFCURVE",
"246 339 CURVE SMOOTH"
);
}
);
width = 283;
}
);
leftKerningGroup = f;
rightKerningGroup = f;
unicode = 0066;
},
{
color = 3;
glyphname = g;
layers = (
{
anchors = (
{
name = bottom;
position = "{108, 0}";
},
{
name = top;
position = "{230, 386}";
}
);
layerId = "899E7F5F-806C-4D81-B34A-222CEA57032B";
paths = (
{
closed = 1;
nodes = (
"302 -281 OFFCURVE",
"368 -192 OFFCURVE",
"368 -70 CURVE SMOOTH",
"371 406 LINE SMOOTH",
"371 411 OFFCURVE",
"358 411 OFFCURVE",
"358 407 CURVE SMOOTH",
"356 381 OFFCURVE",
"332 360 OFFCURVE",
"316 357 CURVE",
"364 332 LINE",
"350 380 OFFCURVE",
"304 399 OFFCURVE",
"264 399 CURVE SMOOTH",
"149 399 OFFCURVE",
"33 237 OFFCURVE",
"37 91 CURVE SMOOTH",
"42 16 OFFCURVE",
"75 -13 OFFCURVE",
"122 -13 CURVE SMOOTH",
"212 -13 OFFCURVE",
"295 97 OFFCURVE",
"337 246 CURVE",
"323 229 LINE",
"323 -94 LINE SMOOTH",
"323 -230 OFFCURVE",
"274 -258 OFFCURVE",
"221 -258 CURVE SMOOTH",
"118 -258 OFFCURVE",
"125 -180 OFFCURVE",
"82 -180 CURVE SMOOTH",
"69 -180 OFFCURVE",
"55 -185 OFFCURVE",
"55 -205 CURVE SMOOTH",
"55 -247 OFFCURVE",
"109 -281 OFFCURVE",
"179 -281 CURVE SMOOTH"
);
},
{
closed = 1;
nodes = (
"104 30 OFFCURVE",
"84 64 OFFCURVE",
"83 127 CURVE SMOOTH",
"80 262 OFFCURVE",
"157 365 OFFCURVE",
"237 367 CURVE SMOOTH",
"294 368 OFFCURVE",
"324 329 OFFCURVE",
"320 283 CURVE SMOOTH",
"316 165 OFFCURVE",
"230 30 OFFCURVE",
"146 30 CURVE SMOOTH"
);
}
);
width = 434;
},
{
anchors = (
{
name = bottom;
position = "{108, 0}";
},
{
name = top;
position = "{256, 386}";
}
);
layerId = "05D38584-429E-4AAF-9BEA-6CB44526FD1C";
paths = (
{
closed = 1;
nodes = (
"319 -281 OFFCURVE",
"400 -191 OFFCURVE",
"401 -33 CURVE SMOOTH",
"402 404 LINE SMOOTH",
"402 409 OFFCURVE",
"392 411 OFFCURVE",
"389 407 CURVE SMOOTH",
"375 380 OFFCURVE",
"349 360 OFFCURVE",
"324 357 CURVE",
"396 324 LINE",
"381 377 OFFCURVE",
"320 399 OFFCURVE",
"277 399 CURVE SMOOTH",
"153 399 OFFCURVE",
"28 226 OFFCURVE",
"33 91 CURVE SMOOTH",
"35 18 OFFCURVE",
"75 -13 OFFCURVE",
"125 -13 CURVE SMOOTH",
"214 -13 OFFCURVE",
"304 82 OFFCURVE",
"325 246 CURVE",
"305 229 LINE SMOOTH",
"305 -56 LINE SMOOTH",
"303 -227 OFFCURVE",
"264 -261 OFFCURVE",
"216 -261 CURVE SMOOTH",
"130 -261 OFFCURVE",
"160 -154 OFFCURVE",
"87 -154 CURVE SMOOTH",
"63 -154 OFFCURVE",
"40 -167 OFFCURVE",
"41 -195 CURVE SMOOTH",
"42 -246 OFFCURVE",
"101 -281 OFFCURVE",
"187 -281 CURVE SMOOTH"
);
},
{
closed = 1;
nodes = (
"149 60 OFFCURVE",
"122 88 OFFCURVE",
"120 172 CURVE SMOOTH",
"120 275 OFFCURVE",
"160 350 OFFCURVE",
"229 350 CURVE SMOOTH",
"277 350 OFFCURVE",
"306 313 OFFCURVE",
"305 253 CURVE SMOOTH",
"304 178 OFFCURVE",
"251 60 OFFCURVE",
"182 60 CURVE SMOOTH"
);
}
);
width = 455;
}
);
leftKerningGroup = a;
leftMetricsKey = a;
rightKerningGroup = j;
unicode = 0067;
},
{
color = 3;
glyphname = h;
layers = (
{
anchors = (
{
name = bottom;
position = "{264, 0}";
},
{
name = center;
position = "{247, 193}";
},
{
name = top;
position = "{239, 386}";
}
);
layerId = "899E7F5F-806C-4D81-B34A-222CEA57032B";
paths = (
{
closed = 1;
nodes = (
"422 -9 OFFCURVE",
"451 19 OFFCURVE",
"490 69 CURVE SMOOTH",
"492 73 OFFCURVE",
"482 81 OFFCURVE",
"478 77 CURVE SMOOTH",
"453 47 OFFCURVE",
"429 28 OFFCURVE",
"411 28 CURVE SMOOTH",
"389 28 OFFCURVE",
"381 48 OFFCURVE",
"381 89 CURVE SMOOTH",
"382 267 LINE SMOOTH",
"384 361 OFFCURVE",
"354 399 OFFCURVE",
"298 399 CURVE SMOOTH",
"184 399 OFFCURVE",
"117 239 OFFCURVE",
"117 7 CURVE",
"127 6 LINE",
"132 240 OFFCURVE",
"196 365 OFFCURVE",
"273 365 CURVE SMOOTH",
"312 365 OFFCURVE",
"338 332 OFFCURVE",
"337 248 CURVE SMOOTH",
"335 65 LINE SMOOTH",
"335 16 OFFCURVE",
"353 -9 OFFCURVE",
"387 -9 CURVE SMOOTH"
);
},
{
closed = 1;
nodes = (
"119 -8 OFFCURVE",
"127 -2 OFFCURVE",
"127 6 CURVE SMOOTH",
"133 717 LINE SMOOTH",
"133 720 OFFCURVE",
"124 727 OFFCURVE",
"120 725 CURVE SMOOTH",
"-4 665 LINE SMOOTH",
"-9 663 OFFCURVE",
"-5 651 OFFCURVE",
"2 654 CURVE SMOOTH",
"64 684 OFFCURVE",
"88 670 OFFCURVE",
"88 627 CURVE SMOOTH",
"81 74 LINE SMOOTH",
"81 39 OFFCURVE",
"78 2 OFFCURVE",
"78 -2 CURVE SMOOTH",
"80 -6 OFFCURVE",
"83 -8 OFFCURVE",
"102 -8 CURVE SMOOTH"
);
}
);
width = 476;
},
{
anchors = (
{
name = bottom;
position = "{271, 0}";
},
{
name = center;
position = "{250, 193}";
},
{
name = top;
position = "{246, 386}";
}
);
layerId = "05D38584-429E-4AAF-9BEA-6CB44526FD1C";
paths = (
{
closed = 1;
nodes = (
"429 -9 OFFCURVE",
"458 19 OFFCURVE",
"496 69 CURVE SMOOTH",
"499 74 OFFCURVE",
"490 83 OFFCURVE",
"485 78 CURVE SMOOTH",
"467 58 OFFCURVE",
"449 42 OFFCURVE",
"434 42 CURVE SMOOTH",
"421 42 OFFCURVE",
"409 51 OFFCURVE",
"411 89 CURVE SMOOTH",
"413 267 LINE SMOOTH",
"413 357 OFFCURVE",
"378 399 OFFCURVE",
"316 399 CURVE SMOOTH",
"202 399 OFFCURVE",
"133 250 OFFCURVE",
"137 13 CURVE",
"157 12 LINE",
"156 226 OFFCURVE",
"209 342 OFFCURVE",
"273 342 CURVE SMOOTH",
"303 342 OFFCURVE",
"319 312 OFFCURVE",
"319 248 CURVE SMOOTH",
"318 89 LINE SMOOTH",
"317 25 OFFCURVE",
"337 -9 OFFCURVE",
"385 -9 CURVE SMOOTH"
);
},
{
closed = 1;
nodes = (
"137 -8 OFFCURVE",
"157 0 OFFCURVE",
"157 12 CURVE SMOOTH",
"158 717 LINE SMOOTH",
"158 720 OFFCURVE",
"149 727 OFFCURVE",
"144 725 CURVE SMOOTH",
"-14 649 LINE SMOOTH",
"-19 647 OFFCURVE",
"-14 635 OFFCURVE",
"-8 637 CURVE SMOOTH",
"47 664 OFFCURVE",
"68 653 OFFCURVE",
"67 589 CURVE SMOOTH",
"63 74 LINE SMOOTH",
"63 39 OFFCURVE",
"60 5 OFFCURVE",
"61 0 CURVE SMOOTH",
"62 -4 OFFCURVE",
"70 -8 OFFCURVE",
"98 -8 CURVE SMOOTH"
);
}
);
width = 489;
}
);
leftKerningGroup = l;
rightKerningGroup = n;
rightMetricsKey = n;
unicode = 0068;
},
{
glyphname = hbar;
layers = (
{
components = (
{
name = h;
}
);
layerId = "899E7F5F-806C-4D81-B34A-222CEA57032B";
paths = (
{
closed = 1;
nodes = (
"290 501 LINE SMOOTH",
"296 501 OFFCURVE",
"296 519 OFFCURVE",
"290 519 CURVE SMOOTH",
"4 519 LINE SMOOTH",
"-2 519 OFFCURVE",
"-2 501 OFFCURVE",
"4 501 CURVE SMOOTH"
);
}
);
width = 476;
},
{
components = (
{
name = h;
}
);
layerId = "05D38584-429E-4AAF-9BEA-6CB44526FD1C";
paths = (
{
closed = 1;
nodes = (
"278 498 LINE SMOOTH",
"284 498 OFFCURVE",
"283 522 OFFCURVE",
"277 522 CURVE SMOOTH",
"-9 522 LINE SMOOTH",
"-15 522 OFFCURVE",
"-15 498 OFFCURVE",
"-9 498 CURVE SMOOTH"
);
}
);
width = 489;
}
);
leftKerningGroup = l;
rightKerningGroup = n;
unicode = 0127;
},
{
color = 3;
glyphname = idotless;
layers = (
{
anchors = (
{
name = bottom;
position = "{149, 0}";
},
{
name = ogonek;
position = "{165, 12}";
},
{
name = top;
position = "{122, 386}";
}
);
layerId = "899E7F5F-806C-4D81-B34A-222CEA57032B";
paths = (
{
closed = 1;
nodes = (
"196 -9 OFFCURVE",
"226 19 OFFCURVE",
"264 69 CURVE SMOOTH",
"267 73 OFFCURVE",
"256 81 OFFCURVE",
"253 77 CURVE SMOOTH",
"227 47 OFFCURVE",
"204 28 OFFCURVE",
"185 28 CURVE SMOOTH",
"164 28 OFFCURVE",
"156 48 OFFCURVE",
"156 89 CURVE SMOOTH",
"158 320 LINE SMOOTH",
"158 372 OFFCURVE",
"142 395 OFFCURVE",
"108 395 CURVE SMOOTH",
"71 395 OFFCURVE",
"37 366 OFFCURVE",
"0 316 CURVE SMOOTH",
"-4 311 OFFCURVE",
"6 303 OFFCURVE",
"11 308 CURVE SMOOTH",
"37 337 OFFCURVE",
"62 358 OFFCURVE",
"81 358 CURVE SMOOTH",
"99 358 OFFCURVE",
"112 343 OFFCURVE",
"111 297 CURVE SMOOTH",
"108 65 LINE SMOOTH",
"106 16 OFFCURVE",
"127 -9 OFFCURVE",
"161 -9 CURVE SMOOTH"
);
}
);
width = 260;
},
{
anchors = (
{
name = bottom;
position = "{144, 0}";
},
{
name = ogonek;
position = "{157, 12}";
},
{
name = top;
position = "{123, 386}";
}
);
layerId = "05D38584-429E-4AAF-9BEA-6CB44526FD1C";
paths = (
{
closed = 1;
nodes = (
"195 -9 OFFCURVE",
"225 19 OFFCURVE",
"262 69 CURVE SMOOTH",
"265 74 OFFCURVE",
"255 82 OFFCURVE",
"250 77 CURVE SMOOTH",
"230 57 OFFCURVE",
"215 42 OFFCURVE",
"200 42 CURVE SMOOTH",
"187 42 OFFCURVE",
"175 51 OFFCURVE",
"177 89 CURVE SMOOTH",
"181 309 LINE SMOOTH",
"181 364 OFFCURVE",
"161 395 OFFCURVE",
"113 395 CURVE SMOOTH",
"73 395 OFFCURVE",
"37 372 OFFCURVE",
"-4 315 CURVE SMOOTH",
"-8 310 OFFCURVE",
"4 301 OFFCURVE",
"7 306 CURVE SMOOTH",
"29 333 OFFCURVE",
"48 346 OFFCURVE",
"62 346 CURVE SMOOTH",
"80 346 OFFCURVE",
"89 330 OFFCURVE",
"88 297 CURVE SMOOTH",
"84 89 LINE SMOOTH",
"82 25 OFFCURVE",
"102 -9 OFFCURVE",
"151 -9 CURVE SMOOTH"
);
}
);
width = 260;
}
);
leftKerningGroup = n;
leftMetricsKey = "n+10";
rightMetricsKey = "n+10";
unicode = 0131;
},
{
glyphname = ij;
layers = (
{
components = (
{
name = dotaccent;
transform = "{1, 0, 0, 1, 20, 0}";
},
{
name = dotaccent;
transform = "{1, 0, 0, 1, 223, 0}";
}
);
layerId = "899E7F5F-806C-4D81-B34A-222CEA57032B";
paths = (
{
closed = 1;
nodes = (
"297 -281 OFFCURVE",
"354 -192 OFFCURVE",
"356 -70 CURVE SMOOTH",
"358 312 LINE SMOOTH",
"358 347 OFFCURVE",
"360 384 OFFCURVE",
"360 388 CURVE SMOOTH",
"359 392 OFFCURVE",
"356 394 OFFCURVE",
"338 394 CURVE SMOOTH",
"323 394 OFFCURVE",
"315 388 OFFCURVE",
"315 380 CURVE SMOOTH",
"313 297 LINE",
"315 -94 LINE SMOOTH",
"316 -230 OFFCURVE",
"273 -260 OFFCURVE",
"228 -260 CURVE SMOOTH",
"140 -260 OFFCURVE",
"142 -178 OFFCURVE",
"109 -178 CURVE SMOOTH",
"97 -178 OFFCURVE",
"85 -185 OFFCURVE",
"85 -205 CURVE SMOOTH",
"85 -247 OFFCURVE",
"131 -281 OFFCURVE",
"192 -281 CURVE SMOOTH"
);
},
{
closed = 1;
nodes = (
"262 -13 OFFCURVE",
"325 147 OFFCURVE",
"325 379 CURVE",
"315 380 LINE",
"312 152 OFFCURVE",
"251 21 OFFCURVE",
"186 21 CURVE SMOOTH",
"143 21 OFFCURVE",
"123 58 OFFCURVE",
"125 138 CURVE SMOOTH",
"130 297 LINE SMOOTH",
"132 370 OFFCURVE",
"119 395 OFFCURVE",
"88 395 CURVE SMOOTH",
"54 395 OFFCURVE",
"26 367 OFFCURVE",
"-11 317 CURVE SMOOTH",
"-14 312 OFFCURVE",
"-5 304 OFFCURVE",
"0 309 CURVE SMOOTH",
"23 339 OFFCURVE",
"44 358 OFFCURVE",
"60 358 CURVE SMOOTH",
"77 358 OFFCURVE",
"89 338 OFFCURVE",
"88 297 CURVE SMOOTH",
"83 119 LINE SMOOTH",
"80 25 OFFCURVE",
"106 -13 OFFCURVE",
"164 -13 CURVE SMOOTH"
);
}
);
width = 432;
},
{
components = (
{
name = dotaccent;
transform = "{1, 0, 0, 1, 28, 0}";
},
{
name = dotaccent;
transform = "{1, 0, 0, 1, 230, 0}";
}
);
layerId = "05D38584-429E-4AAF-9BEA-6CB44526FD1C";
paths = (
{
closed = 1;
nodes = (
"317 -281 OFFCURVE",
"385 -193 OFFCURVE",
"386 -70 CURVE SMOOTH",
"388 312 LINE SMOOTH",
"391 347 OFFCURVE",
"391 384 OFFCURVE",
"391 388 CURVE SMOOTH",
"389 392 OFFCURVE",
"385 394 OFFCURVE",
"347 394 CURVE SMOOTH",
"318 394 OFFCURVE",
"303 388 OFFCURVE",
"303 380 CURVE SMOOTH",
"302 297 LINE",
"301 -94 LINE SMOOTH",
"301 -229 OFFCURVE",
"273 -260 OFFCURVE",
"237 -260 CURVE SMOOTH",
"150 -260 OFFCURVE",
"181 -154 OFFCURVE",
"113 -154 CURVE SMOOTH",
"92 -154 OFFCURVE",
"71 -167 OFFCURVE",
"71 -205 CURVE SMOOTH",
"69 -247 OFFCURVE",
"125 -281 OFFCURVE",
"201 -281 CURVE SMOOTH"
);
},
{
closed = 1;
nodes = (
"261 -13 OFFCURVE",
"324 136 OFFCURVE",
"320 373 CURVE",
"303 380 LINE",
"304 166 OFFCURVE",
"255 44 OFFCURVE",
"198 44 CURVE SMOOTH",
"170 44 OFFCURVE",
"153 74 OFFCURVE",
"154 138 CURVE SMOOTH",
"158 297 LINE SMOOTH",
"160 366 OFFCURVE",
"136 395 OFFCURVE",
"96 395 CURVE SMOOTH",
"57 395 OFFCURVE",
"30 367 OFFCURVE",
"-4 317 CURVE SMOOTH",
"-7 312 OFFCURVE",
"2 304 OFFCURVE",
"7 309 CURVE SMOOTH",
"25 329 OFFCURVE",
"39 344 OFFCURVE",
"53 344 CURVE SMOOTH",
"64 344 OFFCURVE",
"75 335 OFFCURVE",
"74 297 CURVE SMOOTH",
"70 119 LINE SMOOTH",
"69 29 OFFCURVE",
"102 -13 OFFCURVE",
"158 -13 CURVE SMOOTH"
);
}
);
width = 441;
}
);
leftMetricsKey = u;
rightKerningGroup = j;
unicode = 0133;
},
{
color = 3;
glyphname = iogonek;
layers = (
{
layerId = "899E7F5F-806C-4D81-B34A-222CEA57032B";
paths = (
{
closed = 1;
nodes = (
"202 -275 OFFCURVE",
"229 -262 OFFCURVE",
"260 -239 CURVE SMOOTH",
"263 -235 OFFCURVE",
"256 -227 OFFCURVE",
"253 -229 CURVE SMOOTH",
"240 -239 OFFCURVE",
"223 -248 OFFCURVE",
"196 -248 CURVE SMOOTH",
"139 -248 OFFCURVE",
"111 -205 OFFCURVE",
"111 -158 CURVE SMOOTH",
"111 -73 OFFCURVE",
"202 -2 OFFCURVE",
"264 69 CURVE SMOOTH",
"267 73 OFFCURVE",
"256 81 OFFCURVE",
"253 77 CURVE SMOOTH",
"227 47 OFFCURVE",
"204 28 OFFCURVE",
"187 28 CURVE SMOOTH",
"168 28 OFFCURVE",
"157 48 OFFCURVE",
"157 89 CURVE SMOOTH",
"157 297 LINE SMOOTH",
"157 370 OFFCURVE",
"145 395 OFFCURVE",
"110 395 CURVE SMOOTH",
"73 395 OFFCURVE",
"37 370 OFFCURVE",
"-1 319 CURVE SMOOTH",
"-5 315 OFFCURVE",
"6 306 OFFCURVE",
"9 311 CURVE SMOOTH",
"36 342 OFFCURVE",
"62 358 OFFCURVE",
"80 358 CURVE SMOOTH",
"98 358 OFFCURVE",
"110 338 OFFCURVE",
"110 297 CURVE SMOOTH",
"109 89 LINE SMOOTH",
"109 16 OFFCURVE",
"122 -9 OFFCURVE",
"157 -9 CURVE SMOOTH",
"170 -9 OFFCURVE",
"177 -6 OFFCURVE",
"186 -1 CURVE",
"200 21 LINE",
"130 -47 OFFCURVE",
"70 -115 OFFCURVE",
"70 -179 CURVE SMOOTH",
"70 -230 OFFCURVE",
"109 -275 OFFCURVE",
"170 -275 CURVE SMOOTH"
);
},
{
closed = 1;
nodes = (
"144 517 OFFCURVE",
"158 531 OFFCURVE",
"158 556 CURVE SMOOTH",
"158 579 OFFCURVE",
"144 593 OFFCURVE",
"119 593 CURVE SMOOTH",
"95 593 OFFCURVE",
"80 579 OFFCURVE",
"80 556 CURVE SMOOTH",
"80 531 OFFCURVE",
"95 517 OFFCURVE",
"119 517 CURVE SMOOTH"
);
}
);
width = 260;
},
{
layerId = "05D38584-429E-4AAF-9BEA-6CB44526FD1C";
paths = (
{
closed = 1;
nodes = (
"187 -275 OFFCURVE",
"236 -254 OFFCURVE",
"264 -207 CURVE SMOOTH",
"268 -204 OFFCURVE",
"260 -195 OFFCURVE",
"255 -198 CURVE SMOOTH",
"246 -209 OFFCURVE",
"233 -222 OFFCURVE",
"208 -222 CURVE SMOOTH",
"165 -222 OFFCURVE",
"142 -185 OFFCURVE",
"140 -144 CURVE SMOOTH",
"138 -75 OFFCURVE",
"159 -39 OFFCURVE",
"263 69 CURVE SMOOTH",
"267 74 OFFCURVE",
"256 82 OFFCURVE",
"251 77 CURVE SMOOTH",
"233 57 OFFCURVE",
"216 42 OFFCURVE",
"201 42 CURVE SMOOTH",
"188 42 OFFCURVE",
"177 51 OFFCURVE",
"178 89 CURVE SMOOTH",
"179 309 LINE SMOOTH",
"178 364 OFFCURVE",
"160 395 OFFCURVE",
"112 395 CURVE SMOOTH",
"71 395 OFFCURVE",
"36 372 OFFCURVE",
"-5 315 CURVE SMOOTH",
"-9 310 OFFCURVE",
"2 301 OFFCURVE",
"6 306 CURVE SMOOTH",
"28 333 OFFCURVE",
"47 346 OFFCURVE",
"61 346 CURVE SMOOTH",
"78 346 OFFCURVE",
"87 330 OFFCURVE",
"87 297 CURVE SMOOTH",
"85 89 LINE SMOOTH",
"84 25 OFFCURVE",
"104 -9 OFFCURVE",
"152 -9 CURVE SMOOTH",
"165 -9 OFFCURVE",
"175 -6 OFFCURVE",
"185 -1 CURVE",
"199 21 LINE",
"108 -42 OFFCURVE",
"49 -129 OFFCURVE",
"49 -192 CURVE SMOOTH",
"49 -247 OFFCURVE",
"92 -275 OFFCURVE",
"143 -275 CURVE SMOOTH"
);
},
{
closed = 1;
nodes = (
"164 495 OFFCURVE",
"185 517 OFFCURVE",
"185 556 CURVE SMOOTH",
"185 591 OFFCURVE",
"164 613 OFFCURVE",
"126 613 CURVE SMOOTH",
"89 613 OFFCURVE",
"65 591 OFFCURVE",
"65 556 CURVE SMOOTH",
"65 517 OFFCURVE",
"89 495 OFFCURVE",
"126 495 CURVE SMOOTH"
);
}
);
width = 260;
}
);
unicode = 012F;
},
{
color = 3;
glyphname = jdotless;
layers = (
{
anchors = (
{
name = top;
position = "{122, 386}";
}
);
layerId = "899E7F5F-806C-4D81-B34A-222CEA57032B";
paths = (
{
closed = 1;
nodes = (
"146 -275 OFFCURVE",
"167 -225 OFFCURVE",
"166 -42 CURVE SMOOTH",
"165 320 LINE SMOOTH",
"165 372 OFFCURVE",
"150 395 OFFCURVE",
"116 395 CURVE SMOOTH",
"80 395 OFFCURVE",
"46 366 OFFCURVE",
"8 316 CURVE SMOOTH",
"5 311 OFFCURVE",
"14 303 OFFCURVE",
"19 308 CURVE SMOOTH",
"46 337 OFFCURVE",
"70 358 OFFCURVE",
"89 358 CURVE SMOOTH",
"108 358 OFFCURVE",
"119 340 OFFCURVE",
"119 297 CURVE SMOOTH",
"122 -64 LINE SMOOTH",
"122 -205 OFFCURVE",
"115 -261 OFFCURVE",
"80 -261 CURVE SMOOTH",
"48 -261 OFFCURVE",
"50 -207 OFFCURVE",
"19 -207 CURVE SMOOTH",
"4 -207 OFFCURVE",
"-8 -216 OFFCURVE",
"-8 -235 CURVE SMOOTH",
"-7 -255 OFFCURVE",
"15 -275 OFFCURVE",
"60 -275 CURVE SMOOTH"
);
}
);
width = 249;
},
{
anchors = (
{
name = top;
position = "{127, 386}";
}
);
layerId = "05D38584-429E-4AAF-9BEA-6CB44526FD1C";
paths = (
{
closed = 1;
nodes = (
"163 -275 OFFCURVE",
"196 -209 OFFCURVE",
"195 -21 CURVE SMOOTH",
"195 309 LINE SMOOTH",
"194 364 OFFCURVE",
"175 395 OFFCURVE",
"127 395 CURVE SMOOTH",
"87 395 OFFCURVE",
"53 372 OFFCURVE",
"11 315 CURVE SMOOTH",
"6 310 OFFCURVE",
"18 301 OFFCURVE",
"21 306 CURVE SMOOTH",
"43 333 OFFCURVE",
"62 346 OFFCURVE",
"76 346 CURVE SMOOTH",
"94 346 OFFCURVE",
"102 330 OFFCURVE",
"102 297 CURVE SMOOTH",
"102 -47 LINE SMOOTH",
"102 -219 OFFCURVE",
"105 -255 OFFCURVE",
"83 -255 CURVE SMOOTH",
"44 -255 OFFCURVE",
"67 -178 OFFCURVE",
"-5 -178 CURVE SMOOTH",
"-28 -178 OFFCURVE",
"-48 -191 OFFCURVE",
"-47 -218 CURVE SMOOTH",
"-46 -249 OFFCURVE",
"-4 -275 OFFCURVE",
"62 -275 CURVE SMOOTH"
);
}
);
width = 262;
}
);
rightKerningGroup = j;
unicode = 0237;
},
{
color = 3;
glyphname = k;
layers = (
{
anchors = (
{
name = bottom;
position = "{222, 0}";
},
{
name = top;
position = "{109, 671}";
}
);
layerId = "899E7F5F-806C-4D81-B34A-222CEA57032B";
paths = (
{
closed = 1;
nodes = (
"119 -8 OFFCURVE",
"127 -2 OFFCURVE",
"127 6 CURVE SMOOTH",
"131 208 LINE",
"133 717 LINE SMOOTH",
"133 720 OFFCURVE",
"124 727 OFFCURVE",
"120 725 CURVE SMOOTH",
"-4 665 LINE SMOOTH",
"-9 663 OFFCURVE",
"-5 651 OFFCURVE",
"2 654 CURVE SMOOTH",
"64 684 OFFCURVE",
"88 670 OFFCURVE",
"88 627 CURVE SMOOTH",
"81 74 LINE SMOOTH",
"81 39 OFFCURVE",
"78 2 OFFCURVE",
"78 -2 CURVE SMOOTH",
"80 -6 OFFCURVE",
"83 -8 OFFCURVE",
"102 -8 CURVE SMOOTH"
);
},
{
closed = 1;
nodes = (
"401 -9 OFFCURVE",
"432 16 OFFCURVE",
"470 67 CURVE SMOOTH",
"474 71 OFFCURVE",
"464 80 OFFCURVE",
"460 75 CURVE SMOOTH",
"433 44 OFFCURVE",
"411 30 OFFCURVE",
"388 30 CURVE SMOOTH",
"371 30 OFFCURVE",
"349 40 OFFCURVE",
"308 90 CURVE SMOOTH",
"208 212 LINE",
"118 184 LINE",
"153 192 OFFCURVE",
"165 187 OFFCURVE",
"187 160 CURVE SMOOTH",
"271 58 LINE SMOOTH",
"313 7 OFFCURVE",
"338 -9 OFFCURVE",
"366 -9 CURVE SMOOTH"
);
},
{
closed = 1;
nodes = (
"273 218 OFFCURVE",
"377 278 OFFCURVE",
"378 339 CURVE SMOOTH",
"378 356 OFFCURVE",
"372 399 OFFCURVE",
"304 399 CURVE SMOOTH",
"221 399 OFFCURVE",
"135 335 OFFCURVE",
"98 243 CURVE",
"131 208 LINE",
"136 306 OFFCURVE",
"196 372 OFFCURVE",
"267 372 CURVE SMOOTH",
"303 372 OFFCURVE",
"313 354 OFFCURVE",
"313 324 CURVE SMOOTH",
"312 255 OFFCURVE",
"253 226 OFFCURVE",
"115 196 CURVE",
"118 184 LINE"
);
}
);
width = 451;
},
{
anchors = (
{
name = bottom;
position = "{222, 0}";
},
{
name = top;
position = "{109, 671}";
}
);
layerId = "05D38584-429E-4AAF-9BEA-6CB44526FD1C";
paths = (
{
closed = 1;
nodes = (
"137 -8 OFFCURVE",
"157 0 OFFCURVE",
"157 12 CURVE SMOOTH",
"157 205 LINE",
"158 717 LINE SMOOTH",
"158 722 OFFCURVE",
"147 727 OFFCURVE",
"144 725 CURVE SMOOTH",
"-14 649 LINE SMOOTH",
"-19 647 OFFCURVE",
"-14 635 OFFCURVE",
"-7 637 CURVE SMOOTH",
"48 663 OFFCURVE",
"68 653 OFFCURVE",
"67 589 CURVE SMOOTH",
"63 74 LINE SMOOTH",
"63 39 OFFCURVE",
"60 5 OFFCURVE",
"61 0 CURVE SMOOTH",
"62 -4 OFFCURVE",
"70 -8 OFFCURVE",
"98 -8 CURVE SMOOTH"
);
},
{
closed = 1;
nodes = (
"413 -9 OFFCURVE",
"444 16 OFFCURVE",
"483 67 CURVE SMOOTH",
"487 71 OFFCURVE",
"478 80 OFFCURVE",
"474 76 CURVE SMOOTH",
"453 58 OFFCURVE",
"433 49 OFFCURVE",
"419 49 CURVE SMOOTH",
"398 49 OFFCURVE",
"379 57 OFFCURVE",
"340 102 CURVE SMOOTH",
"241 214 LINE",
"133 173 LINE",
"161 181 OFFCURVE",
"168 178 OFFCURVE",
"188 154 CURVE SMOOTH",
"271 58 LINE SMOOTH",
"316 7 OFFCURVE",
"344 -9 OFFCURVE",
"382 -9 CURVE SMOOTH"
);
},
{
closed = 1;
nodes = (
"308 205 OFFCURVE",
"405 274 OFFCURVE",
"404 339 CURVE SMOOTH",
"402 363 OFFCURVE",
"388 399 OFFCURVE",
"318 399 CURVE SMOOTH",
"223 399 OFFCURVE",
"135 330 OFFCURVE",
"98 243 CURVE",
"157 205 LINE",
"159 295 OFFCURVE",
"196 356 OFFCURVE",
"255 356 CURVE SMOOTH",
"280 356 OFFCURVE",
"292 339 OFFCURVE",
"295 311 CURVE SMOOTH",
"303 251 OFFCURVE",
"253 214 OFFCURVE",
"130 191 CURVE",
"133 173 LINE"
);
}
);
width = 453;
}
);
leftKerningGroup = l;
leftMetricsKey = h;
unicode = 006B;
},
{
color = 3;
glyphname = kgreenlandic;
layers = (
{
layerId = "899E7F5F-806C-4D81-B34A-222CEA57032B";
paths = (
{
closed = 1;
nodes = (
"419 -9 OFFCURVE",
"449 12 OFFCURVE",
"491 67 CURVE SMOOTH",
"495 71 OFFCURVE",
"484 80 OFFCURVE",
"481 75 CURVE SMOOTH",
"454 44 OFFCURVE",
"432 30 OFFCURVE",
"411 30 CURVE SMOOTH",
"391 30 OFFCURVE",
"370 41 OFFCURVE",
"329 90 CURVE SMOOTH",
"228 212 LINE",
"138 184 LINE",
"174 192 OFFCURVE",
"186 187 OFFCURVE",
"208 160 CURVE SMOOTH",
"291 58 LINE SMOOTH",
"332 8 OFFCURVE",
"358 -9 OFFCURVE",
"387 -9 CURVE SMOOTH"
);
},
{
closed = 1;
nodes = (
"139 -8 OFFCURVE",
"149 -2 OFFCURVE",
"149 6 CURVE SMOOTH",
"151 208 LINE",
"150 320 LINE SMOOTH",
"150 372 OFFCURVE",
"135 395 OFFCURVE",
"101 395 CURVE SMOOTH",
"64 395 OFFCURVE",
"30 366 OFFCURVE",
"-7 316 CURVE SMOOTH",
"-11 311 OFFCURVE",
"-1 303 OFFCURVE",
"4 308 CURVE SMOOTH",
"30 337 OFFCURVE",
"55 358 OFFCURVE",
"74 358 CURVE SMOOTH",
"92 358 OFFCURVE",
"104 340 OFFCURVE",
"104 297 CURVE SMOOTH",
"101 74 LINE SMOOTH",
"99 39 OFFCURVE",
"98 2 OFFCURVE",
"98 -2 CURVE SMOOTH",
"99 -6 OFFCURVE",
"104 -8 OFFCURVE",
"123 -8 CURVE SMOOTH"
);
},
{
closed = 1;
nodes = (
"295 218 OFFCURVE",
"398 282 OFFCURVE",
"399 339 CURVE SMOOTH",
"399 356 OFFCURVE",
"391 399 OFFCURVE",
"324 399 CURVE SMOOTH",
"242 399 OFFCURVE",
"156 335 OFFCURVE",
"119 243 CURVE",
"151 208 LINE",
"157 310 OFFCURVE",
"220 372 OFFCURVE",
"287 372 CURVE SMOOTH",
"320 372 OFFCURVE",
"335 356 OFFCURVE",
"335 325 CURVE SMOOTH",
"335 253 OFFCURVE",
"255 221 OFFCURVE",
"136 196 CURVE",
"138 184 LINE"
);
}
);
width = 468;
},
{
layerId = "05D38584-429E-4AAF-9BEA-6CB44526FD1C";
paths = (
{
closed = 1;
nodes = (
"434 -9 OFFCURVE",
"467 16 OFFCURVE",
"505 67 CURVE SMOOTH",
"509 71 OFFCURVE",
"499 78 OFFCURVE",
"495 75 CURVE SMOOTH",
"476 57 OFFCURVE",
"455 49 OFFCURVE",
"441 49 CURVE SMOOTH",
"420 49 OFFCURVE",
"401 57 OFFCURVE",
"363 102 CURVE SMOOTH",
"263 214 LINE",
"156 173 LINE",
"184 181 OFFCURVE",
"189 178 OFFCURVE",
"211 154 CURVE SMOOTH",
"292 58 LINE SMOOTH",
"338 7 OFFCURVE",
"366 -9 OFFCURVE",
"405 -9 CURVE SMOOTH"
);
},
{
closed = 1;
nodes = (
"159 -8 OFFCURVE",
"178 0 OFFCURVE",
"178 12 CURVE SMOOTH",
"178 205 LINE",
"179 309 LINE SMOOTH",
"178 364 OFFCURVE",
"160 395 OFFCURVE",
"112 395 CURVE SMOOTH",
"71 395 OFFCURVE",
"36 372 OFFCURVE",
"-5 315 CURVE SMOOTH",
"-9 310 OFFCURVE",
"2 301 OFFCURVE",
"6 306 CURVE SMOOTH",
"28 333 OFFCURVE",
"47 346 OFFCURVE",
"61 346 CURVE SMOOTH",
"78 346 OFFCURVE",
"87 330 OFFCURVE",
"87 297 CURVE SMOOTH",
"85 74 LINE SMOOTH",
"85 39 OFFCURVE",
"82 5 OFFCURVE",
"83 0 CURVE SMOOTH",
"84 -4 OFFCURVE",
"92 -8 OFFCURVE",
"120 -8 CURVE SMOOTH"
);
},
{
closed = 1;
nodes = (
"330 205 OFFCURVE",
"427 274 OFFCURVE",
"426 339 CURVE SMOOTH",
"423 363 OFFCURVE",
"409 399 OFFCURVE",
"340 399 CURVE SMOOTH",
"246 399 OFFCURVE",
"157 330 OFFCURVE",
"120 243 CURVE",
"178 205 LINE",
"181 295 OFFCURVE",
"218 356 OFFCURVE",
"277 356 CURVE SMOOTH",
"302 356 OFFCURVE",
"315 339 OFFCURVE",
"317 311 CURVE SMOOTH",
"325 251 OFFCURVE",
"275 214 OFFCURVE",
"151 191 CURVE",
"156 173 LINE"
);
}
);
width = 463;
}
);
leftKerningGroup = n;
leftMetricsKey = n;
rightKerningGroup = k;
rightMetricsKey = k;
unicode = 0138;
},
{
color = 3;
glyphname = l;
layers = (
{
anchors = (
{
name = bottom;
position = "{133, 0}";
},
{
name = top;
position = "{108, 662}";
},
{
name = topright;
position = "{187, 386}";
}
);
layerId = "899E7F5F-806C-4D81-B34A-222CEA57032B";
paths = (
{
closed = 1;
nodes = (
"174 -9 OFFCURVE",
"204 19 OFFCURVE",
"242 69 CURVE SMOOTH",
"244 73 OFFCURVE",
"234 81 OFFCURVE",
"230 77 CURVE SMOOTH",
"205 47 OFFCURVE",
"181 28 OFFCURVE",
"163 28 CURVE SMOOTH",
"142 28 OFFCURVE",
"133 48 OFFCURVE",
"133 89 CURVE SMOOTH",
"139 717 LINE SMOOTH",
"139 720 OFFCURVE",
"131 727 OFFCURVE",
"126 725 CURVE SMOOTH",
"4 665 LINE SMOOTH",
"-2 662 OFFCURVE",
"4 651 OFFCURVE",
"9 654 CURVE SMOOTH",
"71 684 OFFCURVE",
"92 670 OFFCURVE",
"92 627 CURVE SMOOTH",
"85 65 LINE SMOOTH",
"84 16 OFFCURVE",
"105 -9 OFFCURVE",
"139 -9 CURVE SMOOTH"
);
}
);
width = 247;
},
{
anchors = (
{
name = bottom;
position = "{138, 0}";
},
{
name = top;
position = "{118, 662}";
},
{
name = topright;
position = "{194, 386}";
}
);
layerId = "05D38584-429E-4AAF-9BEA-6CB44526FD1C";
paths = (
{
closed = 1;
nodes = (
"181 -9 OFFCURVE",
"211 19 OFFCURVE",
"248 69 CURVE SMOOTH",
"251 74 OFFCURVE",
"242 82 OFFCURVE",
"237 77 CURVE SMOOTH",
"218 57 OFFCURVE",
"201 42 OFFCURVE",
"186 42 CURVE SMOOTH",
"173 42 OFFCURVE",
"161 51 OFFCURVE",
"163 89 CURVE SMOOTH",
"164 717 LINE SMOOTH",
"164 720 OFFCURVE",
"156 727 OFFCURVE",
"150 725 CURVE SMOOTH",
"-7 649 LINE SMOOTH",
"-13 647 OFFCURVE",
"-8 635 OFFCURVE",
"-1 637 CURVE SMOOTH",
"54 663 OFFCURVE",
"74 653 OFFCURVE",
"73 589 CURVE SMOOTH",
"70 89 LINE SMOOTH",
"69 25 OFFCURVE",
"88 -9 OFFCURVE",
"137 -9 CURVE SMOOTH"
);
}
);
width = 260;
}
);
leftKerningGroup = l;
unicode = 006C;
},
{
glyphname = lslash;
layers = (
{
components = (
{
alignment = -1;
name = l;
transform = "{1, 0, 0, 1, 5, 0}";
}
);
layerId = "899E7F5F-806C-4D81-B34A-222CEA57032B";
paths = (
{
closed = 1;
nodes = (
"199 389 LINE SMOOTH",
"204 392 OFFCURVE",
"193 408 OFFCURVE",
"188 406 CURVE SMOOTH",
"28 303 LINE SMOOTH",
"25 301 OFFCURVE",
"35 284 OFFCURVE",
"40 287 CURVE SMOOTH"
);
}
);
width = 258;
},
{
components = (
{
alignment = -1;
name = l;
transform = "{1, 0, 0, 1, 5, 0}";
}
);
layerId = "05D38584-429E-4AAF-9BEA-6CB44526FD1C";
paths = (
{
closed = 1;
nodes = (
"240 419 LINE SMOOTH",
"244 421 OFFCURVE",
"229 442 OFFCURVE",
"225 440 CURVE SMOOTH",
"9 306 LINE SMOOTH",
"5 304 OFFCURVE",
"20 283 OFFCURVE",
"25 285 CURVE SMOOTH"
);
}
);
width = 271;
}
);
leftKerningGroup = l;
leftMetricsKey = "=l+5";
rightMetricsKey = "=l+5";
unicode = 0142;
},
{
color = 3;
glyphname = m;
layers = (
{
anchors = (
{
name = bottom;
position = "{371, 0}";
},
{
name = top;
position = "{365, 386}";
}
);
layerId = "899E7F5F-806C-4D81-B34A-222CEA57032B";
paths = (
{
closed = 1;
nodes = (
"676 -9 OFFCURVE",
"705 19 OFFCURVE",
"744 69 CURVE SMOOTH",
"746 73 OFFCURVE",
"736 81 OFFCURVE",
"732 77 CURVE SMOOTH",
"706 47 OFFCURVE",
"683 28 OFFCURVE",
"664 28 CURVE SMOOTH",
"643 28 OFFCURVE",
"635 48 OFFCURVE",
"635 89 CURVE SMOOTH",
"636 267 LINE SMOOTH",
"635 357 OFFCURVE",
"612 399 OFFCURVE",
"554 399 CURVE SMOOTH",
"444 399 OFFCURVE",
"379 244 OFFCURVE",
"379 7 CURVE",
"391 6 LINE",
"392 229 OFFCURVE",
"454 365 OFFCURVE",
"530 365 CURVE SMOOTH",
"571 365 OFFCURVE",
"589 324 OFFCURVE",
"589 248 CURVE SMOOTH",
"588 65 LINE SMOOTH",
"588 16 OFFCURVE",
"607 -9 OFFCURVE",
"641 -9 CURVE SMOOTH"
);
},
{
closed = 1;
nodes = (
"139 -8 OFFCURVE",
"149 -2 OFFCURVE",
"149 6 CURVE SMOOTH",
"150 320 LINE SMOOTH",
"150 372 OFFCURVE",
"135 395 OFFCURVE",
"101 395 CURVE SMOOTH",
"64 395 OFFCURVE",
"30 366 OFFCURVE",
"-7 316 CURVE SMOOTH",
"-11 311 OFFCURVE",
"-1 303 OFFCURVE",
"4 308 CURVE SMOOTH",
"30 337 OFFCURVE",
"55 358 OFFCURVE",
"74 358 CURVE SMOOTH",
"92 358 OFFCURVE",
"104 340 OFFCURVE",
"104 297 CURVE SMOOTH",
"102 68 LINE SMOOTH",
"101 39 OFFCURVE",
"99 2 OFFCURVE",
"99 -2 CURVE SMOOTH",
"101 -6 OFFCURVE",
"104 -8 OFFCURVE",
"123 -8 CURVE SMOOTH"
);
},
{
closed = 1;
nodes = (
"381 -8 OFFCURVE",
"391 -2 OFFCURVE",
"391 6 CURVE SMOOTH",
"392 267 LINE SMOOTH",
"393 361 OFFCURVE",
"365 399 OFFCURVE",
"312 399 CURVE SMOOTH",
"202 399 OFFCURVE",
"136 239 OFFCURVE",
"137 7 CURVE",
"149 6 LINE",
"150 229 OFFCURVE",
"213 365 OFFCURVE",
"287 365 CURVE SMOOTH",
"323 365 OFFCURVE",
"343 331 OFFCURVE",
"345 248 CURVE SMOOTH",
"344 74 LINE SMOOTH",
"344 44 OFFCURVE",
"342 2 OFFCURVE",
"342 -2 CURVE SMOOTH",
"343 -6 OFFCURVE",
"345 -8 OFFCURVE",
"365 -8 CURVE SMOOTH"
);
}
);
width = 730;
},
{
anchors = (
{
name = bottom;
position = "{378, 0}";
},
{
name = top;
position = "{371, 386}";
}
);
layerId = "05D38584-429E-4AAF-9BEA-6CB44526FD1C";
paths = (
{
closed = 1;
nodes = (
"683 -9 OFFCURVE",
"712 19 OFFCURVE",
"750 69 CURVE SMOOTH",
"753 74 OFFCURVE",
"744 82 OFFCURVE",
"739 77 CURVE SMOOTH",
"719 57 OFFCURVE",
"703 42 OFFCURVE",
"688 42 CURVE SMOOTH",
"675 42 OFFCURVE",
"663 51 OFFCURVE",
"664 89 CURVE SMOOTH",
"665 267 LINE SMOOTH",
"665 357 OFFCURVE",
"633 399 OFFCURVE",
"574 399 CURVE SMOOTH",
"469 399 OFFCURVE",
"398 257 OFFCURVE",
"404 13 CURVE",
"422 12 LINE",
"420 233 OFFCURVE",
"475 342 OFFCURVE",
"530 342 CURVE SMOOTH",
"558 342 OFFCURVE",
"573 312 OFFCURVE",
"573 248 CURVE SMOOTH",
"572 89 LINE SMOOTH",
"571 25 OFFCURVE",
"589 -9 OFFCURVE",
"639 -9 CURVE SMOOTH"
);
},
{
closed = 1;
nodes = (
"159 -8 OFFCURVE",
"178 0 OFFCURVE",
"178 12 CURVE SMOOTH",
"179 309 LINE SMOOTH",
"178 364 OFFCURVE",
"160 395 OFFCURVE",
"112 395 CURVE SMOOTH",
"71 395 OFFCURVE",
"36 372 OFFCURVE",
"-5 315 CURVE SMOOTH",
"-8 309 OFFCURVE",
"1 301 OFFCURVE",
"6 306 CURVE SMOOTH",
"28 333 OFFCURVE",
"47 346 OFFCURVE",
"61 346 CURVE SMOOTH",
"78 346 OFFCURVE",
"87 330 OFFCURVE",
"87 297 CURVE SMOOTH",
"85 74 LINE SMOOTH",
"85 39 OFFCURVE",
"82 5 OFFCURVE",
"83 0 CURVE SMOOTH",
"84 -4 OFFCURVE",
"92 -8 OFFCURVE",
"120 -8 CURVE SMOOTH"
);
},
{
closed = 1;
nodes = (
"404 -8 OFFCURVE",
"422 0 OFFCURVE",
"422 12 CURVE SMOOTH",
"423 269 LINE SMOOTH",
"423 359 OFFCURVE",
"388 399 OFFCURVE",
"331 399 CURVE SMOOTH",
"221 399 OFFCURVE",
"153 250 OFFCURVE",
"159 13 CURVE",
"178 12 LINE",
"175 221 OFFCURVE",
"227 342 OFFCURVE",
"285 342 CURVE SMOOTH",
"313 342 OFFCURVE",
"332 315 OFFCURVE",
"331 250 CURVE SMOOTH",
"330 74 LINE SMOOTH",
"330 39 OFFCURVE",
"326 5 OFFCURVE",
"327 0 CURVE SMOOTH",
"329 -4 OFFCURVE",
"337 -8 OFFCURVE",
"365 -8 CURVE SMOOTH"
);
}
);
width = 743;
}
);
leftKerningGroup = n;
leftMetricsKey = n;
rightKerningGroup = n;
rightMetricsKey = n;
unicode = 006D;
},
{
color = 3;
glyphname = n;
layers = (
{
anchors = (
{
name = bottom;
position = "{275, 0}";
},
{
name = top;
position = "{242, 386}";
}
);
layerId = "899E7F5F-806C-4D81-B34A-222CEA57032B";
paths = (
{
closed = 1;
nodes = (
"444 -9 OFFCURVE",
"474 19 OFFCURVE",
"512 69 CURVE SMOOTH",
"515 73 OFFCURVE",
"504 81 OFFCURVE",
"501 77 CURVE SMOOTH",
"475 47 OFFCURVE",
"451 28 OFFCURVE",
"433 28 CURVE SMOOTH",
"412 28 OFFCURVE",
"404 48 OFFCURVE",
"404 89 CURVE SMOOTH",
"405 267 LINE SMOOTH",
"406 361 OFFCURVE",
"377 399 OFFCURVE",
"320 399 CURVE SMOOTH",
"206 399 OFFCURVE",
"138 239 OFFCURVE",
"138 7 CURVE",
"150 6 LINE",
"153 240 OFFCURVE",
"219 365 OFFCURVE",
"296 365 CURVE SMOOTH",
"339 365 OFFCURVE",
"358 324 OFFCURVE",
"358 248 CURVE SMOOTH",
"357 65 LINE SMOOTH",
"357 16 OFFCURVE",
"375 -9 OFFCURVE",
"409 -9 CURVE SMOOTH"
);
},
{
closed = 1;
nodes = (
"140 -8 OFFCURVE",
"150 -2 OFFCURVE",
"150 6 CURVE SMOOTH",
"150 320 LINE SMOOTH",
"150 372 OFFCURVE",
"135 395 OFFCURVE",
"101 395 CURVE SMOOTH",
"64 395 OFFCURVE",
"30 366 OFFCURVE",
"-7 316 CURVE SMOOTH",
"-11 311 OFFCURVE",
"-1 303 OFFCURVE",
"4 308 CURVE SMOOTH",
"30 337 OFFCURVE",
"55 358 OFFCURVE",
"74 358 CURVE SMOOTH",
"92 358 OFFCURVE",
"104 340 OFFCURVE",
"104 297 CURVE SMOOTH",
"102 74 LINE SMOOTH",
"102 39 OFFCURVE",
"99 2 OFFCURVE",
"99 -2 CURVE SMOOTH",
"101 -6 OFFCURVE",
"105 -8 OFFCURVE",
"124 -8 CURVE SMOOTH"
);
}
);
width = 498;
},
{
anchors = (
{
name = bottom;
position = "{281, 0}";
},
{
name = top;
position = "{249, 386}";
}
);
layerId = "05D38584-429E-4AAF-9BEA-6CB44526FD1C";
paths = (
{
closed = 1;
nodes = (
"451 -9 OFFCURVE",
"481 19 OFFCURVE",
"518 69 CURVE SMOOTH",
"522 74 OFFCURVE",
"511 82 OFFCURVE",
"506 77 CURVE SMOOTH",
"487 56 OFFCURVE",
"471 42 OFFCURVE",
"456 42 CURVE SMOOTH",
"443 42 OFFCURVE",
"432 51 OFFCURVE",
"433 89 CURVE SMOOTH",
"434 267 LINE SMOOTH",
"434 357 OFFCURVE",
"400 399 OFFCURVE",
"338 399 CURVE SMOOTH",
"225 399 OFFCURVE",
"156 250 OFFCURVE",
"159 13 CURVE",
"178 12 LINE",
"177 226 OFFCURVE",
"230 342 OFFCURVE",
"294 342 CURVE SMOOTH",
"325 342 OFFCURVE",
"342 312 OFFCURVE",
"342 248 CURVE SMOOTH",
"340 89 LINE SMOOTH",
"339 25 OFFCURVE",
"358 -9 OFFCURVE",
"407 -9 CURVE SMOOTH"
);
},
{
closed = 1;
nodes = (
"159 -8 OFFCURVE",
"178 0 OFFCURVE",
"178 12 CURVE SMOOTH",
"179 309 LINE SMOOTH",
"178 364 OFFCURVE",
"160 395 OFFCURVE",
"112 395 CURVE SMOOTH",
"71 395 OFFCURVE",
"36 372 OFFCURVE",
"-5 315 CURVE SMOOTH",
"-9 310 OFFCURVE",
"2 301 OFFCURVE",
"6 306 CURVE SMOOTH",
"28 333 OFFCURVE",
"47 346 OFFCURVE",
"61 346 CURVE SMOOTH",
"78 346 OFFCURVE",
"87 330 OFFCURVE",
"87 297 CURVE SMOOTH",
"85 74 LINE SMOOTH",
"85 39 OFFCURVE",
"82 5 OFFCURVE",
"83 0 CURVE SMOOTH",
"84 -4 OFFCURVE",
"92 -8 OFFCURVE",
"120 -8 CURVE SMOOTH"
);
}
);
width = 511;
}
);
leftKerningGroup = n;
rightKerningGroup = n;
unicode = 006E;
},
{
color = 3;
glyphname = eng;
layers = (
{
layerId = "899E7F5F-806C-4D81-B34A-222CEA57032B";
paths = (
{
closed = 1;
nodes = (
"378 -275 OFFCURVE",
"395 -223 OFFCURVE",
"398 -42 CURVE SMOOTH",
"405 267 LINE SMOOTH",
"406 361 OFFCURVE",
"377 399 OFFCURVE",
"320 399 CURVE SMOOTH",
"206 399 OFFCURVE",
"138 239 OFFCURVE",
"138 7 CURVE",
"150 6 LINE",
"153 240 OFFCURVE",
"219 365 OFFCURVE",
"295 365 CURVE SMOOTH",
"337 365 OFFCURVE",
"359 327 OFFCURVE",
"358 248 CURVE SMOOTH",
"353 -64 LINE SMOOTH",
"351 -205 OFFCURVE",
"346 -261 OFFCURVE",
"311 -261 CURVE SMOOTH",
"280 -261 OFFCURVE",
"282 -207 OFFCURVE",
"250 -207 CURVE SMOOTH",
"235 -207 OFFCURVE",
"223 -216 OFFCURVE",
"223 -235 CURVE SMOOTH",
"225 -255 OFFCURVE",
"247 -275 OFFCURVE",
"291 -275 CURVE SMOOTH"
);
},
{
closed = 1;
nodes = (
"140 -8 OFFCURVE",
"150 -2 OFFCURVE",
"150 6 CURVE SMOOTH",
"150 320 LINE SMOOTH",
"150 372 OFFCURVE",
"135 395 OFFCURVE",
"101 395 CURVE SMOOTH",
"64 395 OFFCURVE",
"30 366 OFFCURVE",
"-7 316 CURVE SMOOTH",
"-11 311 OFFCURVE",
"-1 303 OFFCURVE",
"4 308 CURVE SMOOTH",
"30 337 OFFCURVE",
"55 358 OFFCURVE",
"74 358 CURVE SMOOTH",
"92 358 OFFCURVE",
"104 340 OFFCURVE",
"104 297 CURVE SMOOTH",
"102 74 LINE SMOOTH",
"102 39 OFFCURVE",
"99 2 OFFCURVE",
"99 -2 CURVE SMOOTH",
"101 -6 OFFCURVE",
"105 -8 OFFCURVE",
"124 -8 CURVE SMOOTH"
);
}
);
width = 461;
},
{
layerId = "05D38584-429E-4AAF-9BEA-6CB44526FD1C";
paths = (
{
closed = 1;
nodes = (
"396 -275 OFFCURVE",
"428 -208 OFFCURVE",
"430 -20 CURVE SMOOTH",
"434 267 LINE SMOOTH",
"434 357 OFFCURVE",
"400 399 OFFCURVE",
"338 399 CURVE SMOOTH",
"225 399 OFFCURVE",
"156 250 OFFCURVE",
"159 13 CURVE",
"178 12 LINE",
"177 226 OFFCURVE",
"230 342 OFFCURVE",
"294 342 CURVE SMOOTH",
"325 342 OFFCURVE",
"342 312 OFFCURVE",
"342 248 CURVE SMOOTH",
"338 -46 LINE SMOOTH",
"336 -218 OFFCURVE",
"339 -255 OFFCURVE",
"317 -255 CURVE SMOOTH",
"278 -255 OFFCURVE",
"301 -178 OFFCURVE",
"229 -178 CURVE SMOOTH",
"207 -178 OFFCURVE",
"186 -191 OFFCURVE",
"187 -218 CURVE SMOOTH",
"188 -249 OFFCURVE",
"230 -275 OFFCURVE",
"297 -275 CURVE SMOOTH"
);
},
{
closed = 1;
nodes = (
"159 -8 OFFCURVE",
"178 0 OFFCURVE",
"178 12 CURVE SMOOTH",
"179 309 LINE SMOOTH",
"178 364 OFFCURVE",
"160 395 OFFCURVE",
"112 395 CURVE SMOOTH",
"71 395 OFFCURVE",
"36 372 OFFCURVE",
"-5 315 CURVE SMOOTH",
"-8 309 OFFCURVE",
"1 302 OFFCURVE",
"6 306 CURVE SMOOTH",
"28 333 OFFCURVE",
"47 346 OFFCURVE",
"61 346 CURVE SMOOTH",
"78 346 OFFCURVE",
"87 330 OFFCURVE",
"87 297 CURVE SMOOTH",
"85 74 LINE SMOOTH",
"85 39 OFFCURVE",
"82 5 OFFCURVE",
"83 0 CURVE SMOOTH",
"84 -4 OFFCURVE",
"92 -8 OFFCURVE",
"120 -8 CURVE SMOOTH"
);
}
);
width = 484;
}
);
leftKerningGroup = n;
rightKerningGroup = n;
unicode = 014B;
},
{
color = 3;
glyphname = o;
layers = (
{
anchors = (
{
name = bottom;
position = "{221, 0}";
},
{
name = center;
position = "{212, 193}";
},
{
name = top;
position = "{215, 386}";
},
{
name = topright;
position = "{289, 386}";
}
);
layerId = "899E7F5F-806C-4D81-B34A-222CEA57032B";
paths = (
{
closed = 1;
nodes = (
"302 -14 OFFCURVE",
"394 69 OFFCURVE",
"394 209 CURVE SMOOTH",
"394 335 OFFCURVE",
"320 399 OFFCURVE",
"227 399 CURVE SMOOTH",
"113 399 OFFCURVE",
"32 304 OFFCURVE",
"32 180 CURVE SMOOTH",
"32 68 OFFCURVE",
"98 -14 OFFCURVE",
"200 -14 CURVE SMOOTH"
);
},
{
closed = 1;
nodes = (
"136 11 OFFCURVE",
"73 120 OFFCURVE",
"73 222 CURVE SMOOTH",
"73 319 OFFCURVE",
"131 375 OFFCURVE",
"200 375 CURVE SMOOTH",
"294 375 OFFCURVE",
"353 271 OFFCURVE",
"353 167 CURVE SMOOTH",
"353 67 OFFCURVE",
"297 11 OFFCURVE",
"230 11 CURVE SMOOTH"
);
}
);
width = 425;
},
{
anchors = (
{
name = bottom;
position = "{229, 0}";
},
{
name = center;
position = "{220, 193}";
},
{
name = top;
position = "{216, 386}";
},
{
name = topright;
position = "{331, 386}";
}
);
layerId = "05D38584-429E-4AAF-9BEA-6CB44526FD1C";
paths = (
{
closed = 1;
nodes = (
"311 -14 OFFCURVE",
"411 56 OFFCURVE",
"414 193 CURVE SMOOTH",
"416 309 OFFCURVE",
"351 399 OFFCURVE",
"228 399 CURVE SMOOTH",
"111 399 OFFCURVE",
"28 315 OFFCURVE",
"25 193 CURVE SMOOTH",
"23 83 OFFCURVE",
"85 -14 OFFCURVE",
"208 -14 CURVE SMOOTH"
);
},
{
closed = 1;
nodes = (
"177 11 OFFCURVE",
"126 115 OFFCURVE",
"125 236 CURVE SMOOTH",
"125 331 OFFCURVE",
"153 375 OFFCURVE",
"196 375 CURVE SMOOTH",
"262 375 OFFCURVE",
"315 269 OFFCURVE",
"313 149 CURVE SMOOTH",
"312 65 OFFCURVE",
"289 11 OFFCURVE",
"241 11 CURVE SMOOTH"
);
}
);
width = 437;
}
);
leftKerningGroup = o;
rightKerningGroup = o;
unicode = 006F;
},
{
glyphname = oslash;
layers = (
{
anchors = (
{
name = top;
position = "{205, 386}";
}
);
components = (
{
name = o;
}
);
layerId = "899E7F5F-806C-4D81-B34A-222CEA57032B";
paths = (
{
closed = 1;
nodes = (
"375 386 LINE SMOOTH",
"379 391 OFFCURVE",
"363 401 OFFCURVE",
"359 398 CURVE SMOOTH",
"43 0 LINE SMOOTH",
"40 -5 OFFCURVE",
"56 -18 OFFCURVE",
"58 -14 CURVE SMOOTH"
);
}
);
width = 425;
},
{
anchors = (
{
name = top;
position = "{205, 386}";
}
);
components = (
{
name = o;
}
);
layerId = "05D38584-429E-4AAF-9BEA-6CB44526FD1C";
paths = (
{
closed = 1;
nodes = (
"381 387 LINE SMOOTH",
"385 392 OFFCURVE",
"364 406 OFFCURVE",
"360 402 CURVE SMOOTH",
"41 0 LINE SMOOTH",
"37 -5 OFFCURVE",
"57 -21 OFFCURVE",
"61 -18 CURVE SMOOTH"
);
}
);
width = 437;
}
);
leftKerningGroup = o;
rightKerningGroup = o;
unicode = 00F8;
},
{
color = 3;
glyphname = oe;
layers = (
{
anchors = (
{
name = bottom;
position = "{354, 0}";
},
{
name = top;
position = "{366, 386}";
}
);
layerId = "899E7F5F-806C-4D81-B34A-222CEA57032B";
paths = (
{
closed = 1;
nodes = (
"290 -14 OFFCURVE",
"380 65 OFFCURVE",
"381 193 CURVE SMOOTH",
"381 304 OFFCURVE",
"343 399 OFFCURVE",
"226 399 CURVE SMOOTH",
"111 399 OFFCURVE",
"32 306 OFFCURVE",
"32 184 CURVE SMOOTH",
"32 74 OFFCURVE",
"95 -14 OFFCURVE",
"195 -14 CURVE SMOOTH"
);
},
{
closed = 1;
nodes = (
"135 11 OFFCURVE",
"73 129 OFFCURVE",
"73 225 CURVE SMOOTH",
"73 311 OFFCURVE",
"122 375 OFFCURVE",
"198 375 CURVE SMOOTH",
"305 375 OFFCURVE",
"342 243 OFFCURVE",
"342 149 CURVE SMOOTH",
"342 61 OFFCURVE",
"291 11 OFFCURVE",
"229 11 CURVE SMOOTH"
);
},
{
closed = 1;
nodes = (
"561 -12 OFFCURVE",
"609 4 OFFCURVE",
"657 44 CURVE SMOOTH",
"661 48 OFFCURVE",
"654 55 OFFCURVE",
"650 53 CURVE SMOOTH",
"618 28 OFFCURVE",
"577 20 OFFCURVE",
"542 20 CURVE SMOOTH",
"446 20 OFFCURVE",
"389 104 OFFCURVE",
"392 218 CURVE SMOOTH",
"392 301 OFFCURVE",
"421 372 OFFCURVE",
"506 372 CURVE SMOOTH",
"542 372 OFFCURVE",
"567 360 OFFCURVE",
"564 324 CURVE SMOOTH",
"560 254 OFFCURVE",
"461 239 OFFCURVE",
"371 228 CURVE",
"371 213 LINE",
"461 223 OFFCURVE",
"622 273 OFFCURVE",
"626 345 CURVE SMOOTH",
"627 378 OFFCURVE",
"598 399 OFFCURVE",
"546 399 CURVE SMOOTH",
"423 399 OFFCURVE",
"342 284 OFFCURVE",
"340 178 CURVE SMOOTH",
"340 80 OFFCURVE",
"396 -12 OFFCURVE",
"511 -12 CURVE SMOOTH"
);
}
);
width = 662;
},
{
anchors = (
{
name = bottom;
position = "{352, 0}";
},
{
name = top;
position = "{364, 386}";
}
);
layerId = "05D38584-429E-4AAF-9BEA-6CB44526FD1C";
paths = (
{
closed = 1;
nodes = (
"304 -14 OFFCURVE",
"405 56 OFFCURVE",
"407 193 CURVE SMOOTH",
"409 309 OFFCURVE",
"344 399 OFFCURVE",
"222 399 CURVE SMOOTH",
"105 399 OFFCURVE",
"21 315 OFFCURVE",
"19 193 CURVE SMOOTH",
"18 83 OFFCURVE",
"80 -14 OFFCURVE",
"201 -14 CURVE SMOOTH"
);
},
{
closed = 1;
nodes = (
"171 11 OFFCURVE",
"120 115 OFFCURVE",
"119 236 CURVE SMOOTH",
"119 331 OFFCURVE",
"147 375 OFFCURVE",
"189 375 CURVE SMOOTH",
"255 375 OFFCURVE",
"308 269 OFFCURVE",
"306 149 CURVE SMOOTH",
"305 65 OFFCURVE",
"282 11 OFFCURVE",
"235 11 CURVE SMOOTH"
);
},
{
closed = 1;
nodes = (
"546 -12 OFFCURVE",
"604 6 OFFCURVE",
"650 55 CURVE SMOOTH",
"654 58 OFFCURVE",
"646 65 OFFCURVE",
"642 63 CURVE SMOOTH",
"614 40 OFFCURVE",
"575 32 OFFCURVE",
"547 32 CURVE SMOOTH",
"456 32 OFFCURVE",
"409 116 OFFCURVE",
"407 218 CURVE SMOOTH",
"406 304 OFFCURVE",
"430 372 OFFCURVE",
"481 372 CURVE SMOOTH",
"508 372 OFFCURVE",
"524 353 OFFCURVE",
"524 324 CURVE SMOOTH",
"526 260 OFFCURVE",
"456 229 OFFCURVE",
"354 214 CURVE",
"354 201 LINE",
"499 215 OFFCURVE",
"637 275 OFFCURVE",
"632 345 CURVE SMOOTH",
"628 379 OFFCURVE",
"593 399 OFFCURVE",
"533 399 CURVE SMOOTH",
"394 399 OFFCURVE",
"308 290 OFFCURVE",
"306 185 CURVE SMOOTH",
"305 87 OFFCURVE",
"365 -12 OFFCURVE",
"492 -12 CURVE SMOOTH"
);
}
);
width = 656;
}
);
leftKerningGroup = o;
leftMetricsKey = "=o-5";
rightKerningGroup = c;
rightMetricsKey = "=e-5";
unicode = 0153;
},
